<svg id="svg" version="1.1" xmlns="http://www.w3.org/2000/svg" xmlns:xlink="http://www.w3.org/1999/xlink" width="400" height="400" viewBox="0, 0, 400,400"><g id="svgg"><path id="path0" d="M164.400 87.600 C 164.400 87.831,163.133 88.000,161.400 88.000 C 159.667 88.000,158.400 88.169,158.400 88.400 C 158.400 88.622,157.333 88.800,156.000 88.800 C 154.667 88.800,153.600 88.978,153.600 89.200 C 153.600 89.420,152.801 89.600,151.824 89.600 C 150.847 89.600,149.936 89.780,149.800 90.000 C 149.664 90.220,148.843 90.400,147.976 90.400 C 147.109 90.400,146.400 90.561,146.400 90.758 C 146.400 90.955,145.725 91.214,144.900 91.334 C 142.541 91.676,138.884 92.583,138.560 92.906 C 138.399 93.068,137.857 93.200,137.357 93.200 C 136.857 93.200,136.336 93.380,136.200 93.600 C 136.064 93.820,135.513 94.000,134.976 94.000 C 134.439 94.000,134.000 94.180,134.000 94.400 C 134.000 94.620,133.460 94.800,132.800 94.800 C 132.140 94.800,131.600 94.980,131.600 95.200 C 131.600 95.420,131.285 95.606,130.900 95.613 C 130.515 95.619,129.125 96.159,127.810 96.813 C 126.496 97.466,125.101 98.000,124.710 98.000 C 124.320 98.000,124.000 98.180,124.000 98.400 C 124.000 98.620,123.640 98.800,123.200 98.800 C 122.760 98.800,122.400 98.980,122.400 99.200 C 122.400 99.420,122.040 99.600,121.600 99.600 C 121.160 99.600,120.800 99.780,120.800 100.000 C 120.800 100.220,120.440 100.400,120.000 100.400 C 119.560 100.400,119.200 100.580,119.200 100.800 C 119.200 101.020,118.840 101.200,118.400 101.200 C 117.960 101.200,117.600 101.380,117.600 101.600 C 117.600 101.820,117.240 102.000,116.800 102.000 C 116.360 102.000,116.000 102.180,116.000 102.400 C 116.000 102.620,115.722 102.800,115.383 102.800 C 115.044 102.800,114.380 103.160,113.908 103.600 C 113.436 104.040,112.813 104.400,112.525 104.400 C 112.236 104.400,112.000 104.580,112.000 104.800 C 112.000 105.020,111.640 105.200,111.200 105.200 C 110.760 105.200,110.400 105.380,110.400 105.600 C 110.400 105.820,110.170 106.000,109.888 106.000 C 109.607 106.000,109.117 106.360,108.800 106.800 C 108.483 107.240,107.903 107.600,107.512 107.600 C 107.120 107.600,106.800 107.753,106.800 107.939 C 106.800 108.126,106.080 108.603,105.200 109.000 C 104.320 109.397,103.600 109.862,103.600 110.034 C 103.600 110.206,103.234 110.462,102.787 110.604 C 102.340 110.746,101.538 111.298,101.005 111.831 C 100.472 112.364,99.875 112.800,99.678 112.800 C 99.480 112.800,98.754 113.340,98.063 114.000 C 97.372 114.660,96.665 115.200,96.491 115.200 C 96.317 115.200,95.231 116.100,94.078 117.200 C 92.925 118.300,91.892 119.200,91.784 119.200 C 91.599 119.200,89.773 120.944,82.300 128.257 C 80.595 129.926,79.200 131.450,79.200 131.645 C 79.200 131.840,78.466 132.756,77.569 133.680 C 76.671 134.605,75.669 135.879,75.342 136.512 C 75.015 137.145,74.219 138.215,73.574 138.891 C 72.928 139.566,72.400 140.322,72.400 140.571 C 72.400 140.820,72.040 141.283,71.600 141.600 C 71.160 141.917,70.800 142.367,70.800 142.600 C 70.800 142.833,70.440 143.283,70.000 143.600 C 69.560 143.917,69.200 144.457,69.200 144.800 C 69.200 145.143,68.840 145.683,68.400 146.000 C 67.960 146.317,67.600 146.857,67.600 147.200 C 67.600 147.543,67.240 148.083,66.800 148.400 C 66.360 148.717,66.000 149.297,66.000 149.688 C 66.000 150.080,65.820 150.400,65.600 150.400 C 65.380 150.400,65.200 150.720,65.200 151.112 C 65.200 151.503,64.840 152.083,64.400 152.400 C 63.960 152.717,63.600 153.297,63.600 153.688 C 63.600 154.080,63.420 154.400,63.200 154.400 C 62.980 154.400,62.800 154.760,62.800 155.200 C 62.800 155.640,62.620 156.000,62.400 156.000 C 62.180 156.000,62.000 156.193,62.000 156.428 C 62.000 156.663,61.498 157.608,60.885 158.528 C 60.272 159.448,59.417 160.920,58.985 161.800 C 58.553 162.680,58.065 163.460,57.900 163.533 C 57.735 163.607,57.600 164.012,57.600 164.433 C 57.600 164.855,57.420 165.200,57.200 165.200 C 56.980 165.200,56.800 165.560,56.800 166.000 C 56.800 166.440,56.650 166.800,56.468 166.800 C 56.285 166.800,55.881 167.295,55.570 167.900 C 55.260 168.505,54.689 169.291,54.303 169.647 C 53.916 170.003,53.600 170.518,53.600 170.793 C 53.600 171.430,50.813 174.000,50.122 174.000 C 49.835 174.000,49.600 174.153,49.600 174.339 C 49.600 174.526,48.835 174.994,47.900 175.380 C 46.965 175.766,45.887 176.244,45.505 176.441 C 45.123 176.638,44.358 176.800,43.805 176.800 C 43.252 176.800,42.800 176.980,42.800 177.200 C 42.800 177.420,42.080 177.600,41.200 177.600 C 40.320 177.600,39.600 177.780,39.600 178.000 C 39.600 178.220,38.880 178.400,38.000 178.400 C 37.120 178.400,36.400 178.580,36.400 178.800 C 36.400 179.020,35.680 179.200,34.800 179.200 C 33.920 179.200,33.200 179.380,33.200 179.600 C 33.200 179.820,32.480 180.000,31.600 180.000 C 30.720 180.000,30.000 180.180,30.000 180.400 C 30.000 180.620,29.381 180.800,28.624 180.800 C 27.867 180.800,27.136 180.980,27.000 181.200 C 26.864 181.420,26.133 181.600,25.376 181.600 C 24.619 181.600,24.000 181.780,24.000 182.000 C 24.000 182.220,23.280 182.400,22.400 182.400 C 21.520 182.400,20.800 182.580,20.800 182.800 C 20.800 183.020,20.451 183.200,20.024 183.200 C 19.597 183.200,19.136 183.380,19.000 183.600 C 18.864 183.820,18.313 184.000,17.776 184.000 C 17.239 184.000,16.800 184.180,16.800 184.400 C 16.800 184.620,16.440 184.800,16.000 184.800 C 15.560 184.800,15.200 184.950,15.200 185.132 C 15.200 185.315,14.705 185.719,14.100 186.030 C 13.495 186.340,12.709 186.911,12.353 187.297 C 11.997 187.684,11.564 188.000,11.391 188.000 C 10.979 188.000,6.000 193.079,6.000 193.500 C 6.000 193.678,5.640 194.083,5.200 194.400 C 4.760 194.717,4.400 195.214,4.400 195.505 C 4.400 195.796,4.040 196.420,3.600 196.892 C 3.160 197.364,2.800 197.987,2.800 198.275 C 2.800 198.564,2.620 198.800,2.400 198.800 C 2.180 198.800,2.000 199.340,2.000 200.000 C 2.000 200.660,1.820 201.200,1.600 201.200 C 1.380 201.200,1.200 201.524,1.200 201.920 C 1.200 202.316,0.975 202.865,0.700 203.140 C -0.032 203.872,-0.032 266.456,0.700 266.700 C 0.975 266.792,1.200 267.124,1.200 267.439 C 1.200 267.753,1.360 268.323,1.556 268.705 C 1.752 269.087,2.320 270.255,2.819 271.300 C 3.318 272.345,3.877 273.200,4.063 273.200 C 4.248 273.200,4.400 273.468,4.400 273.797 C 4.400 274.125,4.760 274.618,5.200 274.893 C 5.640 275.168,6.000 275.621,6.000 275.899 C 6.000 276.470,10.923 281.600,11.471 281.600 C 11.665 281.600,12.083 281.960,12.400 282.400 C 12.717 282.840,13.297 283.200,13.688 283.200 C 14.080 283.200,14.400 283.347,14.400 283.526 C 14.400 283.992,17.531 285.600,18.438 285.600 C 18.857 285.600,19.200 285.780,19.200 286.000 C 19.200 286.220,19.549 286.400,19.976 286.400 C 20.403 286.400,20.864 286.580,21.000 286.800 C 21.136 287.020,21.867 287.200,22.624 287.200 C 23.381 287.200,24.000 287.380,24.000 287.600 C 24.000 287.859,29.143 288.000,38.629 288.000 C 54.003 288.000,54.400 288.045,54.400 289.771 C 54.400 290.117,54.580 290.400,54.800 290.400 C 55.020 290.400,55.200 290.670,55.200 291.000 C 55.200 291.330,55.380 291.600,55.600 291.600 C 55.820 291.600,56.000 291.920,56.000 292.312 C 56.000 292.703,56.360 293.283,56.800 293.600 C 57.240 293.917,57.600 294.406,57.600 294.685 C 57.600 295.718,66.813 305.200,67.817 305.200 C 68.138 305.200,68.400 305.352,68.400 305.537 C 68.400 305.723,69.255 306.308,70.300 306.837 C 71.345 307.367,72.260 307.935,72.333 308.100 C 72.407 308.265,72.720 308.400,73.031 308.400 C 73.839 308.400,76.800 309.731,76.800 310.094 C 76.800 310.262,77.340 310.400,78.000 310.400 C 78.660 310.400,79.200 310.580,79.200 310.800 C 79.200 311.020,79.740 311.200,80.400 311.200 C 81.060 311.200,81.600 311.380,81.600 311.600 C 81.600 311.820,82.309 312.000,83.176 312.000 C 84.043 312.000,84.864 312.180,85.000 312.400 C 85.336 312.944,102.400 312.944,102.400 312.400 C 102.400 312.180,103.109 312.000,103.976 312.000 C 104.843 312.000,105.664 311.820,105.800 311.600 C 105.936 311.380,106.577 311.200,107.224 311.200 C 107.871 311.200,108.400 311.020,108.400 310.800 C 108.400 310.580,108.850 310.400,109.400 310.400 C 109.950 310.400,110.400 310.220,110.400 310.000 C 110.400 309.780,110.649 309.600,110.954 309.600 C 111.259 309.600,112.024 309.331,112.654 309.002 C 113.284 308.674,114.115 308.404,114.500 308.402 C 114.885 308.401,115.203 308.265,115.206 308.100 C 115.210 307.935,116.110 307.360,117.206 306.821 C 118.303 306.283,119.200 305.710,119.200 305.548 C 119.200 305.386,119.535 305.148,119.944 305.018 C 121.200 304.619,130.000 295.521,130.000 294.622 C 130.000 294.377,130.360 293.917,130.800 293.600 C 131.240 293.283,131.600 292.703,131.600 292.312 C 131.600 291.920,131.780 291.600,132.000 291.600 C 132.220 291.600,132.400 291.330,132.400 291.000 C 132.400 290.670,132.580 290.400,132.800 290.400 C 133.020 290.400,133.200 290.117,133.200 289.771 C 133.200 287.918,130.107 288.000,200.000 288.000 C 269.893 288.000,266.800 287.918,266.800 289.771 C 266.800 290.117,266.980 290.400,267.200 290.400 C 267.420 290.400,267.600 290.670,267.600 291.000 C 267.600 291.330,267.780 291.600,268.000 291.600 C 268.220 291.600,268.400 291.920,268.400 292.312 C 268.400 292.703,268.760 293.283,269.200 293.600 C 269.640 293.917,270.000 294.404,270.000 294.683 C 270.000 295.556,278.827 304.628,280.056 305.018 C 280.465 305.148,280.800 305.386,280.800 305.548 C 280.800 305.710,281.697 306.283,282.794 306.821 C 283.890 307.360,284.790 307.919,284.794 308.065 C 284.797 308.211,285.520 308.451,286.400 308.600 C 287.280 308.749,288.000 309.034,288.000 309.235 C 288.000 309.436,288.360 309.600,288.800 309.600 C 289.240 309.600,289.600 309.780,289.600 310.000 C 289.600 310.220,290.140 310.400,290.800 310.400 C 291.460 310.400,292.000 310.580,292.000 310.800 C 292.000 311.020,292.439 311.200,292.976 311.200 C 293.513 311.200,294.064 311.380,294.200 311.600 C 294.336 311.820,295.157 312.000,296.024 312.000 C 296.891 312.000,297.600 312.180,297.600 312.400 C 297.600 312.944,314.664 312.944,315.000 312.400 C 315.136 312.180,315.957 312.000,316.824 312.000 C 317.691 312.000,318.400 311.820,318.400 311.600 C 318.400 311.380,318.940 311.200,319.600 311.200 C 320.260 311.200,320.800 311.020,320.800 310.800 C 320.800 310.580,321.340 310.400,322.000 310.400 C 322.660 310.400,323.200 310.220,323.200 310.000 C 323.200 309.780,323.560 309.600,324.000 309.600 C 324.440 309.600,324.800 309.428,324.800 309.218 C 324.800 309.008,325.430 308.718,326.200 308.574 C 326.970 308.429,327.600 308.151,327.600 307.955 C 327.600 307.760,327.960 307.600,328.400 307.600 C 328.840 307.600,329.200 307.420,329.200 307.200 C 329.200 306.980,329.436 306.800,329.725 306.800 C 330.013 306.800,330.636 306.440,331.108 306.000 C 331.580 305.560,332.148 305.200,332.370 305.200 C 333.196 305.200,342.400 295.569,342.400 294.705 C 342.400 294.414,342.760 293.917,343.200 293.600 C 343.640 293.283,344.000 292.703,344.000 292.312 C 344.000 291.920,344.180 291.600,344.400 291.600 C 344.620 291.600,344.800 291.330,344.800 291.000 C 344.800 290.670,344.980 290.400,345.200 290.400 C 345.420 290.400,345.600 290.117,345.600 289.771 C 345.600 288.045,345.997 288.000,361.371 288.000 C 370.857 288.000,376.000 287.859,376.000 287.600 C 376.000 287.380,376.542 287.200,377.205 287.200 C 377.868 287.200,378.723 287.041,379.105 286.847 C 379.487 286.652,380.250 286.315,380.800 286.097 C 383.089 285.191,385.600 283.852,385.600 283.537 C 385.600 283.352,385.920 283.200,386.312 283.200 C 386.703 283.200,387.283 282.840,387.600 282.400 C 387.917 281.960,388.345 281.600,388.550 281.600 C 389.116 281.600,394.000 276.499,394.000 275.908 C 394.000 275.624,394.360 275.168,394.800 274.893 C 395.240 274.618,395.600 274.125,395.600 273.797 C 395.600 273.468,395.752 273.200,395.937 273.200 C 396.248 273.200,397.627 270.622,398.451 268.500 C 398.643 268.005,399.025 267.122,399.300 266.539 C 399.681 265.731,399.800 260.364,399.800 244.072 C 399.800 227.303,399.692 222.630,399.300 222.500 C 399.013 222.404,398.800 221.664,398.800 220.767 C 398.800 219.905,398.620 219.200,398.400 219.200 C 398.180 219.200,398.000 218.660,398.000 218.000 C 398.000 217.340,397.820 216.800,397.600 216.800 C 397.380 216.800,397.200 216.451,397.200 216.024 C 397.200 215.597,397.020 215.136,396.800 215.000 C 396.580 214.864,396.400 214.313,396.400 213.776 C 396.400 213.239,396.220 212.800,396.000 212.800 C 395.780 212.800,395.600 212.440,395.600 212.000 C 395.600 211.560,395.420 211.200,395.200 211.200 C 394.980 211.200,394.800 210.840,394.800 210.400 C 394.800 209.960,394.620 209.600,394.400 209.600 C 394.180 209.600,394.000 209.330,394.000 209.000 C 394.000 208.670,393.820 208.400,393.600 208.400 C 393.380 208.400,393.200 208.106,393.200 207.747 C 393.200 207.388,392.869 206.803,392.464 206.447 C 392.059 206.091,391.606 205.305,391.456 204.700 C 391.307 204.095,391.008 203.600,390.792 203.600 C 390.577 203.600,390.400 203.357,390.400 203.059 C 390.400 202.762,389.860 201.954,389.200 201.263 C 388.540 200.572,388.000 199.839,388.000 199.634 C 388.000 198.933,380.786 192.000,380.056 192.000 C 379.871 192.000,379.154 191.460,378.463 190.800 C 377.772 190.140,376.975 189.600,376.692 189.600 C 376.409 189.600,375.917 189.240,375.600 188.800 C 375.283 188.360,374.793 188.000,374.512 188.000 C 374.230 188.000,374.000 187.820,374.000 187.600 C 374.000 187.380,373.730 187.200,373.400 187.200 C 373.070 187.200,372.800 187.054,372.800 186.875 C 372.800 186.696,372.170 186.302,371.400 186.000 C 370.630 185.698,370.000 185.304,370.000 185.125 C 370.000 184.946,369.640 184.800,369.200 184.800 C 368.760 184.800,368.400 184.620,368.400 184.400 C 368.400 184.180,367.961 184.000,367.424 184.000 C 366.887 184.000,366.336 183.820,366.200 183.600 C 366.064 183.380,365.603 183.200,365.176 183.200 C 364.749 183.200,364.400 183.020,364.400 182.800 C 364.400 182.580,363.860 182.400,363.200 182.400 C 362.540 182.400,362.000 182.220,362.000 182.000 C 362.000 181.780,361.460 181.600,360.800 181.600 C 360.140 181.600,359.600 181.420,359.600 181.200 C 359.600 180.980,358.880 180.800,358.000 180.800 C 357.120 180.800,356.400 180.620,356.400 180.400 C 356.400 180.180,355.601 180.000,354.624 180.000 C 353.647 180.000,352.736 179.820,352.600 179.600 C 352.464 179.380,351.384 179.200,350.200 179.200 C 349.016 179.200,347.936 179.020,347.800 178.800 C 347.664 178.580,346.584 178.400,345.400 178.400 C 344.216 178.400,343.136 178.220,343.000 178.000 C 342.864 177.780,341.809 177.600,340.656 177.600 C 339.503 177.600,338.389 177.437,338.180 177.237 C 337.971 177.037,336.900 176.779,335.800 176.663 C 331.816 176.244,326.000 174.861,326.000 174.333 C 326.000 174.150,325.817 174.000,325.593 174.000 C 325.003 174.000,320.303 169.183,319.632 167.893 C 319.320 167.292,318.915 166.800,318.732 166.800 C 318.550 166.800,318.400 166.440,318.400 166.000 C 318.400 165.560,318.220 165.200,318.000 165.200 C 317.780 165.200,317.600 164.964,317.600 164.675 C 317.600 164.387,317.240 163.764,316.800 163.292 C 316.360 162.820,316.000 162.156,316.000 161.817 C 316.000 161.478,315.864 161.200,315.698 161.200 C 315.531 161.200,315.136 160.615,314.820 159.900 C 314.503 159.185,313.920 158.251,313.522 157.825 C 313.125 157.398,312.800 156.813,312.800 156.525 C 312.800 156.236,312.620 156.000,312.400 156.000 C 312.180 156.000,312.000 155.640,312.000 155.200 C 312.000 154.760,311.820 154.400,311.600 154.400 C 311.380 154.400,311.200 154.080,311.200 153.688 C 311.200 153.297,310.840 152.717,310.400 152.400 C 309.960 152.083,309.600 151.503,309.600 151.112 C 309.600 150.720,309.420 150.400,309.200 150.400 C 308.980 150.400,308.800 150.138,308.800 149.818 C 308.800 149.290,307.418 146.922,306.406 145.717 C 306.183 145.451,306.000 145.074,306.000 144.879 C 306.000 144.684,305.640 144.198,305.200 143.800 C 304.760 143.402,304.400 142.922,304.400 142.734 C 304.400 142.546,303.860 141.828,303.200 141.137 C 302.540 140.446,302.000 139.710,302.000 139.501 C 302.000 139.292,301.460 138.617,300.800 138.000 C 300.140 137.383,299.600 136.667,299.600 136.408 C 299.600 136.149,298.919 135.276,298.087 134.469 C 297.255 133.661,296.137 132.370,295.603 131.600 C 294.417 129.892,283.707 119.200,283.181 119.200 C 282.973 119.200,281.885 118.300,280.761 117.200 C 279.638 116.100,278.539 115.200,278.320 115.200 C 278.101 115.200,277.417 114.660,276.800 114.000 C 276.183 113.340,275.579 112.800,275.458 112.800 C 275.336 112.800,274.042 111.907,272.581 110.815 C 271.121 109.724,269.583 108.722,269.163 108.588 C 268.743 108.455,268.400 108.178,268.400 107.973 C 268.400 107.768,268.122 107.600,267.783 107.600 C 267.444 107.600,266.780 107.240,266.308 106.800 C 265.836 106.360,265.213 106.000,264.925 106.000 C 264.636 106.000,264.400 105.820,264.400 105.600 C 264.400 105.380,264.040 105.200,263.600 105.200 C 263.160 105.200,262.800 105.020,262.800 104.800 C 262.800 104.580,262.564 104.400,262.275 104.400 C 261.987 104.400,261.364 104.040,260.892 103.600 C 260.420 103.160,259.756 102.800,259.417 102.800 C 259.078 102.800,258.800 102.654,258.800 102.475 C 258.800 102.296,258.170 101.902,257.400 101.600 C 256.630 101.298,256.000 100.904,256.000 100.725 C 256.000 100.546,255.640 100.400,255.200 100.400 C 254.760 100.400,254.400 100.220,254.400 100.000 C 254.400 99.780,254.040 99.600,253.600 99.600 C 253.160 99.600,252.800 99.420,252.800 99.200 C 252.800 98.980,252.528 98.800,252.195 98.800 C 251.607 98.800,251.182 98.633,249.305 97.662 C 248.813 97.408,248.138 97.200,247.805 97.200 C 247.472 97.200,247.200 97.020,247.200 96.800 C 247.200 96.580,246.851 96.400,246.424 96.400 C 245.997 96.400,245.536 96.220,245.400 96.000 C 245.264 95.780,244.713 95.600,244.176 95.600 C 243.639 95.600,243.200 95.420,243.200 95.200 C 243.200 94.980,242.838 94.800,242.395 94.800 C 241.952 94.800,241.187 94.592,240.695 94.338 C 238.747 93.331,238.377 93.200,237.472 93.200 C 236.956 93.200,236.398 93.065,236.234 92.900 C 235.838 92.505,232.240 91.579,230.100 91.323 C 229.165 91.211,228.400 90.958,228.400 90.760 C 228.400 90.562,227.680 90.400,226.800 90.400 C 225.920 90.400,225.200 90.220,225.200 90.000 C 225.200 89.780,224.401 89.600,223.424 89.600 C 222.447 89.600,221.536 89.420,221.400 89.200 C 221.264 88.980,220.173 88.800,218.976 88.800 C 217.779 88.800,216.800 88.620,216.800 88.400 C 216.800 88.167,215.467 88.000,213.600 88.000 C 211.733 88.000,210.400 87.833,210.400 87.600 C 210.400 87.338,202.467 87.200,187.400 87.200 C 172.333 87.200,164.400 87.338,164.400 87.600 M208.284 100.409 C 219.847 101.929,230.761 104.471,237.400 107.191 C 237.840 107.372,238.830 107.749,239.600 108.030 C 247.741 111.003,264.885 120.750,269.270 124.899 C 269.562 125.174,271.125 126.472,272.745 127.782 C 279.153 132.966,288.049 142.565,293.183 149.835 C 295.432 153.021,301.544 163.052,304.494 168.400 C 306.531 172.093,307.314 173.428,308.047 174.462 C 308.461 175.046,308.800 175.629,308.800 175.757 C 308.800 176.707,314.318 182.250,317.143 184.139 C 322.190 187.513,325.428 188.612,334.400 189.995 C 336.050 190.250,339.380 190.801,341.800 191.219 C 344.220 191.638,347.370 192.177,348.800 192.417 C 354.470 193.368,356.531 193.916,360.400 195.503 C 363.856 196.921,368.000 199.189,368.000 199.664 C 368.000 199.849,365.327 200.000,362.060 200.000 C 351.647 200.000,349.333 202.025,350.557 210.065 C 353.216 227.538,365.964 237.600,385.442 237.600 L 387.600 237.600 387.600 248.538 C 387.600 262.278,386.692 265.513,381.520 270.187 C 376.815 274.440,373.674 275.191,360.600 275.189 C 348.916 275.188,349.094 275.223,349.612 272.990 C 351.309 265.672,348.037 252.665,342.362 244.172 C 334.213 231.974,321.426 225.192,306.400 225.095 C 302.838 225.072,299.751 225.262,298.400 225.586 C 276.289 230.900,263.341 246.399,262.967 268.000 L 262.846 275.000 200.144 275.101 C 165.658 275.157,137.308 275.067,137.144 274.901 C 136.981 274.736,137.014 273.271,137.219 271.646 C 137.769 267.283,136.470 257.586,134.829 253.800 C 134.638 253.360,134.174 252.280,133.797 251.400 C 127.979 237.799,117.239 229.183,101.600 225.569 C 75.496 219.538,46.676 245.400,50.276 271.626 C 50.801 275.454,51.613 275.188,39.400 275.189 C 23.790 275.191,18.406 272.937,14.530 264.777 C 12.447 260.392,12.400 260.036,12.400 248.497 L 12.400 237.652 19.300 237.526 C 27.970 237.368,31.200 235.812,31.200 231.793 C 31.200 231.388,31.368 230.504,31.573 229.828 C 32.187 227.804,34.607 218.224,35.216 215.400 C 35.406 214.520,35.926 212.450,36.371 210.800 C 38.698 202.179,36.391 200.000,24.940 200.000 C 21.343 200.000,18.406 199.865,18.412 199.700 C 18.471 198.288,24.978 195.187,30.400 193.988 C 31.610 193.720,33.050 193.357,33.600 193.182 C 34.150 193.007,36.220 192.481,38.200 192.013 C 57.758 187.391,60.962 185.055,70.604 168.393 C 72.912 164.405,74.800 161.052,74.800 160.943 C 74.800 160.834,75.340 159.959,76.000 159.000 C 76.660 158.041,77.200 157.146,77.200 157.013 C 77.200 156.709,81.832 149.765,82.964 148.371 C 83.424 147.806,84.250 146.736,84.800 145.994 C 99.523 126.142,123.955 110.114,149.400 103.615 C 154.731 102.254,157.722 101.701,166.600 100.438 C 170.076 99.943,204.557 99.920,208.284 100.409 M162.600 106.862 C 156.961 107.573,151.492 108.587,147.800 109.604 C 146.920 109.847,145.570 110.207,144.800 110.404 C 132.398 113.584,117.106 122.641,106.445 133.121 C 97.506 141.908,91.250 150.828,86.471 161.600 C 80.574 174.892,80.339 178.108,85.096 180.388 C 86.769 181.189,87.379 181.200,131.496 181.193 L 176.200 181.187 177.792 180.285 C 178.684 179.780,179.780 178.684,180.285 177.792 L 181.187 176.200 181.193 143.919 C 181.200 110.050,181.223 110.508,179.424 108.465 C 177.618 106.416,171.077 105.793,162.600 106.862 M197.148 107.255 C 193.802 109.179,194.000 106.884,194.000 143.781 C 194.000 177.890,193.964 177.171,195.750 179.135 C 197.701 181.281,195.809 181.200,243.800 181.200 C 291.793 181.200,289.934 181.280,291.824 179.135 C 293.526 177.203,293.993 175.015,293.150 172.919 C 292.502 171.306,292.148 170.383,291.570 168.800 C 291.288 168.030,290.660 166.500,290.173 165.400 C 289.687 164.300,288.869 162.410,288.356 161.200 C 286.571 156.988,279.015 144.320,277.620 143.200 C 277.483 143.090,276.276 141.650,274.936 140.000 C 267.119 130.367,262.603 127.861,258.810 131.053 C 255.095 134.179,255.612 137.265,260.698 142.309 C 267.376 148.933,272.915 156.927,277.468 166.517 C 278.129 167.908,278.244 168.484,277.889 168.620 C 277.620 168.722,261.380 168.760,241.800 168.703 L 206.200 168.600 206.090 144.600 C 206.029 131.400,206.077 120.195,206.197 119.700 C 206.470 118.575,208.322 118.510,214.381 119.416 C 224.363 120.909,230.748 122.864,239.600 127.138 C 244.247 129.382,248.243 128.111,249.616 123.952 C 251.280 118.910,244.744 114.616,228.400 110.014 C 227.410 109.735,226.150 109.363,225.600 109.187 C 225.050 109.011,223.880 108.744,223.000 108.595 C 222.120 108.446,220.500 108.158,219.400 107.954 C 210.994 106.401,199.275 106.033,197.148 107.255 M168.800 143.800 L 168.800 168.800 132.800 168.800 C 111.623 168.800,96.800 168.651,96.800 168.438 C 96.800 167.844,101.743 158.384,103.390 155.826 C 107.543 149.378,113.128 143.004,118.800 138.241 C 122.866 134.827,126.235 132.253,127.601 131.517 C 128.151 131.221,129.320 130.519,130.200 129.955 C 131.541 129.097,138.612 125.562,141.400 124.357 C 147.633 121.662,159.614 118.971,165.900 118.854 L 168.800 118.800 168.800 143.800 M79.136 188.138 C 74.038 190.403,73.895 196.696,78.884 199.243 C 81.296 200.474,93.875 200.348,96.379 199.068 C 100.821 196.796,100.955 191.131,96.626 188.594 C 94.685 187.457,81.446 187.111,79.136 188.138 M197.936 188.138 C 192.712 190.459,192.719 197.244,197.949 199.435 C 199.913 200.258,212.545 200.233,214.533 199.402 C 219.569 197.298,219.933 191.021,215.166 188.476 C 213.247 187.452,200.063 187.193,197.936 188.138 M23.200 212.906 C 23.200 213.848,20.393 224.567,20.058 224.902 C 19.876 225.084,18.123 225.181,16.164 225.116 L 12.600 225.000 12.490 218.700 L 12.380 212.400 17.790 212.400 C 21.888 212.400,23.200 212.523,23.200 212.906 M381.990 214.500 C 383.565 217.243,385.610 222.150,385.886 223.853 L 386.105 225.200 382.399 225.200 C 374.535 225.200,367.724 221.371,364.690 215.244 C 363.238 212.312,362.998 212.400,372.416 212.400 L 380.784 212.400 381.990 214.500 M101.000 238.414 C 129.471 245.549,133.650 283.599,107.400 296.696 C 86.978 306.886,62.722 291.745,62.709 268.800 C 62.697 248.746,81.785 233.599,101.000 238.414 M312.675 238.230 C 338.644 244.231,346.307 276.083,325.826 292.895 C 305.748 309.378,275.200 294.836,275.200 268.795 C 275.200 249.099,293.858 233.881,312.675 238.230 M89.394 250.552 C 75.102 254.538,70.307 271.258,80.433 281.803 C 92.104 293.957,112.367 285.565,112.395 268.566 C 112.415 256.860,100.431 247.475,89.394 250.552 M301.877 250.600 C 286.967 254.699,282.550 272.871,294.023 282.907 C 304.337 291.930,320.410 287.096,324.218 273.826 C 328.077 260.382,315.156 246.950,301.877 250.600 M97.000 263.159 C 99.976 264.897,101.030 269.447,99.107 272.254 C 95.440 277.606,87.600 275.170,87.600 268.679 C 87.600 264.898,90.032 262.458,93.800 262.458 C 94.982 262.458,96.291 262.745,97.000 263.159 M309.129 263.024 C 315.186 266.046,312.913 275.200,306.106 275.200 C 301.807 275.200,298.447 269.650,300.463 265.882 C 302.091 262.840,306.106 261.516,309.129 263.024 " stroke="none" fill="#040404" fill-rule="evenodd"></path><path id="path1" d="M174.730 100.603 C 174.584 100.749,172.155 101.033,169.332 101.233 C 164.122 101.602,160.609 102.037,157.000 102.759 C 155.900 102.979,154.100 103.338,153.000 103.557 C 150.052 104.144,142.805 106.109,141.000 106.811 C 140.560 106.982,139.120 107.517,137.800 108.000 C 134.971 109.035,133.655 109.564,132.705 110.047 C 132.323 110.241,131.738 110.400,131.405 110.400 C 131.072 110.400,130.800 110.580,130.800 110.800 C 130.800 111.020,130.440 111.200,130.000 111.200 C 129.560 111.200,129.200 111.380,129.200 111.600 C 129.200 111.820,128.947 112.000,128.638 112.000 C 127.972 112.000,124.659 113.668,124.467 114.100 C 124.393 114.265,123.988 114.400,123.567 114.400 C 123.145 114.400,122.800 114.546,122.800 114.725 C 122.800 114.904,122.170 115.298,121.400 115.600 C 120.630 115.902,120.000 116.275,120.000 116.428 C 120.000 116.581,119.685 116.813,119.300 116.942 C 118.044 117.365,108.296 123.698,106.954 124.962 C 106.049 125.814,104.788 126.800,104.602 126.800 C 104.294 126.800,101.461 129.458,95.438 135.400 C 89.230 141.523,88.858 141.938,85.380 146.609 C 84.073 148.364,82.899 149.890,82.770 150.000 C 82.223 150.466,78.400 156.400,78.400 156.782 C 78.400 157.012,78.220 157.200,78.000 157.200 C 77.780 157.200,77.600 157.436,77.600 157.725 C 77.600 158.013,77.240 158.636,76.800 159.108 C 76.360 159.580,76.000 160.244,76.000 160.583 C 76.000 160.922,75.841 161.200,75.647 161.200 C 75.452 161.200,75.193 161.515,75.070 161.900 C 74.948 162.285,74.238 163.680,73.494 165.000 C 72.749 166.320,71.686 168.210,71.130 169.200 C 68.809 173.338,65.733 178.276,64.800 179.364 C 62.253 182.333,59.164 185.168,57.548 186.020 C 57.027 186.295,56.510 186.631,56.400 186.766 C 55.577 187.782,49.276 190.176,46.096 190.681 C 45.379 190.795,44.694 191.049,44.573 191.244 C 44.452 191.440,43.744 191.600,43.000 191.600 C 42.256 191.600,41.536 191.780,41.400 192.000 C 41.264 192.220,40.544 192.400,39.800 192.400 C 39.056 192.400,38.336 192.580,38.200 192.800 C 38.064 193.020,37.344 193.200,36.600 193.200 C 35.856 193.200,35.136 193.380,35.000 193.600 C 34.864 193.820,34.144 194.000,33.400 194.000 C 32.656 194.000,31.936 194.180,31.800 194.400 C 31.664 194.620,30.944 194.800,30.200 194.800 C 29.456 194.800,28.736 194.980,28.600 195.200 C 28.464 195.420,27.859 195.600,27.256 195.600 C 25.763 195.600,25.200 196.279,25.200 198.080 L 25.200 199.600 29.341 199.600 C 36.616 199.600,39.031 202.631,37.468 209.800 C 36.656 213.519,35.671 217.514,35.190 219.028 C 34.975 219.704,34.800 220.638,34.800 221.105 C 34.800 221.571,34.620 222.064,34.400 222.200 C 34.180 222.336,34.000 222.829,34.000 223.295 C 34.000 223.762,33.794 224.712,33.543 225.407 C 32.768 227.549,37.857 235.087,44.778 242.048 C 52.459 249.774,53.624 250.398,54.792 247.419 C 55.099 246.639,55.496 246.000,55.675 246.000 C 55.854 246.000,56.000 245.764,56.000 245.475 C 56.000 245.187,56.360 244.564,56.800 244.092 C 57.240 243.620,57.600 243.089,57.600 242.913 C 57.600 242.475,60.134 239.492,62.800 236.792 C 66.014 233.537,72.774 228.800,74.206 228.800 C 74.533 228.800,74.800 228.620,74.800 228.400 C 74.800 228.180,75.149 228.000,75.576 228.000 C 76.003 228.000,76.464 227.820,76.600 227.600 C 76.736 227.380,77.287 227.200,77.824 227.200 C 78.361 227.200,78.800 227.020,78.800 226.800 C 78.800 226.580,79.340 226.400,80.000 226.400 C 80.660 226.400,81.200 226.220,81.200 226.000 C 81.200 225.780,81.819 225.600,82.576 225.600 C 83.333 225.600,84.064 225.420,84.200 225.200 C 84.336 224.980,85.391 224.800,86.544 224.800 C 87.697 224.800,88.832 224.608,89.066 224.374 C 89.758 223.682,102.565 224.453,103.380 225.235 C 103.589 225.436,104.354 225.600,105.080 225.600 C 105.806 225.600,106.400 225.780,106.400 226.000 C 106.400 226.220,106.940 226.400,107.600 226.400 C 108.260 226.400,108.800 226.580,108.800 226.800 C 108.800 227.020,109.143 227.200,109.562 227.200 C 110.251 227.200,111.357 227.670,115.000 229.511 C 120.068 232.071,130.000 241.066,130.000 243.096 C 130.000 243.373,130.150 243.600,130.332 243.600 C 130.515 243.600,130.920 244.095,131.232 244.700 C 131.544 245.305,131.899 245.890,132.022 246.000 C 132.496 246.425,135.495 253.091,135.981 254.800 C 136.263 255.790,136.639 257.050,136.817 257.600 C 136.996 258.150,137.256 259.455,137.396 260.500 L 137.649 262.400 197.925 262.396 L 258.200 262.392 259.865 258.896 C 260.781 256.973,262.591 253.960,263.886 252.200 C 265.181 250.440,266.592 248.370,267.020 247.600 C 267.449 246.830,267.890 246.110,268.001 246.000 C 268.111 245.890,268.456 245.305,268.768 244.700 C 269.080 244.095,269.485 243.600,269.668 243.600 C 269.850 243.600,270.000 243.365,270.000 243.078 C 270.000 242.395,274.663 237.197,277.622 234.582 C 280.872 231.710,288.739 227.200,290.499 227.200 C 290.884 227.200,291.200 227.020,291.200 226.800 C 291.200 226.580,291.740 226.400,292.400 226.400 C 293.060 226.400,293.600 226.220,293.600 226.000 C 293.600 225.780,294.194 225.600,294.920 225.600 C 295.646 225.600,296.411 225.436,296.620 225.235 C 297.435 224.453,310.242 223.682,310.934 224.374 C 311.168 224.608,312.303 224.800,313.456 224.800 C 314.609 224.800,315.664 224.980,315.800 225.200 C 315.936 225.420,316.667 225.600,317.424 225.600 C 318.181 225.600,318.800 225.780,318.800 226.000 C 318.800 226.220,319.340 226.400,320.000 226.400 C 320.660 226.400,321.200 226.580,321.200 226.800 C 321.200 227.020,321.639 227.200,322.176 227.200 C 322.713 227.200,323.264 227.380,323.400 227.600 C 323.536 227.820,323.997 228.000,324.424 228.000 C 324.851 228.000,325.200 228.180,325.200 228.400 C 325.200 228.620,325.476 228.800,325.814 228.800 C 326.466 228.800,326.619 228.886,331.030 231.719 C 334.761 234.115,342.374 241.617,342.395 242.917 C 342.398 243.091,342.760 243.620,343.200 244.092 C 343.640 244.564,344.000 245.187,344.000 245.475 C 344.000 245.764,344.159 246.000,344.353 246.000 C 344.548 246.000,344.807 246.315,344.929 246.700 C 345.051 247.085,345.409 247.850,345.725 248.400 C 346.886 250.421,348.000 252.891,348.000 253.443 C 348.000 253.755,348.158 254.323,348.351 254.705 C 348.926 255.843,349.600 258.199,349.600 259.069 C 349.600 259.515,349.798 260.447,350.039 261.140 L 350.478 262.400 367.990 262.400 C 381.518 262.400,385.594 262.286,385.906 261.900 C 386.638 260.994,386.892 257.921,387.060 247.900 L 387.227 238.000 382.513 238.000 C 377.078 237.999,373.041 237.346,369.600 235.910 C 367.110 234.871,366.465 234.534,364.369 233.176 C 360.119 230.421,357.491 227.797,354.562 223.385 C 353.057 221.119,352.713 220.469,351.654 217.900 C 351.404 217.295,351.032 216.395,350.827 215.900 C 349.461 212.601,349.247 204.638,350.476 202.831 C 352.396 200.010,352.959 199.822,360.127 199.600 L 366.600 199.400 364.900 198.606 C 363.965 198.169,363.200 197.674,363.200 197.506 C 363.200 197.338,362.840 197.200,362.400 197.200 C 361.960 197.200,361.600 197.020,361.600 196.800 C 361.600 196.580,361.251 196.400,360.824 196.400 C 360.397 196.400,359.936 196.220,359.800 196.000 C 359.664 195.780,359.113 195.600,358.576 195.600 C 358.039 195.600,357.600 195.420,357.600 195.200 C 357.600 194.980,357.071 194.800,356.424 194.800 C 355.777 194.800,355.136 194.620,355.000 194.400 C 354.864 194.180,354.054 194.000,353.200 194.000 C 352.346 194.000,351.536 193.820,351.400 193.600 C 351.264 193.380,350.184 193.200,349.000 193.200 C 347.816 193.200,346.736 193.020,346.600 192.800 C 346.464 192.580,345.499 192.400,344.456 192.400 C 343.413 192.400,342.389 192.240,342.180 192.043 C 341.971 191.847,340.720 191.581,339.400 191.451 C 338.080 191.321,336.010 191.048,334.800 190.844 C 333.590 190.641,331.340 190.274,329.800 190.030 C 325.459 189.341,322.683 188.321,317.675 185.572 C 315.737 184.508,310.660 179.733,309.198 177.600 C 308.670 176.830,308.140 176.110,308.019 176.000 C 307.899 175.890,307.575 175.395,307.300 174.900 C 307.025 174.405,306.575 173.595,306.300 173.100 C 306.025 172.605,305.710 172.110,305.599 172.000 C 305.489 171.890,305.135 171.260,304.812 170.600 C 304.489 169.940,303.753 168.680,303.177 167.800 C 302.601 166.920,301.877 165.615,301.568 164.900 C 301.258 164.185,300.869 163.600,300.702 163.600 C 300.536 163.600,300.400 163.415,300.400 163.189 C 300.400 162.963,299.410 161.136,298.200 159.129 C 296.990 157.122,296.000 155.327,296.000 155.140 C 296.000 154.953,295.820 154.800,295.600 154.800 C 295.380 154.800,295.200 154.558,295.200 154.262 C 295.200 153.966,294.840 153.398,294.400 153.000 C 293.960 152.602,293.600 152.034,293.600 151.738 C 293.600 151.442,293.459 151.200,293.286 151.200 C 293.114 151.200,292.657 150.667,292.272 150.015 C 291.887 149.363,291.347 148.598,291.073 148.315 C 290.798 148.032,290.138 147.170,289.606 146.400 C 289.074 145.630,288.540 144.910,288.419 144.800 C 288.299 144.690,287.035 143.250,285.611 141.600 C 282.425 137.909,275.114 130.599,273.083 129.073 C 272.257 128.453,271.181 127.549,270.691 127.064 C 270.201 126.579,269.170 125.745,268.400 125.211 C 267.630 124.676,266.910 124.118,266.800 123.970 C 266.690 123.822,264.980 122.662,263.000 121.392 C 261.020 120.122,259.310 118.961,259.200 118.812 C 259.090 118.663,258.730 118.424,258.400 118.280 C 258.070 118.136,256.900 117.472,255.800 116.804 C 254.700 116.136,253.125 115.280,252.300 114.901 C 251.475 114.522,250.800 114.074,250.800 113.906 C 250.800 113.738,250.440 113.600,250.000 113.600 C 249.560 113.600,249.200 113.420,249.200 113.200 C 249.200 112.980,248.840 112.800,248.400 112.800 C 247.960 112.800,247.600 112.620,247.600 112.400 C 247.600 112.180,247.240 112.000,246.800 112.000 C 246.360 112.000,246.000 111.820,246.000 111.600 C 246.000 111.380,245.735 111.200,245.412 111.200 C 245.089 111.200,244.183 110.840,243.400 110.400 C 242.617 109.960,241.621 109.600,241.188 109.600 C 240.755 109.600,240.400 109.459,240.400 109.287 C 240.400 109.115,239.545 108.725,238.500 108.420 C 237.455 108.115,236.330 107.737,236.000 107.579 C 235.670 107.422,234.950 107.113,234.400 106.893 C 233.073 106.362,224.277 103.969,222.000 103.519 C 214.862 102.109,211.992 101.676,206.400 101.168 C 201.258 100.701,175.099 100.234,174.730 100.603 M178.096 106.451 C 179.175 107.029,180.571 108.425,181.149 109.504 C 181.790 110.703,181.790 176.897,181.149 178.096 C 180.571 179.175,179.175 180.571,178.096 181.149 C 177.484 181.476,164.612 181.600,131.164 181.600 L 85.076 181.600 83.704 180.554 C 81.723 179.043,80.803 177.320,80.801 175.119 C 80.800 173.274,80.955 172.730,82.457 169.304 C 82.865 168.372,83.200 167.424,83.200 167.199 C 83.200 166.974,83.360 166.477,83.556 166.095 C 83.752 165.713,84.270 164.590,84.708 163.600 C 86.362 159.854,89.004 154.595,89.296 154.467 C 89.463 154.393,89.600 153.988,89.600 153.567 C 89.600 153.145,89.780 152.800,90.000 152.800 C 90.220 152.800,90.400 152.613,90.400 152.385 C 90.400 152.037,94.632 145.481,95.683 144.200 C 95.864 143.980,96.679 142.900,97.494 141.800 C 100.451 137.811,107.493 130.495,110.597 128.188 C 111.476 127.534,112.578 126.640,113.047 126.200 C 114.550 124.790,115.599 124.000,115.971 124.000 C 116.170 124.000,116.393 123.851,116.467 123.670 C 116.636 123.249,122.031 119.645,124.400 118.369 C 125.390 117.836,126.290 117.299,126.400 117.176 C 126.686 116.854,133.933 113.427,135.600 112.825 C 136.370 112.547,137.360 112.167,137.800 111.980 C 138.240 111.794,139.860 111.251,141.400 110.774 C 142.940 110.298,144.513 109.749,144.895 109.554 C 145.277 109.359,146.031 109.200,146.571 109.200 C 147.111 109.200,147.664 109.020,147.800 108.800 C 147.936 108.580,148.656 108.400,149.400 108.400 C 150.144 108.400,150.864 108.220,151.000 108.000 C 151.136 107.780,152.036 107.600,153.000 107.600 C 153.964 107.600,154.864 107.420,155.000 107.200 C 155.136 106.980,156.306 106.800,157.600 106.800 C 158.894 106.800,160.064 106.620,160.200 106.400 C 160.557 105.822,177.008 105.869,178.096 106.451 M216.800 106.604 C 218.230 106.749,219.571 107.032,219.780 107.234 C 219.989 107.435,220.833 107.600,221.656 107.600 C 222.479 107.600,223.264 107.780,223.400 108.000 C 223.536 108.220,224.357 108.400,225.224 108.400 C 226.091 108.400,226.800 108.580,226.800 108.800 C 226.800 109.020,227.419 109.200,228.176 109.200 C 228.933 109.200,229.664 109.380,229.800 109.600 C 229.936 109.820,230.541 110.000,231.144 110.000 C 231.747 110.000,232.411 110.143,232.620 110.318 C 232.829 110.493,233.720 110.865,234.600 111.145 C 235.480 111.424,236.560 111.804,237.000 111.989 C 237.440 112.174,238.610 112.629,239.600 112.999 C 245.135 115.071,248.825 117.314,249.800 119.201 C 250.543 120.637,250.614 125.039,249.900 125.355 C 249.542 125.513,249.610 125.721,250.138 126.088 C 250.543 126.370,252.306 127.639,254.054 128.908 L 257.233 131.216 258.601 130.172 C 262.592 127.128,267.532 129.597,274.263 138.000 C 274.879 138.770,275.666 139.670,276.011 140.000 C 276.356 140.330,277.073 141.230,277.606 142.000 C 278.138 142.770,278.798 143.632,279.073 143.915 C 279.347 144.198,279.887 144.963,280.272 145.615 C 280.657 146.267,281.114 146.800,281.286 146.800 C 281.459 146.800,281.600 147.070,281.600 147.400 C 281.600 147.730,281.780 148.000,282.000 148.000 C 282.220 148.000,282.400 148.270,282.400 148.600 C 282.400 148.930,282.580 149.200,282.800 149.200 C 283.020 149.200,283.200 149.393,283.200 149.628 C 283.200 149.863,283.707 150.808,284.327 151.728 C 285.391 153.306,288.696 159.889,290.188 163.400 C 290.561 164.280,291.032 165.313,291.234 165.695 C 291.435 166.077,291.600 166.752,291.600 167.195 C 291.600 167.638,291.780 168.000,292.000 168.000 C 292.220 168.000,292.400 168.450,292.400 169.000 C 292.400 169.550,292.580 170.000,292.800 170.000 C 293.020 170.000,293.200 170.349,293.200 170.776 C 293.200 171.203,293.380 171.664,293.600 171.800 C 294.863 172.581,293.907 178.130,292.218 179.818 C 290.381 181.655,291.891 181.600,243.458 181.600 L 197.263 181.600 195.432 179.768 L 193.600 177.937 193.600 143.766 L 193.600 109.595 195.439 107.783 L 197.277 105.970 205.739 106.155 C 210.392 106.257,215.370 106.459,216.800 106.604 M96.883 187.700 C 99.326 189.100,100.400 190.963,100.400 193.800 C 100.400 196.637,99.326 198.500,96.883 199.900 C 95.704 200.576,79.537 200.607,78.274 199.936 C 75.822 198.633,74.800 196.814,74.800 193.753 L 74.800 190.863 76.632 189.032 L 78.463 187.200 87.237 187.200 C 93.524 187.200,96.258 187.342,96.883 187.700 M215.683 187.700 C 220.217 190.298,220.490 196.685,216.187 199.500 C 214.584 200.549,198.900 200.906,197.074 199.936 C 194.612 198.627,193.600 196.817,193.600 193.720 L 193.600 190.795 195.424 188.998 L 197.247 187.200 206.029 187.200 C 212.323 187.200,215.058 187.342,215.683 187.700 " stroke="none" fill="#fbc464" fill-rule="evenodd"></path><path id="path2" d="M164.000 119.470 C 161.249 119.623,153.890 120.885,151.600 121.596 C 151.050 121.767,149.790 122.129,148.800 122.400 C 146.589 123.005,144.915 123.551,143.600 124.094 C 143.050 124.321,142.240 124.639,141.800 124.801 C 130.274 129.031,114.709 140.830,108.004 150.419 C 107.473 151.178,106.918 151.890,106.771 152.000 C 105.711 152.792,99.577 163.408,98.277 166.700 L 97.606 168.400 133.003 168.400 L 168.400 168.400 168.400 143.800 L 168.400 119.200 167.300 119.274 C 166.695 119.315,165.210 119.403,164.000 119.470 M206.588 119.546 C 206.484 119.649,206.400 130.683,206.400 144.067 L 206.400 168.400 241.963 168.400 C 277.420 168.400,277.524 168.398,277.314 167.594 C 277.198 167.150,276.945 166.690,276.752 166.570 C 276.558 166.451,276.400 166.003,276.400 165.576 C 276.400 165.149,276.265 164.799,276.100 164.799 C 275.935 164.798,275.350 163.808,274.800 162.600 C 274.250 161.392,273.665 160.402,273.500 160.401 C 273.335 160.401,273.200 160.055,273.200 159.633 C 273.200 159.212,273.062 158.807,272.892 158.733 C 272.723 158.660,271.833 157.325,270.915 155.768 C 268.878 152.313,265.302 147.852,260.521 142.800 C 255.661 137.664,254.898 135.608,256.738 132.600 L 257.472 131.400 254.436 129.166 C 249.847 125.788,249.720 125.740,248.459 126.918 C 245.600 129.591,243.927 129.631,238.512 127.154 C 235.920 125.968,235.041 125.589,232.800 124.693 C 230.115 123.619,228.658 123.128,226.000 122.400 C 225.010 122.129,223.750 121.755,223.200 121.569 C 222.168 121.220,218.574 120.672,213.000 120.015 C 208.099 119.437,206.792 119.341,206.588 119.546 M12.800 218.800 L 12.800 224.800 16.356 224.800 L 19.912 224.800 20.137 223.500 C 20.261 222.785,20.473 221.570,20.608 220.800 C 20.744 220.030,21.009 219.040,21.197 218.600 C 21.557 217.759,21.913 216.270,22.272 214.100 L 22.488 212.800 17.644 212.800 L 12.800 212.800 12.800 218.800 M364.400 213.208 C 364.400 218.333,374.561 224.800,382.613 224.800 L 385.615 224.800 385.357 223.700 C 384.989 222.129,382.974 217.347,381.691 215.000 L 380.598 213.000 372.499 212.892 C 366.990 212.818,364.400 212.919,364.400 213.208 M91.400 263.396 C 88.735 264.573,87.112 267.816,88.031 270.124 C 89.746 274.427,93.103 275.870,96.613 273.814 C 102.908 270.124,98.067 260.449,91.400 263.396 M303.442 263.707 C 297.193 267.289,301.820 277.013,308.451 274.235 C 311.324 273.031,312.945 269.892,312.033 267.300 C 310.657 263.394,306.800 261.781,303.442 263.707 " stroke="none" fill="#98cad9" fill-rule="evenodd"></path><path id="path3" d="M167.400 100.416 C 166.520 100.582,168.230 100.623,171.200 100.507 C 174.170 100.390,176.675 100.229,176.767 100.148 C 177.071 99.878,169.028 100.108,167.400 100.416 M198.033 100.147 C 198.125 100.227,200.720 100.391,203.800 100.510 C 207.313 100.646,208.729 100.603,207.600 100.393 C 205.839 100.067,197.704 99.857,198.033 100.147 M161.000 101.200 L 159.800 101.505 161.200 101.505 C 161.970 101.505,163.140 101.368,163.800 101.200 L 165.000 100.895 163.600 100.895 C 162.830 100.895,161.660 101.032,161.000 101.200 M211.400 101.223 C 212.280 101.405,213.450 101.546,214.000 101.537 L 215.000 101.520 214.000 101.200 C 213.450 101.024,212.280 100.883,211.400 100.886 L 209.800 100.892 211.400 101.223 M156.200 102.000 L 155.000 102.305 156.400 102.313 C 157.170 102.317,158.250 102.176,158.800 102.000 C 160.199 101.552,157.961 101.552,156.200 102.000 M216.400 102.000 C 216.950 102.176,217.940 102.320,218.600 102.320 C 219.767 102.320,219.772 102.311,218.800 102.000 C 218.250 101.824,217.260 101.680,216.600 101.680 C 215.433 101.680,215.428 101.689,216.400 102.000 M151.081 103.087 C 149.806 103.422,148.850 103.783,148.957 103.891 C 149.169 104.102,152.900 103.313,154.200 102.781 L 155.000 102.454 154.200 102.467 C 153.760 102.474,152.356 102.753,151.081 103.087 M220.800 102.800 C 221.130 103.013,221.850 103.178,222.400 103.166 C 223.316 103.146,223.333 103.115,222.600 102.800 C 221.416 102.291,220.013 102.291,220.800 102.800 M224.000 103.600 C 224.330 103.813,225.050 103.978,225.600 103.966 C 226.516 103.946,226.533 103.915,225.800 103.600 C 224.616 103.091,223.213 103.091,224.000 103.600 M142.400 105.573 C 135.889 107.741,126.400 111.676,126.400 112.206 C 126.400 112.441,127.608 111.956,131.302 110.241 C 133.008 109.448,134.585 108.800,134.807 108.800 C 135.029 108.800,135.523 108.641,135.905 108.447 C 137.649 107.559,140.474 106.569,145.700 105.011 C 147.892 104.358,148.586 103.976,147.500 104.021 C 147.225 104.032,144.930 104.731,142.400 105.573 M227.400 104.349 C 227.840 104.550,229.010 104.935,230.000 105.204 C 230.990 105.473,232.301 105.876,232.913 106.100 C 233.525 106.324,234.114 106.420,234.221 106.312 C 234.430 106.103,229.801 104.588,227.800 104.210 C 226.870 104.034,226.780 104.066,227.400 104.349 M171.200 106.387 C 177.920 106.675,179.289 107.246,180.662 110.336 C 180.922 110.921,181.150 111.141,181.168 110.825 C 181.341 107.753,177.532 105.979,170.974 106.078 L 165.800 106.156 171.200 106.387 M201.100 106.296 C 202.475 106.374,204.725 106.374,206.100 106.296 C 207.475 106.218,206.350 106.154,203.600 106.154 C 200.850 106.154,199.725 106.218,201.100 106.296 M160.400 106.664 C 157.993 106.899,153.839 107.687,148.900 108.846 C 144.742 109.822,139.687 111.482,136.194 113.018 C 135.531 113.310,134.471 113.745,133.839 113.985 C 133.206 114.226,132.789 114.522,132.910 114.644 C 133.032 114.765,133.526 114.654,134.008 114.396 C 135.199 113.758,143.065 110.849,144.800 110.404 C 145.570 110.207,146.920 109.847,147.800 109.604 C 151.492 108.587,156.961 107.573,162.600 106.862 C 165.419 106.506,163.653 106.348,160.400 106.664 M196.389 107.300 C 193.475 109.273,193.658 106.818,193.658 143.800 C 193.658 174.709,193.707 177.083,194.359 178.200 C 195.150 179.554,197.391 181.217,198.359 181.168 C 198.744 181.148,198.574 180.946,197.936 180.662 C 197.351 180.402,196.478 179.832,195.995 179.396 C 193.928 177.525,194.000 178.804,194.000 143.774 L 194.000 111.109 194.866 109.569 C 195.350 108.707,196.319 107.750,197.066 107.396 C 197.799 107.047,198.400 106.681,198.400 106.581 C 198.400 106.179,197.648 106.447,196.389 107.300 M211.000 106.795 C 211.880 106.992,213.362 107.164,214.294 107.177 C 215.226 107.190,216.756 107.373,217.694 107.584 C 218.632 107.795,220.480 108.168,221.800 108.414 C 228.633 109.684,238.453 113.002,244.708 116.155 C 247.545 117.585,248.685 118.587,249.462 120.336 C 249.741 120.964,249.948 121.140,249.968 120.764 C 250.033 119.476,247.794 117.273,245.000 115.876 C 241.472 114.112,238.803 112.962,236.000 112.000 C 235.230 111.736,234.240 111.374,233.800 111.196 C 230.561 109.887,225.472 108.593,219.000 107.433 C 215.243 106.759,208.418 106.215,211.000 106.795 M235.000 106.690 C 235.220 106.881,236.120 107.265,237.000 107.545 C 237.880 107.824,238.960 108.207,239.400 108.395 C 239.840 108.584,241.010 109.066,242.000 109.468 C 255.511 114.949,268.334 123.586,279.608 134.800 C 288.477 143.621,293.804 150.571,299.998 161.400 C 309.705 178.370,310.459 179.455,315.200 183.269 C 317.044 184.753,321.975 187.614,322.633 187.582 C 322.835 187.573,322.280 187.194,321.400 186.740 C 316.683 184.311,308.800 177.439,308.800 175.757 C 308.800 175.629,308.461 175.046,308.047 174.462 C 307.314 173.428,306.531 172.093,304.494 168.400 C 294.240 149.811,284.374 137.189,272.745 127.782 C 271.125 126.472,269.562 125.174,269.270 124.899 C 264.823 120.691,246.770 110.462,239.400 107.973 C 238.520 107.676,237.620 107.316,237.400 107.172 C 236.750 106.747,234.558 106.307,235.000 106.690 M181.391 143.800 C 181.391 161.400,181.440 168.542,181.500 159.670 C 181.560 150.799,181.560 136.399,181.500 127.670 C 181.440 118.942,181.391 126.200,181.391 143.800 M123.400 113.573 C 122.300 114.179,120.500 115.174,119.400 115.784 C 107.516 122.372,92.770 135.247,84.800 145.994 C 84.250 146.736,83.424 147.806,82.964 148.371 C 81.832 149.765,77.200 156.709,77.200 157.013 C 77.200 157.146,76.660 158.041,76.000 159.000 C 75.340 159.959,74.800 160.834,74.800 160.943 C 74.800 162.341,64.364 178.872,61.921 181.343 C 59.357 183.938,59.453 184.303,62.037 181.785 C 64.273 179.606,66.585 176.406,68.817 172.400 C 69.613 170.970,70.655 169.125,71.133 168.300 C 71.610 167.475,72.360 166.170,72.800 165.400 C 73.240 164.630,73.960 163.370,74.400 162.600 C 78.665 155.136,80.541 152.285,85.168 146.235 C 90.448 139.330,98.590 131.101,105.386 125.800 C 106.233 125.140,107.392 124.224,107.963 123.764 C 110.171 121.985,116.583 117.880,121.087 115.362 C 123.679 113.913,125.875 112.653,125.967 112.563 C 126.443 112.096,125.167 112.598,123.400 113.573 M129.059 116.246 C 127.552 117.019,126.393 117.726,126.483 117.816 C 126.573 117.907,127.986 117.270,129.624 116.401 C 131.261 115.532,132.420 114.825,132.200 114.830 C 131.980 114.835,130.567 115.472,129.059 116.246 M124.400 118.704 C 123.850 119.068,121.510 120.615,119.200 122.140 C 116.890 123.666,114.910 125.023,114.800 125.157 C 114.690 125.291,113.791 126.029,112.802 126.798 C 107.413 130.987,99.888 138.872,96.005 144.400 C 95.464 145.170,94.702 146.149,94.311 146.575 C 93.920 147.002,93.600 147.484,93.600 147.647 C 93.600 147.810,92.905 148.991,92.056 150.272 C 90.575 152.504,88.575 156.112,87.883 157.800 C 87.245 159.355,88.292 157.798,89.631 155.200 C 96.285 142.285,109.922 127.907,122.760 120.273 C 124.542 119.213,126.000 118.268,126.000 118.173 C 126.000 117.844,125.396 118.045,124.400 118.704 M159.800 119.423 C 153.479 120.441,145.524 122.574,141.400 124.357 C 138.612 125.562,131.541 129.097,130.200 129.955 C 129.320 130.519,128.151 131.221,127.601 131.517 C 122.343 134.349,112.127 143.907,106.751 151.026 C 103.416 155.443,96.800 167.019,96.800 168.438 C 96.800 168.651,111.623 168.800,132.800 168.800 L 168.800 168.800 168.800 143.800 L 168.800 118.800 165.900 118.854 C 164.305 118.884,161.560 119.140,159.800 119.423 M206.197 119.700 C 206.077 120.195,206.029 131.400,206.090 144.600 L 206.200 168.600 241.800 168.703 C 261.380 168.760,277.620 168.722,277.889 168.620 C 278.244 168.484,278.129 167.908,277.468 166.517 C 272.915 156.927,267.376 148.933,260.698 142.309 C 255.602 137.255,255.093 134.180,258.832 131.035 C 262.593 127.870,267.151 130.407,274.936 140.000 C 276.276 141.650,277.483 143.090,277.620 143.200 C 278.265 143.718,283.712 152.214,285.399 155.335 C 286.441 157.263,287.372 158.762,287.467 158.667 C 287.888 158.246,282.287 148.881,278.829 144.227 C 268.749 130.656,262.876 126.842,258.322 130.912 C 254.432 134.388,254.887 136.846,260.521 142.800 C 265.302 147.852,268.878 152.313,270.915 155.768 C 271.833 157.325,272.723 158.660,272.892 158.733 C 273.062 158.807,273.200 159.212,273.200 159.633 C 273.200 160.055,273.335 160.401,273.500 160.401 C 273.665 160.402,274.250 161.392,274.800 162.600 C 275.350 163.808,275.935 164.798,276.100 164.799 C 276.265 164.799,276.400 165.149,276.400 165.576 C 276.400 166.003,276.558 166.451,276.752 166.570 C 276.945 166.690,277.198 167.150,277.314 167.594 C 277.524 168.398,277.420 168.400,241.963 168.400 L 206.400 168.400 206.400 144.024 C 206.400 130.617,206.535 119.578,206.700 119.494 C 207.317 119.180,221.352 120.944,223.200 121.569 C 223.750 121.755,225.010 122.129,226.000 122.400 C 228.082 122.970,229.821 123.529,231.100 124.040 C 231.595 124.238,232.450 124.580,233.000 124.800 C 233.550 125.020,234.405 125.360,234.900 125.557 C 235.395 125.753,237.021 126.472,238.512 127.154 C 244.678 129.974,248.920 129.012,249.772 124.600 L 250.004 123.400 249.437 124.600 C 247.686 128.303,243.989 129.257,239.600 127.138 C 230.748 122.864,224.363 120.909,214.381 119.416 C 208.322 118.510,206.470 118.575,206.197 119.700 M168.400 143.800 L 168.400 168.400 133.003 168.400 L 97.606 168.400 98.277 166.700 C 98.913 165.091,99.355 164.223,101.847 159.700 C 103.087 157.448,106.389 152.285,106.771 152.000 C 106.918 151.890,107.473 151.178,108.004 150.419 C 114.709 140.830,130.274 129.031,141.800 124.801 C 142.240 124.639,143.050 124.321,143.600 124.094 C 144.915 123.551,146.589 123.005,148.800 122.400 C 149.790 122.129,151.050 121.767,151.600 121.596 C 153.890 120.885,161.249 119.623,164.000 119.470 C 165.210 119.403,166.695 119.315,167.300 119.274 L 168.400 119.200 168.400 143.800 M86.615 160.305 C 82.727 168.284,80.261 176.573,81.540 177.363 C 81.727 177.478,81.799 176.724,81.701 175.687 C 81.523 173.818,83.362 168.458,86.653 161.251 C 87.765 158.816,87.732 158.012,86.615 160.305 M287.600 159.349 C 287.600 159.493,288.294 161.122,290.178 165.400 C 290.662 166.500,291.288 168.030,291.570 168.800 C 292.148 170.383,292.502 171.306,293.150 172.919 C 294.327 175.846,292.782 179.276,289.664 180.662 C 289.079 180.922,288.859 181.150,289.175 181.168 C 291.029 181.272,294.000 177.601,294.000 175.204 C 294.000 173.599,288.413 159.200,287.790 159.200 C 287.686 159.200,287.600 159.267,287.600 159.349 M180.190 177.914 C 179.756 178.720,178.680 179.800,177.800 180.315 C 176.739 180.935,176.537 181.159,177.200 180.980 C 178.458 180.640,180.364 178.899,180.851 177.645 C 181.433 176.147,181.061 176.299,180.190 177.914 M82.013 178.230 C 81.987 179.096,84.905 181.219,86.074 181.184 C 86.363 181.175,85.919 180.828,85.087 180.413 C 84.255 179.997,83.226 179.239,82.801 178.729 C 82.375 178.218,82.021 177.994,82.013 178.230 M109.331 181.500 C 121.613 181.559,141.593 181.559,153.731 181.500 C 165.869 181.441,155.820 181.393,131.400 181.393 C 106.980 181.393,97.049 181.441,109.331 181.500 M221.500 181.500 C 233.655 181.559,253.545 181.559,265.700 181.500 C 277.855 181.441,267.910 181.393,243.600 181.393 C 219.290 181.393,209.345 181.441,221.500 181.500 M59.013 183.980 C 58.865 184.218,57.388 185.207,55.729 186.178 C 52.242 188.219,47.321 189.857,38.200 192.013 C 36.220 192.481,34.150 193.007,33.600 193.182 C 33.050 193.357,31.610 193.720,30.400 193.988 C 27.670 194.592,25.784 195.158,24.100 195.880 C 22.293 196.655,22.463 196.927,24.300 196.200 C 25.125 195.873,28.320 194.958,31.400 194.166 C 39.405 192.107,40.032 191.958,41.703 191.725 C 42.529 191.610,43.305 191.355,43.426 191.158 C 43.548 190.961,44.078 190.800,44.605 190.800 C 45.131 190.800,45.976 190.643,46.481 190.451 C 46.987 190.259,48.120 189.887,49.000 189.625 C 51.945 188.746,54.012 187.785,56.789 186.004 C 59.828 184.055,59.806 184.073,59.528 183.795 C 59.392 183.659,59.160 183.742,59.013 183.980 M84.100 187.498 C 86.025 187.571,89.175 187.571,91.100 187.498 C 93.025 187.425,91.450 187.365,87.600 187.365 C 83.750 187.365,82.175 187.425,84.100 187.498 M202.920 187.498 C 204.855 187.572,207.915 187.571,209.720 187.497 C 211.524 187.423,209.940 187.363,206.200 187.364 C 202.460 187.364,200.984 187.425,202.920 187.498 M78.200 188.086 C 73.387 190.865,74.497 200.127,79.625 199.984 C 79.941 199.975,79.660 199.683,79.000 199.334 C 73.890 196.634,73.966 190.435,79.136 188.138 C 79.721 187.878,79.930 187.656,79.600 187.645 C 79.270 187.633,78.640 187.832,78.200 188.086 M96.657 188.568 C 97.685 189.205,98.633 190.239,99.156 191.297 C 99.620 192.234,100.000 192.766,100.000 192.480 C 100.001 190.927,97.743 188.296,96.000 187.818 C 95.324 187.632,95.537 187.876,96.657 188.568 M196.389 188.500 C 191.994 191.476,193.593 200.269,198.474 199.968 C 198.763 199.950,198.521 199.722,197.936 199.462 C 193.653 197.559,192.661 192.421,195.995 189.404 C 196.478 188.968,197.351 188.398,197.936 188.138 C 198.574 187.854,198.744 187.652,198.359 187.632 C 198.007 187.615,197.120 188.005,196.389 188.500 M214.000 187.754 C 214.000 187.869,214.636 188.264,215.414 188.633 C 216.846 189.313,217.421 190.031,218.270 192.200 C 218.568 192.963,218.750 193.138,218.770 192.680 C 218.839 191.047,216.705 188.366,214.900 187.819 C 214.405 187.669,214.000 187.640,214.000 187.754 M323.200 187.735 C 323.200 188.166,327.645 189.331,332.000 190.040 C 333.430 190.273,335.590 190.630,336.800 190.832 C 340.229 191.406,343.020 191.722,342.800 191.510 C 342.690 191.405,340.080 190.920,337.000 190.435 C 332.084 189.659,326.922 188.593,324.100 187.769 C 323.605 187.625,323.200 187.609,323.200 187.735 M344.200 191.988 C 344.860 192.178,346.660 192.539,348.200 192.791 C 352.278 193.457,354.764 194.004,356.800 194.685 C 360.128 195.797,360.823 195.960,360.584 195.574 C 360.457 195.368,360.039 195.200,359.656 195.200 C 359.273 195.200,358.789 195.051,358.580 194.870 C 357.724 194.125,349.645 192.328,345.000 191.848 C 343.462 191.690,343.277 191.722,344.200 191.988 M218.255 195.400 C 217.858 197.020,216.732 198.304,214.913 199.213 C 214.081 199.628,213.688 199.975,214.041 199.984 C 215.802 200.028,219.055 196.489,218.705 194.910 C 218.595 194.412,218.461 194.559,218.255 195.400 M98.994 196.471 C 98.413 197.676,97.688 198.399,96.394 199.060 C 95.407 199.565,94.888 199.983,95.241 199.989 C 96.828 200.017,100.344 196.432,99.934 195.203 C 99.860 194.981,99.437 195.551,98.994 196.471 M363.967 197.596 C 365.599 198.462,367.075 199.397,367.246 199.674 C 367.417 199.950,367.700 200.034,367.875 199.858 C 368.050 199.683,367.838 199.328,367.405 199.070 C 364.727 197.474,361.869 196.001,361.468 196.011 C 361.211 196.016,362.335 196.730,363.967 197.596 M21.176 197.313 C 18.818 199.154,18.303 199.636,18.490 199.824 C 18.607 199.940,19.226 199.533,19.867 198.918 C 20.507 198.303,21.384 197.586,21.815 197.324 C 22.247 197.061,22.420 196.842,22.200 196.836 C 21.980 196.830,21.519 197.045,21.176 197.313 M33.000 200.482 C 35.951 201.514,37.390 203.934,37.080 207.347 C 36.944 208.854,36.998 209.533,37.225 209.173 C 39.048 206.292,35.848 199.911,32.641 200.032 C 31.985 200.056,32.064 200.155,33.000 200.482 M352.896 200.798 C 351.423 201.696,349.988 203.802,350.033 205.000 C 350.055 205.578,350.179 205.467,350.481 204.600 C 351.052 202.958,352.998 200.983,354.531 200.490 C 355.399 200.211,355.547 200.069,355.000 200.042 C 354.560 200.021,353.613 200.361,352.896 200.798 M350.078 209.400 C 350.066 210.500,350.211 211.760,350.400 212.200 C 350.865 213.283,350.876 211.759,350.420 209.200 L 350.100 207.400 350.078 209.400 M36.222 211.129 C 36.058 211.859,36.022 212.556,36.142 212.676 C 36.443 212.977,36.920 210.956,36.699 210.317 C 36.601 210.033,36.386 210.398,36.222 211.129 M12.490 218.700 L 12.600 225.000 16.164 225.116 C 18.123 225.181,19.876 225.084,20.058 224.902 C 20.393 224.567,23.200 213.848,23.200 212.906 C 23.200 212.523,21.888 212.400,17.790 212.400 L 12.380 212.400 12.490 218.700 M363.835 212.744 C 363.402 213.445,365.828 217.470,367.979 219.619 C 371.775 223.412,376.394 225.200,382.399 225.200 L 386.105 225.200 385.886 223.853 C 385.610 222.150,383.565 217.243,381.990 214.500 L 380.784 212.400 372.416 212.400 C 367.813 212.400,363.952 212.555,363.835 212.744 M22.272 214.100 C 21.913 216.270,21.557 217.759,21.197 218.600 C 21.009 219.040,20.744 220.030,20.608 220.800 C 20.473 221.570,20.261 222.785,20.137 223.500 L 19.912 224.800 16.356 224.800 L 12.800 224.800 12.800 218.800 L 12.800 212.800 17.644 212.800 L 22.488 212.800 22.272 214.100 M381.691 215.000 C 382.974 217.347,384.989 222.129,385.357 223.700 L 385.615 224.800 382.613 224.800 C 375.300 224.800,368.083 220.850,365.250 215.298 C 363.913 212.677,363.622 212.773,372.499 212.892 L 380.598 213.000 381.691 215.000 M35.378 214.578 C 35.227 215.381,35.204 216.137,35.326 216.260 C 35.448 216.382,35.672 215.825,35.822 215.022 C 35.973 214.219,35.996 213.463,35.874 213.340 C 35.752 213.218,35.528 213.775,35.378 214.578 M350.829 213.682 C 350.718 216.332,354.633 223.658,358.244 227.559 C 361.486 231.060,368.330 235.803,369.071 235.062 C 369.178 234.956,368.575 234.549,367.732 234.159 C 360.293 230.718,354.469 223.924,351.651 215.400 C 351.214 214.080,350.844 213.307,350.829 213.682 M34.616 217.800 C 34.461 218.460,34.169 219.522,33.967 220.160 C 33.568 221.421,33.476 222.657,33.806 222.327 C 34.168 221.965,35.230 217.488,35.061 217.035 C 34.972 216.796,34.772 217.140,34.616 217.800 M32.978 224.178 C 32.827 224.981,32.794 225.727,32.904 225.837 C 33.014 225.947,33.227 225.381,33.378 224.578 C 33.528 223.775,33.562 223.028,33.452 222.918 C 33.342 222.808,33.128 223.375,32.978 224.178 M89.600 224.641 C 74.731 225.871,60.108 236.293,53.818 250.142 C 52.307 253.470,51.441 255.974,51.709 256.242 C 51.813 256.346,52.204 255.479,52.579 254.316 C 58.128 237.074,75.021 225.088,93.800 225.067 C 99.360 225.061,101.161 225.316,106.577 226.879 C 118.190 230.229,129.610 240.409,133.587 250.955 C 133.826 251.591,134.123 252.010,134.247 251.887 C 134.370 251.763,133.922 250.524,133.251 249.131 C 129.181 240.684,121.939 233.428,113.400 229.241 C 108.655 226.915,108.485 226.854,102.200 225.257 C 100.416 224.803,92.384 224.410,89.600 224.641 M301.800 224.649 C 299.886 224.797,298.088 225.153,294.600 226.072 C 292.042 226.747,291.875 226.809,292.075 227.008 C 292.179 227.112,293.150 226.954,294.232 226.657 C 299.371 225.245,300.823 225.059,306.400 225.095 C 314.858 225.149,320.443 226.571,327.530 230.475 C 336.639 235.493,344.260 244.646,347.434 254.382 C 347.825 255.582,348.212 256.364,348.293 256.121 C 348.522 255.435,346.160 249.619,344.601 247.030 C 343.831 245.750,343.200 244.637,343.200 244.556 C 343.200 244.079,339.162 239.231,336.884 236.973 C 327.900 228.068,315.207 223.609,301.800 224.649 M32.249 227.015 C 32.112 227.373,32.016 228.056,32.036 228.533 C 32.062 229.147,32.185 229.008,32.459 228.056 C 32.857 226.672,32.694 225.858,32.249 227.015 M286.782 229.105 C 280.471 232.237,274.021 237.686,270.535 242.831 C 267.984 246.596,268.366 246.464,271.207 242.600 C 275.780 236.380,284.072 230.111,291.200 227.484 C 291.733 227.288,291.733 227.260,291.200 227.237 C 290.870 227.223,288.882 228.063,286.782 229.105 M31.449 230.215 C 31.312 230.573,31.216 231.256,31.236 231.733 C 31.262 232.347,31.385 232.208,31.659 231.256 C 32.057 229.872,31.894 229.058,31.449 230.215 M30.205 234.243 C 29.428 235.685,28.721 236.240,26.600 237.070 C 25.637 237.446,25.566 237.545,26.241 237.570 C 27.841 237.627,31.933 233.800,31.130 232.997 C 31.039 232.906,30.623 233.467,30.205 234.243 M370.000 235.600 C 370.330 235.813,370.870 235.988,371.200 235.988 C 371.733 235.988,371.733 235.945,371.200 235.600 C 370.870 235.387,370.330 235.212,370.000 235.212 C 369.467 235.212,369.467 235.255,370.000 235.600 M372.400 236.400 C 372.730 236.613,373.360 236.778,373.800 236.766 L 374.600 236.744 373.800 236.400 C 372.604 235.886,371.605 235.886,372.400 236.400 M375.600 237.191 C 376.570 237.511,381.901 237.746,381.567 237.455 C 381.475 237.375,379.870 237.209,378.000 237.086 C 376.004 236.954,375.013 236.998,375.600 237.191 M12.480 248.600 C 12.443 254.760,12.544 260.008,12.706 260.263 C 12.975 260.686,12.943 244.081,12.666 239.400 C 12.601 238.300,12.517 242.440,12.480 248.600 M86.529 238.411 C 60.640 245.102,54.107 278.302,75.600 293.949 C 97.423 309.836,127.742 291.998,124.739 265.037 C 122.706 246.788,104.148 233.857,86.529 238.411 M298.800 238.438 C 278.450 243.655,268.711 267.591,279.823 285.079 C 295.191 309.265,331.112 302.495,336.993 274.305 C 341.483 252.786,320.326 232.919,298.800 238.438 M387.293 248.258 C 387.165 263.227,385.974 266.667,379.240 271.529 C 377.037 273.120,377.458 273.215,379.728 271.640 C 386.313 267.072,387.652 263.051,387.500 248.316 L 387.387 237.400 387.293 248.258 M267.000 248.800 C 266.202 250.385,265.621 251.755,265.710 251.843 C 265.799 251.932,266.518 250.702,267.309 249.109 C 268.100 247.516,268.680 246.147,268.599 246.066 C 268.518 245.984,267.798 247.215,267.000 248.800 M97.754 250.448 C 112.407 254.437,117.365 271.616,106.853 281.979 C 95.845 292.830,77.913 286.935,75.165 271.560 C 72.983 259.352,85.948 247.235,97.754 250.448 M310.520 250.562 C 326.537 254.734,330.061 275.123,316.371 284.420 C 304.191 292.691,287.600 283.720,287.600 268.862 C 287.600 256.837,299.163 247.604,310.520 250.562 M264.645 254.250 C 264.290 255.291,264.010 256.425,264.022 256.771 C 264.033 257.117,264.386 256.327,264.804 255.016 C 265.710 252.180,265.573 251.525,264.645 254.250 M135.209 254.633 C 135.229 255.447,136.730 260.551,136.764 259.920 C 136.805 259.144,135.719 254.785,135.406 254.473 C 135.293 254.359,135.204 254.432,135.209 254.633 M51.000 258.000 C 50.848 258.691,50.814 259.347,50.924 259.457 C 51.034 259.567,51.248 259.091,51.400 258.400 C 51.552 257.709,51.586 257.053,51.476 256.943 C 51.366 256.833,51.152 257.309,51.000 258.000 M348.456 257.400 C 348.456 257.840,348.611 258.560,348.800 259.000 L 349.144 259.800 349.144 259.000 C 349.144 258.560,348.989 257.840,348.800 257.400 L 348.456 256.600 348.456 257.400 M263.449 258.215 C 263.312 258.573,263.216 259.256,263.236 259.733 C 263.262 260.347,263.385 260.208,263.659 259.256 C 264.057 257.872,263.894 257.058,263.449 258.215 M349.295 261.200 C 349.295 261.970,349.432 263.140,349.600 263.800 L 349.905 265.000 349.905 263.600 C 349.905 262.830,349.768 261.660,349.600 261.000 L 349.295 259.800 349.295 261.200 M50.282 261.550 C 50.127 262.293,50.021 263.553,50.047 264.350 C 50.086 265.573,50.150 265.456,50.457 263.603 C 50.865 261.141,50.721 259.451,50.282 261.550 M137.081 263.800 C 137.206 265.560,137.374 267.075,137.454 267.167 C 137.747 267.501,137.511 262.571,137.187 261.600 C 136.987 260.999,136.944 261.878,137.081 263.800 M13.222 261.625 C 13.128 264.302,21.000 273.933,22.256 272.677 C 22.376 272.557,21.963 272.190,21.337 271.860 C 18.849 270.551,15.416 266.352,14.019 262.910 C 13.593 261.859,13.234 261.281,13.222 261.625 M262.594 262.500 C 262.460 263.215,262.407 266.275,262.476 269.301 L 262.600 274.801 200.000 274.801 L 137.400 274.801 137.468 272.301 L 137.536 269.800 137.203 272.200 C 137.020 273.520,136.999 274.736,137.156 274.901 C 137.314 275.067,165.661 275.157,200.149 275.101 L 262.856 275.000 262.928 268.100 C 263.004 260.819,262.980 260.427,262.594 262.500 M90.600 263.159 C 89.144 264.010,87.588 266.210,87.632 267.359 C 87.656 268.015,87.755 267.936,88.082 267.000 C 88.648 265.381,89.920 264.047,91.549 263.365 C 94.919 261.953,97.941 263.493,99.470 267.400 C 99.939 268.598,99.939 268.599,99.970 267.559 C 100.045 264.966,97.012 262.458,93.800 262.458 C 92.618 262.458,91.309 262.745,90.600 263.159 M303.000 263.304 C 300.496 265.137,300.000 266.043,300.000 268.779 C 300.000 276.299,310.292 277.592,312.463 270.346 C 314.038 265.092,307.353 260.117,303.000 263.304 M308.451 263.365 C 311.324 264.569,312.945 267.708,312.033 270.300 C 310.685 274.127,306.868 275.800,303.654 273.973 C 297.204 270.305,301.634 260.509,308.451 263.365 M99.660 269.340 C 99.457 271.846,96.348 274.800,93.914 274.800 C 91.474 274.800,89.712 273.566,88.401 270.941 C 87.945 270.028,87.625 269.693,87.616 270.120 C 87.565 272.413,90.947 275.200,93.781 275.200 C 96.817 275.200,100.249 272.128,99.890 269.732 C 99.796 269.109,99.693 268.933,99.660 269.340 M50.050 272.923 L 50.000 274.846 38.700 274.721 C 28.143 274.605,27.244 274.538,25.023 273.702 C 23.716 273.209,22.816 272.968,23.023 273.164 C 24.586 274.647,27.317 274.987,38.600 275.101 C 51.161 275.227,50.804 275.297,50.395 272.800 L 50.100 271.000 50.050 272.923 M349.549 273.200 C 349.190 275.233,349.134 275.224,361.400 275.101 C 372.683 274.987,375.414 274.647,376.977 273.164 C 377.184 272.968,376.284 273.209,374.977 273.702 C 372.757 274.538,371.856 274.605,361.325 274.721 L 350.051 274.845 349.923 273.323 L 349.795 271.800 349.549 273.200 " stroke="none" fill="#6c787f" fill-rule="evenodd"></path><path id="path4" d="M182.124 100.299 C 185.162 100.367,190.022 100.367,192.924 100.299 C 195.826 100.231,193.340 100.175,187.400 100.175 C 181.460 100.175,179.086 100.231,182.124 100.299 M167.200 100.841 C 165.330 101.019,162.810 101.339,161.600 101.554 L 159.400 101.943 161.800 101.781 C 170.581 101.186,174.495 100.839,174.699 100.635 C 175.000 100.333,171.540 100.428,167.200 100.841 M201.600 100.820 C 202.590 100.997,204.930 101.125,206.800 101.106 L 210.200 101.071 207.200 100.788 C 205.550 100.632,203.210 100.504,202.000 100.502 L 199.800 100.500 201.600 100.820 M210.520 101.435 C 210.695 101.621,212.045 101.912,213.520 102.082 C 214.994 102.251,217.100 102.564,218.200 102.777 C 223.131 103.730,224.209 103.905,224.347 103.776 C 224.428 103.701,223.978 103.531,223.347 103.400 C 222.716 103.268,221.570 103.004,220.800 102.813 C 217.304 101.947,210.088 100.979,210.520 101.435 M157.000 102.264 C 156.340 102.343,155.170 102.575,154.400 102.779 C 153.630 102.983,152.100 103.354,151.000 103.604 C 148.166 104.247,144.732 105.265,144.884 105.417 C 145.011 105.544,152.259 103.869,154.628 103.165 C 155.304 102.964,156.384 102.797,157.028 102.794 C 157.673 102.791,158.470 102.613,158.800 102.400 C 159.466 101.970,159.455 101.969,157.000 102.264 M228.600 105.228 C 230.800 105.872,232.780 106.386,233.000 106.372 C 233.565 106.335,232.120 105.771,230.000 105.201 C 229.010 104.935,227.787 104.555,227.281 104.358 C 226.776 104.161,225.966 104.013,225.481 104.029 C 224.997 104.046,226.400 104.585,228.600 105.228 M142.400 106.000 C 141.605 106.514,142.604 106.514,143.800 106.000 L 144.600 105.656 143.800 105.634 C 143.360 105.622,142.730 105.787,142.400 106.000 M160.214 106.378 C 159.999 106.726,165.557 106.501,165.967 106.145 C 166.058 106.065,164.854 106.000,163.290 106.000 C 161.727 106.000,160.342 106.170,160.214 106.378 M177.178 106.441 C 177.717 106.656,178.392 107.027,178.678 107.265 C 178.979 107.515,179.200 107.535,179.200 107.313 C 179.200 106.887,177.437 105.986,176.681 106.025 C 176.417 106.039,176.640 106.227,177.178 106.441 M196.624 106.613 C 195.641 107.356,195.947 107.357,197.654 106.616 C 198.586 106.211,198.754 106.030,198.200 106.028 C 197.760 106.027,197.051 106.290,196.624 106.613 M208.433 106.144 C 208.525 106.223,210.040 106.402,211.800 106.540 C 213.935 106.708,214.800 106.662,214.400 106.402 C 213.860 106.051,208.035 105.799,208.433 106.144 M155.000 107.200 C 154.716 107.660,155.364 107.660,156.800 107.200 C 157.755 106.894,157.743 106.878,156.524 106.840 C 155.822 106.818,155.136 106.980,155.000 107.200 M216.833 106.947 C 217.300 107.358,220.057 107.616,219.816 107.226 C 219.671 106.991,218.903 106.800,218.110 106.800 C 217.316 106.800,216.742 106.866,216.833 106.947 M151.000 108.000 C 150.705 108.478,151.489 108.478,152.600 108.000 C 153.314 107.693,153.285 107.653,152.324 107.628 C 151.732 107.613,151.136 107.780,151.000 108.000 M179.600 107.776 C 179.600 107.940,179.960 108.531,180.400 109.091 C 180.840 109.650,181.214 110.579,181.232 111.154 C 181.249 111.729,181.357 111.967,181.471 111.683 C 181.785 110.900,181.317 109.458,180.411 108.413 C 179.965 107.898,179.600 107.612,179.600 107.776 M222.200 108.000 C 223.301 108.473,223.692 108.473,223.400 108.000 C 223.264 107.780,222.758 107.613,222.276 107.628 C 221.431 107.655,221.429 107.669,222.200 108.000 M147.800 108.800 C 147.508 109.273,147.899 109.273,149.000 108.800 C 149.771 108.469,149.769 108.455,148.924 108.428 C 148.442 108.413,147.936 108.580,147.800 108.800 M125.865 112.647 C 125.240 112.986,124.806 113.339,124.900 113.433 C 125.087 113.620,127.600 112.446,127.600 112.171 C 127.600 111.862,127.018 112.022,125.865 112.647 M135.200 112.900 C 132.393 114.153,126.575 116.979,126.400 117.176 C 126.290 117.299,125.570 117.737,124.800 118.149 C 122.395 119.436,116.413 123.386,116.406 123.691 C 116.403 123.852,118.065 122.864,120.100 121.496 C 123.712 119.069,134.856 113.200,135.852 113.200 C 136.128 113.200,136.464 113.020,136.600 112.800 C 136.910 112.298,136.481 112.329,135.200 112.900 M240.200 113.600 C 240.336 113.820,240.641 114.000,240.878 114.000 C 241.115 114.000,242.769 114.735,244.554 115.633 C 249.006 117.872,250.103 119.316,249.929 122.701 C 249.858 124.076,249.935 125.201,250.100 125.201 C 251.587 125.197,249.979 118.671,248.133 117.219 C 246.277 115.759,239.672 112.746,240.200 113.600 M250.800 113.892 C 250.800 114.067,251.475 114.525,252.300 114.908 C 253.947 115.672,255.747 116.680,257.399 117.762 C 257.988 118.148,258.553 118.381,258.655 118.279 C 258.757 118.177,257.436 117.288,255.720 116.304 C 251.352 113.800,250.800 113.529,250.800 113.892 M121.465 115.047 C 120.840 115.386,120.403 115.737,120.494 115.827 C 120.732 116.065,122.793 115.056,122.797 114.700 C 122.801 114.319,122.815 114.316,121.465 115.047 M117.525 117.374 C 113.988 119.507,108.089 123.533,107.788 124.019 C 107.639 124.260,109.465 123.141,111.846 121.532 C 116.652 118.283,118.262 117.292,119.300 116.942 C 119.685 116.813,120.000 116.548,120.000 116.353 C 120.000 115.868,120.071 115.839,117.525 117.374 M259.202 118.676 C 259.203 118.854,260.565 119.857,262.229 120.905 C 265.699 123.091,265.886 122.759,262.475 120.468 C 259.448 118.434,259.200 118.298,259.202 118.676 M266.805 123.873 C 266.808 124.053,267.457 124.619,268.248 125.132 C 269.040 125.645,269.572 125.878,269.431 125.651 C 269.041 125.018,266.799 123.501,266.805 123.873 M106.229 125.029 C 105.805 125.338,105.536 125.669,105.630 125.763 C 105.724 125.857,106.148 125.681,106.571 125.371 C 106.995 125.062,107.264 124.731,107.170 124.637 C 107.076 124.543,106.652 124.719,106.229 125.029 M113.829 125.429 C 113.405 125.738,113.136 126.069,113.230 126.163 C 113.324 126.257,113.748 126.081,114.171 125.771 C 114.595 125.462,114.864 125.131,114.770 125.037 C 114.676 124.943,114.252 125.119,113.829 125.429 M270.000 126.216 C 270.000 126.376,270.495 126.943,271.100 127.476 C 272.729 128.912,274.584 130.222,274.271 129.715 C 273.855 129.042,270.000 125.884,270.000 126.216 M102.000 128.466 C 97.065 132.846,87.431 142.764,87.776 143.109 C 87.893 143.226,88.377 142.800,88.852 142.161 C 89.814 140.869,100.215 130.533,102.600 128.500 C 103.439 127.785,103.962 127.205,103.763 127.212 C 103.563 127.218,102.770 127.783,102.000 128.466 M105.929 132.488 C 101.362 136.988,100.094 138.373,97.765 141.400 C 96.133 143.522,95.619 144.567,97.062 142.831 C 102.023 136.860,105.524 133.112,108.962 130.088 C 110.033 129.146,110.819 128.286,110.709 128.175 C 110.599 128.065,108.448 130.006,105.929 132.488 M260.400 129.089 C 259.416 129.458,257.539 130.872,257.751 131.084 C 257.859 131.192,258.345 130.909,258.832 130.456 C 261.739 127.748,265.039 128.935,270.785 134.756 C 273.306 137.310,274.868 138.770,274.255 138.000 C 268.629 130.936,263.781 127.818,260.400 129.089 M279.312 134.900 C 281.356 136.935,284.192 139.950,285.614 141.600 C 287.036 143.250,288.299 144.690,288.419 144.800 C 288.540 144.910,289.074 145.630,289.606 146.400 C 290.138 147.170,290.798 148.032,291.073 148.315 C 291.347 148.598,291.887 149.363,292.272 150.015 C 292.657 150.667,293.126 151.200,293.313 151.200 C 293.755 151.200,292.556 149.495,288.821 144.811 C 285.637 140.817,276.538 131.200,275.944 131.200 C 275.753 131.200,277.268 132.865,279.312 134.900 M276.621 141.400 C 278.339 143.496,278.863 143.781,277.540 141.900 C 276.455 140.357,275.752 139.600,275.402 139.600 C 275.261 139.600,275.810 140.410,276.621 141.400 M85.293 146.100 C 81.728 150.609,78.051 156.000,78.539 156.000 C 78.631 156.000,79.484 154.806,80.434 153.347 C 81.385 151.888,82.351 150.493,82.581 150.247 C 83.379 149.395,87.618 143.600,87.444 143.600 C 87.348 143.600,86.380 144.725,85.293 146.100 M279.191 144.788 C 280.428 146.524,281.025 146.734,279.932 145.048 C 279.419 144.257,278.853 143.608,278.673 143.605 C 278.493 143.602,278.726 144.135,279.191 144.788 M94.893 145.200 C 94.618 145.640,94.531 146.000,94.700 146.000 C 94.869 146.000,95.232 145.640,95.507 145.200 C 95.782 144.760,95.869 144.400,95.700 144.400 C 95.531 144.400,95.168 144.760,94.893 145.200 M281.434 147.900 C 283.208 150.586,285.396 154.348,287.015 157.494 C 288.742 160.851,289.525 162.112,288.947 160.607 C 288.357 159.068,284.870 152.422,284.046 151.265 C 283.581 150.611,283.200 149.879,283.200 149.638 C 283.200 149.397,283.020 149.200,282.800 149.200 C 282.580 149.200,282.400 148.930,282.400 148.600 C 282.400 148.270,282.220 148.000,282.000 148.000 C 281.780 148.000,281.600 147.730,281.600 147.400 C 281.600 147.070,281.399 146.800,281.154 146.800 C 280.894 146.800,281.011 147.259,281.434 147.900 M91.832 149.832 C 91.012 151.066,90.418 152.151,90.510 152.243 C 90.602 152.336,91.339 151.393,92.147 150.147 C 92.956 148.902,93.550 147.817,93.469 147.736 C 93.388 147.654,92.651 148.598,91.832 149.832 M293.600 151.938 C 293.600 152.124,293.988 152.619,294.462 153.038 L 295.324 153.800 294.616 152.700 C 293.886 151.566,293.600 151.351,293.600 151.938 M88.504 155.474 C 87.801 156.988,88.210 157.128,88.981 155.637 C 89.333 154.957,89.481 154.401,89.310 154.403 C 89.140 154.405,88.777 154.887,88.504 155.474 M296.000 155.340 C 296.000 155.417,296.990 157.122,298.200 159.129 C 299.410 161.136,300.400 162.948,300.400 163.156 C 300.400 163.363,300.535 163.593,300.700 163.667 C 300.865 163.740,301.412 164.610,301.917 165.600 C 302.421 166.590,303.199 167.850,303.647 168.400 C 304.506 169.455,301.983 164.555,300.731 162.738 C 300.329 162.154,300.000 161.592,300.000 161.489 C 300.000 161.188,296.350 155.200,296.166 155.200 C 296.075 155.200,296.000 155.263,296.000 155.340 M86.646 159.258 C 86.071 160.412,85.609 161.547,85.619 161.779 C 85.630 162.010,86.182 161.147,86.846 159.860 C 87.510 158.573,87.972 157.439,87.873 157.339 C 87.773 157.240,87.221 158.103,86.646 159.258 M76.645 158.588 C 76.280 159.144,76.122 159.600,76.295 159.600 C 76.684 159.600,77.719 157.986,77.482 157.749 C 77.386 157.653,77.010 158.031,76.645 158.588 M84.585 163.900 C 84.226 164.725,83.768 165.713,83.566 166.095 C 83.365 166.477,83.200 166.974,83.200 167.199 C 83.200 167.424,82.865 168.372,82.457 169.304 C 80.955 172.730,80.800 173.274,80.801 175.119 C 80.804 178.245,83.678 181.649,86.238 181.559 C 87.388 181.519,87.386 181.515,86.049 181.199 C 81.297 180.077,80.103 176.073,82.644 169.778 C 85.196 163.456,85.592 162.400,85.413 162.400 C 85.316 162.400,84.944 163.075,84.585 163.900 M73.414 164.235 C 73.041 164.804,72.827 165.361,72.939 165.472 C 73.050 165.583,73.429 165.118,73.781 164.437 C 74.559 162.933,74.344 162.815,73.414 164.235 M72.054 166.666 C 71.828 167.070,71.275 168.030,70.825 168.800 C 70.375 169.570,69.531 171.100,68.948 172.200 C 68.366 173.300,67.194 175.225,66.345 176.478 C 64.795 178.763,64.357 179.716,65.310 178.729 C 65.825 178.195,69.282 172.520,71.114 169.200 C 71.660 168.210,72.289 167.171,72.511 166.890 C 72.732 166.610,72.813 166.280,72.689 166.156 C 72.566 166.033,72.280 166.262,72.054 166.666 M304.566 170.100 C 304.695 170.375,304.911 170.915,305.046 171.300 C 305.182 171.685,305.457 172.000,305.657 172.000 C 305.857 172.000,305.741 171.460,305.400 170.800 C 304.811 169.662,304.073 169.042,304.566 170.100 M293.228 171.876 C 293.318 172.915,293.944 173.796,293.972 172.924 C 293.987 172.442,293.820 171.936,293.600 171.800 C 293.380 171.664,293.213 171.698,293.228 171.876 M306.009 172.620 C 306.014 172.829,306.370 173.450,306.800 174.000 C 307.230 174.550,307.586 175.225,307.591 175.500 C 307.596 175.775,307.795 176.000,308.033 176.000 C 308.271 176.000,308.062 175.325,307.569 174.500 C 306.482 172.682,305.997 172.097,306.009 172.620 M181.061 176.826 C 180.733 178.565,178.730 180.589,176.800 181.133 C 175.745 181.431,175.628 181.537,176.326 181.564 C 178.765 181.659,182.182 177.932,181.504 175.917 C 181.408 175.633,181.209 176.042,181.061 176.826 M293.111 178.026 C 292.740 178.672,292.580 179.200,292.754 179.200 C 293.083 179.200,294.124 177.191,293.907 176.974 C 293.840 176.907,293.482 177.380,293.111 178.026 M309.651 178.298 C 310.544 179.434,311.126 180.000,311.402 180.000 C 311.787 180.000,309.858 177.648,309.451 177.622 C 309.259 177.610,309.349 177.914,309.651 178.298 M61.497 182.216 C 60.011 183.643,57.896 185.364,56.797 186.040 C 54.619 187.380,54.380 187.635,55.600 187.316 C 56.040 187.201,56.400 186.960,56.400 186.780 C 56.400 186.601,56.759 186.340,57.198 186.201 C 57.636 186.062,58.221 185.731,58.498 185.466 C 58.774 185.200,59.863 184.284,60.917 183.430 C 62.497 182.149,64.800 179.570,64.327 179.611 C 64.257 179.617,62.984 180.790,61.497 182.216 M290.856 180.413 C 290.336 180.846,289.346 181.221,288.656 181.246 C 287.919 181.274,287.702 181.371,288.132 181.482 C 289.186 181.754,290.512 181.343,291.587 180.411 C 292.789 179.368,292.107 179.371,290.856 180.413 M196.600 180.933 C 197.040 181.286,197.940 181.562,198.600 181.546 L 199.800 181.518 198.600 181.209 C 197.940 181.038,197.040 180.762,196.600 180.596 L 195.800 180.292 196.600 180.933 M314.200 182.979 C 317.832 186.196,324.084 189.167,328.422 189.737 C 330.137 189.962,330.150 189.956,328.800 189.562 C 324.090 188.187,321.910 187.372,319.600 186.123 C 317.149 184.798,313.560 182.182,313.267 181.507 C 313.193 181.338,312.923 181.202,312.667 181.204 C 312.410 181.206,313.100 182.005,314.200 182.979 M77.800 187.867 L 77.000 188.508 77.800 188.204 C 78.240 188.038,79.140 187.762,79.800 187.591 L 81.000 187.282 79.800 187.254 C 79.140 187.238,78.240 187.514,77.800 187.867 M94.433 187.344 C 94.905 187.750,96.843 187.993,96.610 187.616 C 96.468 187.387,95.883 187.200,95.310 187.200 C 94.736 187.200,94.342 187.265,94.433 187.344 M196.600 187.867 L 195.800 188.508 196.600 188.204 C 197.040 188.038,197.940 187.762,198.600 187.591 L 199.800 187.282 198.600 187.254 C 197.940 187.238,197.040 187.514,196.600 187.867 M212.833 187.343 C 213.276 187.722,215.617 187.951,215.396 187.594 C 215.262 187.377,214.593 187.200,213.910 187.200 C 213.226 187.200,212.742 187.264,212.833 187.343 M98.076 189.100 C 101.068 192.308,100.610 197.064,97.104 199.202 C 95.107 200.420,79.439 200.418,77.891 199.200 C 76.742 198.297,76.062 198.120,76.880 198.937 C 78.207 200.264,79.201 200.400,87.579 200.400 C 96.348 200.400,96.837 200.319,98.578 198.578 C 101.174 195.982,101.148 191.672,98.518 188.922 C 98.033 188.415,97.505 188.000,97.343 188.000 C 97.182 188.000,97.512 188.495,98.076 189.100 M216.876 189.100 C 219.868 192.308,219.412 197.049,215.904 199.210 C 214.522 200.062,198.568 200.278,196.600 199.472 C 196.160 199.292,196.250 199.421,196.800 199.758 C 198.626 200.878,214.401 200.668,216.187 199.500 C 219.758 197.164,220.306 192.046,217.318 188.922 C 216.833 188.415,216.305 188.000,216.143 188.000 C 215.982 188.000,216.312 188.495,216.876 189.100 M51.432 188.748 C 51.314 188.940,50.628 189.227,49.908 189.386 C 49.189 189.545,48.814 189.759,49.076 189.863 C 49.338 189.966,50.328 189.695,51.276 189.259 C 52.224 188.824,52.696 188.452,52.324 188.434 C 51.952 188.415,51.550 188.557,51.432 188.748 M75.200 190.599 C 74.437 192.026,74.880 192.184,75.689 190.774 C 76.060 190.128,76.222 189.600,76.049 189.600 C 75.876 189.600,75.494 190.050,75.200 190.599 M46.400 190.400 C 45.867 190.745,45.867 190.788,46.400 190.788 C 46.730 190.788,47.270 190.613,47.600 190.400 C 48.133 190.055,48.133 190.012,47.600 190.012 C 47.270 190.012,46.730 190.187,46.400 190.400 M332.200 190.400 C 332.640 190.589,333.450 190.744,334.000 190.744 C 334.912 190.744,334.929 190.713,334.200 190.400 C 333.760 190.211,332.950 190.056,332.400 190.056 C 331.488 190.056,331.471 190.087,332.200 190.400 M43.400 191.200 C 43.264 191.420,43.423 191.600,43.753 191.600 C 44.083 191.600,44.464 191.420,44.600 191.200 C 44.736 190.980,44.577 190.800,44.247 190.800 C 43.917 190.800,43.536 190.980,43.400 191.200 M337.000 191.200 C 337.440 191.389,338.250 191.544,338.800 191.544 C 339.712 191.544,339.729 191.513,339.000 191.200 C 338.560 191.011,337.750 190.856,337.200 190.856 C 336.288 190.856,336.271 190.887,337.000 191.200 M40.000 192.000 C 39.512 192.315,39.564 192.389,40.276 192.394 C 40.758 192.397,41.264 192.220,41.400 192.000 C 41.715 191.491,40.788 191.491,40.000 192.000 M342.200 192.000 C 342.336 192.220,342.932 192.387,343.524 192.372 C 344.485 192.347,344.514 192.307,343.800 192.000 C 342.689 191.522,341.905 191.522,342.200 192.000 M36.800 192.800 C 36.312 193.115,36.364 193.189,37.076 193.194 C 37.558 193.197,38.064 193.020,38.200 192.800 C 38.515 192.291,37.588 192.291,36.800 192.800 M346.600 192.800 C 346.736 193.020,347.422 193.182,348.124 193.160 C 349.343 193.122,349.355 193.106,348.400 192.800 C 346.964 192.340,346.316 192.340,346.600 192.800 M33.800 193.600 C 33.029 193.931,33.031 193.945,33.876 193.972 C 34.358 193.987,34.864 193.820,35.000 193.600 C 35.292 193.127,34.901 193.127,33.800 193.600 M351.390 193.584 C 351.532 193.813,352.117 194.000,352.690 194.000 C 353.944 194.000,353.799 193.808,352.266 193.440 C 351.523 193.262,351.221 193.311,351.390 193.584 M30.600 194.400 C 29.829 194.731,29.831 194.745,30.676 194.772 C 31.158 194.787,31.664 194.620,31.800 194.400 C 32.092 193.927,31.701 193.927,30.600 194.400 M27.400 195.200 C 26.629 195.531,26.631 195.545,27.476 195.572 C 27.958 195.587,28.464 195.420,28.600 195.200 C 28.892 194.727,28.501 194.727,27.400 195.200 M23.016 196.819 C 20.552 198.069,19.200 199.076,19.200 199.662 C 19.200 199.848,22.413 200.000,26.341 200.000 C 34.242 200.000,35.490 200.354,36.736 202.945 C 37.031 203.559,37.379 203.954,37.510 203.824 C 37.873 203.460,36.282 201.506,34.804 200.500 C 33.643 199.710,32.977 199.600,29.341 199.600 L 25.200 199.600 25.200 198.080 C 25.200 197.244,25.416 196.344,25.680 196.080 C 26.479 195.281,25.529 195.545,23.016 196.819 M74.815 196.000 C 74.826 196.654,75.899 198.248,76.141 197.971 C 76.223 197.877,75.956 197.260,75.547 196.600 C 75.139 195.940,74.809 195.670,74.815 196.000 M193.622 196.200 C 193.627 196.729,194.742 198.191,194.969 197.965 C 195.066 197.868,194.802 197.341,194.382 196.794 C 193.961 196.247,193.620 195.980,193.622 196.200 M363.200 197.481 C 363.200 197.663,363.965 198.169,364.900 198.606 L 366.600 199.400 360.127 199.600 C 352.959 199.822,352.396 200.010,350.476 202.831 C 349.290 204.575,349.585 215.049,350.842 215.826 C 351.039 215.948,351.200 216.386,351.200 216.800 C 351.200 217.214,351.411 217.683,351.668 217.842 C 351.994 218.043,352.048 217.902,351.845 217.374 C 349.904 212.316,349.390 205.206,350.798 202.896 C 352.373 200.312,353.430 200.003,360.700 200.001 C 367.799 200.000,368.170 199.855,365.200 198.239 C 364.100 197.640,363.200 197.299,363.200 197.481 M37.720 206.400 C 37.720 207.610,37.795 208.105,37.887 207.500 C 37.978 206.895,37.978 205.905,37.887 205.300 C 37.795 204.695,37.720 205.190,37.720 206.400 M37.000 209.853 C 36.868 210.484,36.598 211.630,36.399 212.400 C 36.201 213.170,35.655 215.420,35.187 217.400 C 34.719 219.380,34.182 221.450,33.993 222.000 C 33.377 223.796,33.102 225.871,33.570 225.200 C 33.800 224.870,33.991 224.116,33.994 223.524 C 33.997 222.932,34.180 222.336,34.400 222.200 C 34.620 222.064,34.800 221.571,34.800 221.105 C 34.800 220.638,34.975 219.704,35.190 219.028 C 36.238 215.726,37.684 209.150,37.420 208.886 C 37.320 208.787,37.131 209.222,37.000 209.853 M352.000 218.696 C 352.000 219.273,353.455 221.963,354.437 223.200 C 354.874 223.750,354.563 222.940,353.747 221.400 C 352.043 218.186,352.000 218.119,352.000 218.696 M89.062 224.300 C 88.960 224.465,91.092 224.600,93.800 224.600 C 96.508 224.600,98.516 224.468,98.262 224.306 C 97.653 223.919,89.301 223.913,89.062 224.300 M301.732 224.310 C 301.474 224.474,303.482 224.606,306.193 224.604 C 308.905 224.602,311.040 224.465,310.938 224.300 C 310.698 223.911,302.345 223.920,301.732 224.310 M84.200 225.200 C 83.905 225.678,84.689 225.678,85.800 225.200 C 86.514 224.893,86.485 224.853,85.524 224.828 C 84.932 224.813,84.336 224.980,84.200 225.200 M101.800 225.200 C 102.911 225.678,103.695 225.678,103.400 225.200 C 103.264 224.980,102.668 224.813,102.076 224.828 C 101.115 224.853,101.086 224.893,101.800 225.200 M296.600 225.200 C 296.305 225.678,297.089 225.678,298.200 225.200 C 298.914 224.893,298.885 224.853,297.924 224.828 C 297.332 224.813,296.736 224.980,296.600 225.200 M314.600 225.200 C 315.701 225.673,316.092 225.673,315.800 225.200 C 315.664 224.980,315.158 224.813,314.676 224.828 C 313.831 224.855,313.829 224.869,314.600 225.200 M105.200 226.000 C 105.976 226.501,106.400 226.501,106.400 226.000 C 106.400 225.780,105.995 225.603,105.500 225.606 C 104.772 225.611,104.715 225.686,105.200 226.000 M293.600 226.000 C 293.600 226.501,294.024 226.501,294.800 226.000 C 295.285 225.686,295.228 225.611,294.500 225.606 C 294.005 225.603,293.600 225.780,293.600 226.000 M32.064 229.706 C 30.274 237.131,29.557 237.596,19.900 237.599 L 12.800 237.600 12.810 248.100 C 12.823 261.771,13.429 264.182,18.072 269.035 C 22.855 274.034,25.664 274.789,39.500 274.795 L 50.000 274.800 50.000 268.900 C 50.001 261.523,50.944 256.593,53.428 250.974 C 54.039 249.593,54.223 248.849,53.885 249.130 C 52.752 250.070,42.227 240.374,38.378 234.845 C 36.029 231.470,33.579 227.577,33.240 226.680 C 33.059 226.202,32.663 227.221,32.064 229.706 M357.750 227.614 C 358.312 228.282,359.363 229.304,360.086 229.885 C 360.809 230.467,360.416 229.920,359.214 228.671 C 356.831 226.196,356.133 225.692,357.750 227.614 M71.375 230.132 C 66.684 233.070,62.249 236.741,60.705 238.964 C 60.233 239.644,61.373 238.748,63.238 236.973 C 66.141 234.210,71.086 230.400,71.768 230.400 C 71.885 230.400,72.570 230.041,73.290 229.601 C 74.011 229.162,74.330 228.817,74.000 228.833 C 73.670 228.850,72.489 229.434,71.375 230.132 M114.310 229.601 C 115.030 230.041,115.715 230.400,115.832 230.400 C 116.507 230.400,121.456 234.205,124.379 236.973 C 127.719 240.135,128.167 240.155,124.988 237.000 C 121.395 233.435,114.893 228.797,113.494 228.801 C 113.222 228.802,113.589 229.162,114.310 229.601 M284.533 229.763 C 280.193 232.245,276.071 235.609,273.200 239.014 C 272.650 239.666,273.640 238.839,275.400 237.175 C 278.259 234.472,283.512 230.400,284.141 230.400 C 284.273 230.400,284.970 230.041,285.690 229.601 C 287.542 228.473,286.546 228.612,284.533 229.763 M326.557 229.324 C 331.993 232.743,334.748 234.822,337.577 237.638 C 339.468 239.521,340.390 240.268,339.673 239.337 C 338.279 237.527,334.201 233.798,331.988 232.310 C 329.501 230.637,326.395 228.799,326.094 228.824 C 325.932 228.836,326.141 229.061,326.557 229.324 M361.811 231.506 C 366.509 234.864,371.105 236.935,374.800 237.357 L 376.600 237.563 374.600 237.029 C 369.916 235.779,366.751 234.416,363.728 232.345 C 362.326 231.385,360.561 230.612,361.811 231.506 M379.300 237.897 C 380.785 237.974,383.215 237.974,384.700 237.897 C 386.185 237.820,384.970 237.757,382.000 237.757 C 379.030 237.757,377.815 237.820,379.300 237.897 M128.424 241.500 C 128.954 242.105,129.526 242.771,129.694 242.980 C 129.887 243.220,130.000 243.220,130.000 242.980 C 129.999 242.488,128.206 240.400,127.784 240.400 C 127.606 240.400,127.894 240.895,128.424 241.500 M270.905 241.508 C 270.413 242.108,270.008 242.771,270.005 242.980 C 270.002 243.220,270.113 243.220,270.306 242.980 C 270.474 242.771,271.046 242.105,271.576 241.500 C 272.106 240.895,272.373 240.403,272.170 240.408 C 271.966 240.412,271.397 240.907,270.905 241.508 M58.069 242.039 C 57.310 243.254,57.766 243.416,58.555 242.212 C 58.920 241.656,59.078 241.200,58.905 241.200 C 58.733 241.200,58.357 241.578,58.069 242.039 M341.445 242.212 C 341.810 242.769,342.186 243.147,342.282 243.051 C 342.519 242.814,341.484 241.200,341.095 241.200 C 340.922 241.200,341.080 241.656,341.445 242.212 M56.457 244.457 C 56.175 244.909,56.032 245.366,56.140 245.473 C 56.247 245.581,56.544 245.278,56.800 244.800 C 57.405 243.670,57.124 243.390,56.457 244.457 M130.400 243.847 C 130.400 244.067,130.664 244.596,130.987 245.024 C 131.310 245.451,131.575 245.620,131.575 245.400 C 131.575 245.180,131.310 244.651,130.987 244.224 C 130.664 243.796,130.400 243.627,130.400 243.847 M268.768 244.700 C 268.456 245.305,268.111 245.890,268.001 246.000 C 267.890 246.110,267.449 246.830,267.020 247.600 C 266.592 248.370,265.181 250.440,263.886 252.200 C 262.591 253.960,260.781 256.973,259.865 258.896 L 258.200 262.392 197.925 262.396 L 137.649 262.400 137.396 260.500 C 137.256 259.455,136.996 258.150,136.817 257.600 C 136.639 257.050,136.258 255.790,135.971 254.800 C 135.388 252.787,133.676 248.800,133.394 248.800 C 133.294 248.800,133.587 249.745,134.047 250.900 C 134.506 252.055,135.060 253.450,135.279 254.000 C 135.771 255.238,136.539 258.236,137.174 261.400 C 137.458 262.814,137.604 266.060,137.528 269.301 L 137.400 274.801 200.000 274.801 L 262.600 274.800 262.614 268.500 C 262.629 262.359,262.834 260.679,264.163 255.865 C 264.910 253.162,267.069 248.352,268.795 245.546 C 269.454 244.476,269.845 243.600,269.664 243.600 C 269.483 243.600,269.080 244.095,268.768 244.700 M132.256 247.188 C 132.642 247.841,133.011 248.323,133.075 248.259 C 133.288 248.045,132.206 246.006,131.877 246.003 C 131.700 246.001,131.870 246.534,132.256 247.188 M345.427 248.400 C 346.252 250.112,346.403 250.294,346.391 249.567 C 346.386 249.255,346.015 248.550,345.567 248.000 L 344.752 247.000 345.427 248.400 M347.113 252.219 C 347.484 253.220,347.852 253.843,347.932 253.604 C 348.074 253.178,346.919 250.400,346.600 250.400 C 346.511 250.400,346.742 251.219,347.113 252.219 M348.011 254.476 C 348.016 254.544,348.378 255.860,348.815 257.400 C 349.541 259.963,349.622 259.292,348.973 256.095 C 348.774 255.117,347.947 253.725,348.011 254.476 M386.688 258.133 C 386.530 258.536,386.416 259.436,386.436 260.133 L 386.472 261.400 386.858 260.060 C 387.311 258.485,387.172 256.902,386.688 258.133 M349.796 261.550 C 349.908 262.293,350.000 265.578,350.000 268.850 L 350.000 274.800 360.500 274.795 C 375.830 274.788,380.847 272.842,384.867 265.344 C 386.181 262.894,386.730 261.172,385.965 261.900 C 385.561 262.284,381.396 262.400,367.953 262.400 L 350.467 262.400 350.029 261.300 C 349.600 260.221,349.596 260.225,349.796 261.550 " stroke="none" fill="#f8ac45" fill-rule="evenodd"></path></g></svg>