<svg id="svg" version="1.1" xmlns="http://www.w3.org/2000/svg" xmlns:xlink="http://www.w3.org/1999/xlink" width="400" height="400" viewBox="0, 0, 400,400"><g id="svgg"><path id="path0" d="M225.600 13.215 C 223.902 13.774,220.481 14.616,206.000 18.035 C 204.130 18.477,201.925 19.009,201.100 19.219 C 200.275 19.429,198.835 19.795,197.900 20.033 C 196.965 20.271,195.570 20.616,194.800 20.800 C 192.408 21.371,189.853 22.038,188.572 22.427 C 187.896 22.632,187.009 22.800,186.600 22.800 C 186.191 22.800,185.304 22.968,184.628 23.173 C 183.953 23.378,182.635 23.738,181.700 23.973 C 180.765 24.208,179.280 24.609,178.400 24.864 L 176.800 25.328 176.800 50.264 L 176.800 75.200 182.400 75.200 L 188.000 75.200 188.000 54.849 L 188.000 34.497 189.100 34.065 C 189.705 33.827,191.550 33.343,193.200 32.988 C 194.850 32.634,196.830 32.194,197.600 32.011 C 199.705 31.511,202.804 30.797,204.600 30.399 C 205.480 30.203,207.010 29.844,208.000 29.600 C 208.990 29.356,210.520 28.996,211.400 28.800 C 212.280 28.604,213.810 28.244,214.800 28.000 C 215.790 27.756,217.320 27.396,218.200 27.200 C 219.080 27.004,220.520 26.662,221.400 26.440 C 222.280 26.218,223.540 25.929,224.200 25.799 C 231.323 24.393,233.552 23.304,234.584 20.724 C 236.701 15.433,231.658 11.218,225.600 13.215 M111.702 97.128 C 111.428 97.302,110.739 98.965,110.169 100.822 C 109.600 102.680,108.769 105.370,108.324 106.800 C 107.878 108.230,107.422 109.895,107.311 110.500 L 107.109 111.600 182.597 111.600 C 246.973 111.600,258.054 111.518,257.872 111.043 C 257.754 110.736,256.940 108.171,256.063 105.343 C 255.185 102.514,254.227 99.480,253.932 98.600 L 253.397 97.000 182.798 96.905 C 143.969 96.854,111.976 96.954,111.702 97.128 M89.479 123.900 C 89.386 124.065,88.720 126.090,87.999 128.400 C 87.278 130.710,86.255 133.933,85.726 135.562 C 85.197 137.191,84.916 138.676,85.103 138.863 C 85.289 139.049,129.172 139.156,182.621 139.101 L 279.800 139.000 279.695 137.965 C 279.637 137.396,278.902 134.786,278.061 132.165 C 277.220 129.544,276.283 126.545,275.979 125.500 L 275.425 123.600 182.536 123.600 C 131.447 123.600,89.571 123.735,89.479 123.900 M117.689 168.500 L 117.800 174.200 148.400 174.200 L 179.000 174.200 179.111 168.500 L 179.222 162.800 148.400 162.800 L 117.578 162.800 117.689 168.500 M191.392 163.700 C 191.269 164.195,191.220 166.760,191.284 169.400 L 191.400 174.200 198.200 174.314 C 207.638 174.472,206.800 174.988,206.800 169.025 C 206.800 162.157,207.609 162.800,198.965 162.800 C 191.676 162.800,191.613 162.807,191.392 163.700 M368.400 192.789 L 368.400 219.600 374.003 219.600 L 379.606 219.600 379.503 192.900 L 379.400 166.200 373.900 166.089 L 368.400 165.977 368.400 192.789 M250.988 175.289 C 250.880 175.570,250.839 185.610,250.896 197.600 L 251.000 219.400 256.703 219.511 L 262.407 219.622 262.303 197.311 L 262.200 175.000 256.692 174.889 C 252.506 174.804,251.137 174.900,250.988 175.289 M297.878 175.056 C 297.484 175.449,297.543 265.691,297.937 266.312 C 298.181 266.696,299.565 266.797,303.431 266.712 L 308.600 266.600 308.600 220.800 L 308.600 175.000 303.378 174.889 C 300.505 174.828,298.030 174.903,297.878 175.056 M274.577 192.516 C 274.057 193.871,274.600 240.600,275.150 241.800 C 275.803 243.226,276.155 244.121,276.800 246.000 C 277.064 246.770,277.434 247.760,277.620 248.200 C 277.807 248.640,278.229 249.810,278.558 250.800 C 279.712 254.275,280.672 256.805,280.935 257.068 C 281.081 257.214,281.200 257.666,281.200 258.072 C 281.200 258.478,281.372 259.123,281.581 259.505 C 281.791 259.887,282.472 261.640,283.094 263.400 C 283.715 265.160,284.399 266.555,284.612 266.500 C 284.859 266.436,285.000 252.923,285.000 229.300 L 285.000 192.200 279.892 192.088 C 275.894 192.000,274.739 192.093,274.577 192.516 M321.467 192.267 C 321.320 192.413,321.200 209.248,321.200 229.678 L 321.200 266.823 326.700 266.711 L 332.200 266.600 332.302 229.625 C 332.383 200.309,332.300 192.584,331.902 192.331 C 331.296 191.946,321.845 191.888,321.467 192.267 M344.800 223.255 C 344.800 240.458,344.926 254.407,345.080 254.253 C 345.234 254.099,345.665 253.034,346.037 251.886 C 346.410 250.739,347.375 248.000,348.182 245.800 C 348.989 243.600,349.984 240.810,350.393 239.600 C 350.802 238.390,351.703 235.870,352.394 234.000 C 353.085 232.130,354.134 229.250,354.725 227.600 L 355.800 224.600 355.800 208.400 L 355.800 192.200 350.300 192.089 L 344.800 191.977 344.800 223.255 M74.600 242.023 C 70.335 242.936,68.757 243.342,65.800 244.291 C 49.605 249.485,35.723 262.986,30.315 278.800 C 29.021 282.583,27.600 288.758,27.600 290.596 L 27.600 292.000 111.036 292.000 L 194.471 292.000 194.272 289.700 C 193.999 286.546,192.921 281.810,191.699 278.400 C 185.077 259.916,168.504 246.182,148.000 242.185 C 144.590 241.520,77.639 241.372,74.600 242.023 M269.764 313.500 C 270.035 315.015,270.505 319.037,271.226 326.000 C 271.442 328.090,271.799 331.420,272.019 333.400 C 272.239 335.380,272.590 338.620,272.800 340.600 C 273.153 343.929,273.361 345.845,274.388 355.200 C 274.593 357.070,274.884 359.815,275.035 361.300 L 275.310 364.000 312.408 364.000 L 349.507 364.000 349.748 363.100 C 349.881 362.605,349.992 361.424,349.995 360.477 C 349.998 359.529,350.167 357.549,350.372 356.077 C 350.576 354.604,350.942 351.510,351.184 349.200 C 351.427 346.890,352.064 340.950,352.601 336.000 C 353.137 331.050,353.857 324.300,354.200 321.000 C 354.542 317.700,354.931 314.325,355.063 313.500 L 355.302 312.000 312.399 312.000 L 269.495 312.000 269.764 313.500 M110.700 313.100 C 15.560 313.198,12.000 313.228,12.000 313.930 C 12.000 317.054,15.606 321.796,18.683 322.718 C 21.985 323.707,202.020 323.383,204.145 322.384 C 206.402 321.323,208.115 319.620,209.160 317.396 C 209.966 315.682,210.325 312.693,209.700 312.899 C 209.535 312.954,164.985 313.044,110.700 313.100 M63.608 345.300 C 63.613 345.575,64.738 346.549,66.108 347.465 C 67.479 348.381,71.030 350.864,74.000 352.982 C 80.927 357.922,86.305 361.600,86.603 361.600 C 87.033 361.600,92.800 357.579,92.787 357.288 C 92.775 357.005,91.201 355.866,82.826 350.081 C 80.502 348.476,78.086 346.766,77.457 346.281 C 75.544 344.807,63.586 343.959,63.608 345.300 M121.143 345.147 C 118.102 345.874,117.006 347.795,118.905 349.069 C 119.617 349.547,121.280 350.707,122.600 351.647 C 137.117 361.982,137.644 362.310,138.067 361.272 C 138.140 361.092,139.370 360.156,140.800 359.192 C 142.230 358.228,143.580 357.286,143.800 357.099 C 144.020 356.913,146.270 355.317,148.800 353.552 C 151.330 351.788,153.850 350.004,154.400 349.589 C 154.950 349.173,156.433 348.150,157.697 347.316 C 158.960 346.482,159.995 345.575,159.997 345.300 C 160.000 344.766,123.342 344.622,121.143 345.147 M109.200 361.062 C 108.870 361.194,107.700 361.970,106.600 362.785 C 104.169 364.589,95.754 370.542,93.000 372.407 C 91.900 373.152,90.762 373.995,90.472 374.281 C 90.181 374.566,89.154 375.262,88.190 375.827 L 86.437 376.855 83.970 375.127 C 81.168 373.165,77.054 370.233,74.400 368.306 L 72.600 367.000 50.400 367.000 L 28.200 367.000 28.303 368.311 C 28.881 375.665,38.113 384.483,47.920 387.046 C 51.905 388.088,171.102 387.845,175.049 386.787 C 184.011 384.385,190.956 377.651,193.911 368.499 C 194.497 366.686,195.406 366.752,171.800 366.884 L 151.000 367.000 149.600 368.000 C 148.830 368.550,148.110 369.105,148.000 369.232 C 147.890 369.360,146.450 370.394,144.800 371.529 C 143.150 372.665,140.751 374.333,139.468 375.235 L 137.137 376.876 135.403 375.738 C 133.097 374.224,127.503 370.333,127.000 369.893 C 126.780 369.700,124.616 368.161,122.192 366.471 C 119.768 364.782,117.091 362.867,116.244 362.216 C 114.702 361.031,110.852 360.400,109.200 361.062 " stroke="none" fill="#ebd492" fill-rule="evenodd"></path><path id="path1" d="M98.969 151.338 C 98.717 151.994,99.535 166.762,100.768 183.800 C 101.257 190.565,101.830 198.853,102.387 207.200 C 102.779 213.092,103.206 218.618,103.828 225.853 L 104.107 229.107 124.954 229.307 C 138.573 229.438,146.632 229.671,148.200 229.980 C 170.948 234.464,186.883 245.213,197.701 263.374 C 202.211 270.945,205.837 281.598,206.602 289.527 C 206.935 292.974,206.975 293.038,209.523 294.205 C 215.431 296.910,219.228 301.528,221.546 308.828 C 222.718 312.517,221.615 320.635,219.531 323.662 C 219.129 324.246,218.800 324.895,218.800 325.105 C 218.800 325.315,218.080 326.305,217.200 327.305 C 215.255 329.514,215.255 329.387,217.211 331.586 C 218.085 332.568,218.800 333.530,218.800 333.724 C 218.800 333.918,219.129 334.554,219.531 335.138 C 221.516 338.021,222.783 346.754,221.642 349.681 C 221.445 350.187,221.042 351.408,220.746 352.395 C 219.344 357.084,214.921 361.957,209.682 364.586 C 207.401 365.731,206.760 366.252,206.575 367.114 C 206.447 367.711,206.154 369.100,205.922 370.200 C 205.486 372.276,205.335 372.732,204.202 375.400 C 200.979 382.988,196.208 388.787,189.502 393.270 C 188.678 393.820,188.123 394.390,188.269 394.535 C 188.881 395.147,242.800 394.832,242.800 394.216 C 242.800 393.895,242.621 392.320,242.401 390.716 C 242.182 389.112,241.369 381.770,240.594 374.400 C 239.819 367.030,239.017 359.560,238.811 357.800 C 238.606 356.040,238.249 352.845,238.019 350.700 C 237.788 348.555,237.412 345.045,237.181 342.900 C 236.951 340.755,236.598 337.560,236.396 335.800 C 236.195 334.040,235.840 330.710,235.608 328.400 C 235.184 324.182,234.697 319.746,234.004 313.800 C 233.799 312.040,233.438 308.710,233.201 306.400 C 232.965 304.090,232.603 300.760,232.397 299.000 C 231.934 295.029,231.369 289.884,230.795 284.400 C 230.553 282.090,230.192 278.850,229.993 277.200 C 229.793 275.550,229.519 273.030,229.382 271.600 C 229.246 270.170,228.963 267.470,228.754 265.600 C 227.931 258.236,227.604 255.249,227.223 251.600 C 226.447 244.156,226.006 240.133,225.431 235.270 C 224.648 228.646,224.044 229.200,232.043 229.200 L 238.800 229.200 238.806 196.300 C 238.809 178.205,238.954 163.177,239.127 162.905 C 239.367 162.527,243.328 162.384,255.821 162.305 L 272.200 162.200 272.489 159.200 C 272.648 157.550,272.888 155.283,273.023 154.163 C 273.216 152.566,273.126 151.983,272.606 151.463 C 271.692 150.549,99.319 150.425,98.969 151.338 M179.111 168.500 L 179.000 174.200 148.400 174.200 L 117.800 174.200 117.689 168.500 L 117.578 162.800 148.400 162.800 L 179.222 162.800 179.111 168.500 M206.557 163.433 C 206.691 163.781,206.800 166.297,206.800 169.025 C 206.800 174.988,207.638 174.472,198.200 174.314 L 191.400 174.200 191.284 169.400 C 191.108 162.107,190.301 162.800,198.965 162.800 C 205.298 162.800,206.348 162.888,206.557 163.433 " stroke="none" fill="#26d6e2" fill-rule="evenodd"></path><path id="path2" d="M228.505 12.687 C 229.114 12.779,230.014 12.777,230.505 12.682 C 230.997 12.587,230.500 12.511,229.400 12.514 C 228.300 12.517,227.897 12.595,228.505 12.687 M176.800 80.000 L 176.800 84.800 182.400 84.800 L 188.000 84.800 188.000 80.000 L 188.000 75.200 182.400 75.200 L 176.800 75.200 176.800 80.000 M368.196 197.600 L 368.200 229.000 373.900 229.111 L 379.600 229.222 379.600 224.411 L 379.600 219.600 374.003 219.600 L 368.406 219.600 368.299 192.900 C 368.198 167.827,368.192 168.114,368.196 197.600 M251.060 174.700 C 250.958 174.865,252.522 174.952,254.537 174.893 C 261.153 174.701,261.887 174.545,256.524 174.472 C 253.622 174.432,251.163 174.535,251.060 174.700 M297.861 174.700 C 297.759 174.865,300.133 175.000,303.138 175.000 L 308.600 175.000 308.600 220.800 L 308.600 266.600 303.431 266.712 C 299.565 266.797,298.181 266.696,297.937 266.312 C 297.759 266.031,297.609 268.185,297.606 271.100 L 297.600 276.400 303.157 276.400 C 307.856 276.400,308.752 276.302,308.957 275.767 C 309.462 274.452,309.229 175.389,308.720 174.880 C 308.185 174.345,298.184 174.179,297.861 174.700 M285.000 229.138 C 285.000 253.486,284.863 266.248,284.600 266.340 C 284.380 266.417,283.697 265.067,283.081 263.340 C 282.466 261.613,281.791 259.887,281.581 259.505 C 281.372 259.123,281.200 258.478,281.200 258.072 C 281.200 257.666,281.081 257.214,280.935 257.068 C 280.672 256.805,279.712 254.275,278.558 250.800 C 278.229 249.810,277.807 248.640,277.620 248.200 C 277.434 247.760,277.064 246.770,276.800 246.000 C 276.536 245.230,276.176 244.240,276.000 243.800 C 275.440 242.397,274.850 240.625,274.669 239.800 C 274.572 239.360,274.472 245.411,274.446 253.247 C 274.403 266.474,274.456 267.633,275.176 269.447 C 275.603 270.521,276.347 272.525,276.830 273.900 L 277.707 276.400 281.411 276.400 C 284.419 276.400,285.160 276.281,285.357 275.767 C 285.712 274.844,285.655 192.481,285.300 192.262 C 285.135 192.160,285.000 208.754,285.000 229.138 M250.888 224.200 L 251.000 229.000 255.854 229.112 L 260.708 229.224 261.541 231.112 L 262.374 233.000 262.387 226.321 L 262.400 219.641 256.588 219.521 L 250.776 219.400 250.888 224.200 M355.695 224.129 C 355.585 224.972,354.203 229.105,352.394 234.000 C 351.703 235.870,350.802 238.390,350.393 239.600 C 349.984 240.810,348.989 243.600,348.182 245.800 C 347.375 248.000,346.410 250.739,346.037 251.886 C 345.665 253.034,345.234 254.099,345.080 254.253 C 344.926 254.407,344.800 259.465,344.800 265.492 L 344.800 276.451 346.084 276.325 C 347.293 276.207,347.429 276.026,348.420 273.200 C 348.999 271.550,349.579 269.930,349.709 269.600 C 349.840 269.270,350.576 267.200,351.345 265.000 C 352.114 262.800,353.479 258.952,354.377 256.449 L 356.010 251.897 355.900 237.649 C 355.839 229.812,355.747 223.728,355.695 224.129 M238.565 244.100 C 238.877 246.928,239.377 251.527,240.012 257.400 C 240.250 259.600,240.613 262.930,240.819 264.800 C 241.025 266.670,241.377 269.910,241.600 272.000 C 241.823 274.090,242.170 277.330,242.370 279.200 C 242.570 281.070,242.845 283.590,242.982 284.800 C 243.118 286.010,243.411 288.710,243.634 290.800 C 243.856 292.890,244.201 296.040,244.400 297.800 C 245.575 308.175,247.533 326.047,248.191 332.400 C 248.522 335.590,248.977 339.820,249.202 341.800 C 249.427 343.780,249.784 347.110,249.994 349.200 C 250.358 352.806,250.703 355.989,251.621 364.200 C 251.843 366.180,252.209 369.510,252.434 371.600 C 252.660 373.690,253.015 376.930,253.224 378.800 C 253.433 380.670,253.717 383.415,253.856 384.900 L 254.107 387.600 312.454 387.600 C 362.295 387.600,370.800 387.518,370.800 387.038 C 370.800 386.729,371.074 384.129,371.408 381.260 C 371.742 378.392,372.379 372.660,372.823 368.522 C 373.267 364.385,373.809 359.380,374.027 357.400 C 374.245 355.420,374.593 352.180,374.800 350.200 C 375.007 348.220,375.361 344.935,375.588 342.900 C 375.815 340.865,376.185 337.535,376.412 335.500 C 376.639 333.465,377.009 330.090,377.234 328.000 C 377.460 325.910,377.804 322.760,378.000 321.000 C 378.196 319.240,378.546 316.045,378.778 313.900 C 379.010 311.755,379.390 308.245,379.622 306.100 C 379.854 303.955,380.213 300.670,380.419 298.800 C 380.625 296.930,380.972 293.690,381.190 291.600 C 381.836 285.417,381.995 283.965,382.399 280.600 C 382.611 278.840,382.972 275.600,383.203 273.400 C 383.644 269.179,384.139 264.685,384.799 258.900 C 385.019 256.975,385.474 252.700,385.810 249.400 C 386.146 246.100,386.510 242.995,386.618 242.500 L 386.815 241.600 379.626 241.600 L 372.438 241.600 372.055 242.900 C 371.637 244.321,369.742 249.720,369.212 251.000 C 369.030 251.440,368.693 252.340,368.464 253.000 C 367.169 256.724,361.839 271.703,361.205 273.400 C 360.794 274.500,360.227 276.120,359.945 277.000 C 359.664 277.880,359.323 278.780,359.189 279.000 C 359.054 279.220,358.699 280.210,358.400 281.200 C 358.101 282.190,357.741 283.180,357.600 283.400 C 357.459 283.620,357.099 284.610,356.800 285.600 C 356.501 286.590,356.086 287.626,355.877 287.902 C 355.577 288.300,346.566 288.383,312.287 288.302 L 269.075 288.200 268.134 285.600 C 267.616 284.170,266.822 281.920,266.370 280.600 C 265.918 279.280,265.397 277.840,265.214 277.400 C 265.031 276.960,264.664 275.970,264.400 275.200 C 264.136 274.430,263.766 273.440,263.580 273.000 C 263.393 272.560,262.973 271.390,262.645 270.400 C 261.717 267.593,259.979 262.684,259.600 261.800 C 259.411 261.360,258.781 259.650,258.200 258.000 C 255.876 251.404,252.862 242.961,252.596 242.300 C 252.343 241.671,251.606 241.600,245.302 241.600 L 238.289 241.600 238.565 244.100 M326.700 266.699 L 321.200 266.823 321.200 271.611 L 321.200 276.400 326.800 276.400 L 332.400 276.400 332.400 271.400 C 332.400 268.650,332.355 266.439,332.300 266.488 C 332.245 266.536,329.725 266.631,326.700 266.699 M368.800 301.023 C 368.800 301.586,368.628 303.251,368.418 304.723 C 368.208 306.195,367.847 309.200,367.616 311.400 C 366.819 318.982,366.379 323.009,365.999 326.200 C 365.789 327.960,365.347 332.010,365.016 335.200 C 364.110 343.920,362.067 362.942,361.622 366.800 C 361.406 368.670,361.113 371.370,360.970 372.800 C 360.828 374.230,360.529 375.625,360.306 375.900 C 359.987 376.295,349.919 376.400,312.400 376.400 C 274.878 376.400,264.814 376.295,264.499 375.900 C 264.279 375.625,263.989 374.050,263.854 372.400 C 263.720 370.750,263.429 367.780,263.208 365.800 C 262.987 363.820,262.623 360.490,262.400 358.400 C 262.177 356.310,261.825 353.070,261.619 351.200 C 261.413 349.330,261.054 346.045,260.822 343.900 C 260.590 341.755,260.210 338.245,259.978 336.100 C 259.746 333.955,259.396 330.760,259.200 329.000 C 259.004 327.240,258.666 324.090,258.448 322.000 C 258.230 319.910,257.841 316.310,257.583 314.000 C 256.423 303.599,256.137 300.580,256.287 300.300 C 256.375 300.135,281.727 300.000,312.624 300.000 L 368.800 300.000 368.800 301.023 M19.000 335.883 C 10.022 338.016,10.105 351.881,19.110 354.382 C 20.736 354.833,54.082 354.985,54.524 354.543 C 54.666 354.401,53.301 353.267,51.491 352.022 C 49.681 350.777,45.950 348.161,43.200 346.208 C 40.450 344.256,36.760 341.645,35.000 340.407 C 33.240 339.169,31.008 337.581,30.040 336.878 C 28.301 335.615,22.375 335.081,19.000 335.883 M49.600 335.761 C 49.600 335.919,60.330 343.591,62.500 344.985 C 63.153 345.405,63.600 345.511,63.600 345.246 C 63.600 344.938,65.298 344.812,69.100 344.840 C 75.152 344.884,75.786 344.993,77.457 346.281 C 78.086 346.766,80.502 348.476,82.826 350.081 C 91.806 356.284,92.773 357.015,92.612 357.474 C 92.520 357.735,94.280 356.642,96.522 355.046 C 101.452 351.537,101.444 351.622,97.155 348.615 C 95.261 347.287,91.423 344.580,88.627 342.600 C 85.831 340.620,82.433 338.235,81.077 337.300 L 78.611 335.600 64.106 335.600 C 56.127 335.600,49.600 335.673,49.600 335.761 M100.400 335.920 C 100.400 336.096,102.065 337.382,104.100 338.777 C 106.135 340.173,108.700 341.974,109.800 342.781 C 115.675 347.089,117.600 348.341,117.600 347.854 C 117.600 347.151,119.804 345.467,121.143 345.147 C 123.149 344.668,160.000 344.761,160.000 345.246 C 160.000 345.511,160.447 345.405,161.100 344.985 C 163.270 343.591,174.000 335.919,174.000 335.761 C 174.000 335.673,157.440 335.600,137.200 335.600 C 116.960 335.600,100.400 335.744,100.400 335.920 M191.600 338.236 C 189.510 339.724,186.900 341.599,185.800 342.402 C 182.553 344.773,177.213 348.527,172.040 352.075 C 167.746 355.020,166.847 354.855,186.433 354.717 L 203.000 354.600 204.858 353.508 C 214.231 347.998,210.587 336.097,199.400 335.679 L 195.400 335.530 191.600 338.236 M110.188 360.134 L 108.976 361.000 111.671 361.000 L 114.366 361.000 113.321 360.100 C 112.061 359.015,111.750 359.019,110.188 360.134 " stroke="none" fill="#f0531b" fill-rule="evenodd"></path><path id="path3" d="M224.200 0.272 C 223.320 0.372,222.429 0.621,222.220 0.827 C 222.011 1.032,221.257 1.200,220.544 1.200 C 219.831 1.200,219.136 1.380,219.000 1.600 C 218.864 1.820,218.054 2.000,217.200 2.000 C 216.346 2.000,215.536 2.180,215.400 2.400 C 215.264 2.620,214.544 2.800,213.800 2.800 C 213.056 2.800,212.336 2.980,212.200 3.200 C 212.064 3.420,211.333 3.600,210.576 3.600 C 209.819 3.600,209.200 3.780,209.200 4.000 C 209.200 4.220,208.480 4.400,207.600 4.400 C 206.720 4.400,206.000 4.580,206.000 4.800 C 206.000 5.020,205.280 5.200,204.400 5.200 C 203.520 5.200,202.800 5.380,202.800 5.600 C 202.800 5.820,202.080 6.000,201.200 6.000 C 200.320 6.000,199.600 6.180,199.600 6.400 C 199.600 6.620,198.880 6.800,198.000 6.800 C 197.120 6.800,196.400 6.980,196.400 7.200 C 196.400 7.420,195.680 7.600,194.800 7.600 C 193.920 7.600,193.200 7.762,193.200 7.959 C 193.200 8.157,191.939 8.445,190.398 8.600 C 188.858 8.755,187.497 9.043,187.375 9.241 C 187.253 9.438,186.454 9.600,185.600 9.600 C 184.746 9.600,183.936 9.780,183.800 10.000 C 183.664 10.220,182.944 10.400,182.200 10.400 C 181.456 10.400,180.736 10.580,180.600 10.800 C 180.464 11.020,179.744 11.200,179.000 11.200 C 178.256 11.200,177.536 11.380,177.400 11.600 C 177.264 11.820,176.443 12.000,175.576 12.000 C 174.709 12.000,174.000 12.180,174.000 12.400 C 174.000 12.620,173.280 12.800,172.400 12.800 C 171.520 12.800,170.800 12.980,170.800 13.200 C 170.800 13.420,170.080 13.600,169.200 13.600 C 168.320 13.600,167.600 13.780,167.600 14.000 C 167.600 14.220,166.957 14.400,166.171 14.400 C 163.424 14.400,163.600 11.981,163.600 49.771 L 163.600 84.000 132.800 84.000 C 105.566 84.000,102.000 84.070,102.000 84.605 C 102.000 84.938,101.842 85.523,101.649 85.905 C 101.060 87.072,100.400 89.408,100.400 90.328 C 100.400 90.808,100.220 91.200,100.000 91.200 C 99.780 91.200,99.600 91.639,99.600 92.176 C 99.600 92.713,99.420 93.264,99.200 93.400 C 98.980 93.536,98.800 94.087,98.800 94.624 C 98.800 95.161,98.620 95.600,98.400 95.600 C 98.180 95.600,98.000 96.140,98.000 96.800 C 98.000 97.460,97.820 98.000,97.600 98.000 C 97.380 98.000,97.200 98.540,97.200 99.200 C 97.200 99.860,97.020 100.400,96.800 100.400 C 96.580 100.400,96.400 100.940,96.400 101.600 C 96.400 102.260,96.220 102.800,96.000 102.800 C 95.780 102.800,95.600 103.340,95.600 104.000 C 95.600 104.660,95.420 105.200,95.200 105.200 C 94.980 105.200,94.800 105.704,94.800 106.320 C 94.800 106.936,94.635 107.611,94.434 107.820 C 94.232 108.029,94.007 108.650,93.934 109.200 L 93.800 110.200 87.276 110.400 C 80.180 110.618,79.234 110.978,79.209 113.476 C 79.204 113.958,79.020 114.464,78.800 114.600 C 78.580 114.736,78.400 115.366,78.400 116.000 C 78.400 116.634,78.220 117.264,78.000 117.400 C 77.780 117.536,77.600 118.177,77.600 118.824 C 77.600 119.471,77.420 120.000,77.200 120.000 C 76.980 120.000,76.800 120.452,76.800 121.005 C 76.800 121.558,76.637 122.323,76.437 122.705 C 75.902 123.728,74.800 127.578,74.800 128.422 C 74.800 128.824,74.620 129.264,74.400 129.400 C 74.180 129.536,74.000 130.166,74.000 130.800 C 74.000 131.434,73.820 132.064,73.600 132.200 C 73.380 132.336,73.200 132.977,73.200 133.624 C 73.200 134.271,73.020 134.800,72.800 134.800 C 72.580 134.800,72.400 135.340,72.400 136.000 C 72.400 136.660,72.220 137.200,72.000 137.200 C 71.780 137.200,71.600 137.740,71.600 138.400 C 71.600 139.060,71.420 139.600,71.200 139.600 C 70.980 139.600,70.800 140.140,70.800 140.800 C 70.800 141.460,70.620 142.000,70.400 142.000 C 70.180 142.000,70.000 142.529,70.000 143.176 C 70.000 143.823,69.820 144.464,69.600 144.600 C 69.380 144.736,69.200 145.377,69.200 146.024 C 69.200 146.671,69.020 147.200,68.800 147.200 C 68.580 147.200,68.400 147.740,68.400 148.400 C 68.400 149.060,68.220 149.600,68.000 149.600 C 67.780 149.600,67.600 150.140,67.600 150.800 L 67.600 152.000 77.000 152.000 L 86.400 152.000 86.400 157.400 C 86.400 160.733,86.553 162.800,86.800 162.800 C 87.048 162.800,87.200 165.000,87.200 168.600 C 87.200 172.200,87.352 174.400,87.600 174.400 C 87.848 174.400,88.000 176.533,88.000 180.000 C 88.000 183.467,88.152 185.600,88.400 185.600 C 88.648 185.600,88.800 187.725,88.800 191.176 C 88.800 194.463,88.964 196.854,89.200 197.000 C 89.435 197.145,89.600 199.471,89.600 202.624 C 89.600 205.941,89.753 208.000,90.000 208.000 C 90.248 208.000,90.400 210.200,90.400 213.800 C 90.400 217.400,90.552 219.600,90.800 219.600 C 91.042 219.600,91.200 221.333,91.200 224.000 L 91.200 228.400 84.424 228.400 C 80.337 228.400,77.549 228.559,77.400 228.800 C 77.264 229.020,75.914 229.200,74.400 229.200 C 72.886 229.200,71.536 229.380,71.400 229.600 C 71.264 229.820,70.353 230.000,69.376 230.000 C 68.399 230.000,67.600 230.180,67.600 230.400 C 67.600 230.620,66.880 230.800,66.000 230.800 C 65.120 230.800,64.400 230.980,64.400 231.200 C 64.400 231.420,63.860 231.600,63.200 231.600 C 62.540 231.600,62.000 231.780,62.000 232.000 C 62.000 232.220,61.561 232.400,61.024 232.400 C 60.487 232.400,59.936 232.580,59.800 232.800 C 59.664 233.020,59.113 233.200,58.576 233.200 C 58.039 233.200,57.600 233.380,57.600 233.600 C 57.600 233.820,57.240 234.000,56.800 234.000 C 56.360 234.000,56.000 234.180,56.000 234.400 C 56.000 234.620,55.561 234.800,55.024 234.800 C 54.487 234.800,53.936 234.980,53.800 235.200 C 53.664 235.420,53.203 235.600,52.776 235.600 C 52.349 235.600,52.000 235.780,52.000 236.000 C 52.000 236.220,51.680 236.400,51.288 236.400 C 50.897 236.400,50.317 236.760,50.000 237.200 C 49.683 237.640,49.103 238.000,48.712 238.000 C 48.320 238.000,48.000 238.180,48.000 238.400 C 48.000 238.620,47.640 238.800,47.200 238.800 C 46.760 238.800,46.400 238.950,46.400 239.132 C 46.400 239.315,45.905 239.719,45.300 240.030 C 44.695 240.340,43.909 240.911,43.553 241.297 C 43.197 241.684,42.710 242.000,42.471 242.000 C 42.232 242.000,41.623 242.409,41.118 242.909 C 40.613 243.408,39.570 244.259,38.800 244.799 C 37.078 246.006,30.000 253.122,30.000 253.647 C 30.000 253.856,29.370 254.657,28.600 255.427 C 27.830 256.197,27.200 256.988,27.200 257.185 C 27.200 257.382,26.975 257.781,26.699 258.071 C 25.886 258.930,24.000 261.949,24.000 262.391 C 24.000 262.616,23.820 262.800,23.600 262.800 C 23.380 262.800,23.200 263.160,23.200 263.600 C 23.200 264.040,23.020 264.400,22.800 264.400 C 22.580 264.400,22.400 264.760,22.400 265.200 C 22.400 265.640,22.220 266.000,22.000 266.000 C 21.780 266.000,21.600 266.360,21.600 266.800 C 21.600 267.240,21.420 267.600,21.200 267.600 C 20.980 267.600,20.800 267.960,20.800 268.400 C 20.800 268.840,20.620 269.200,20.400 269.200 C 20.180 269.200,20.000 269.560,20.000 270.000 C 20.000 270.440,19.820 270.800,19.600 270.800 C 19.380 270.800,19.200 271.340,19.200 272.000 C 19.200 272.660,19.020 273.200,18.800 273.200 C 18.580 273.200,18.400 273.549,18.400 273.976 C 18.400 274.403,18.220 274.864,18.000 275.000 C 17.780 275.136,17.600 275.777,17.600 276.424 C 17.600 277.071,17.420 277.600,17.200 277.600 C 16.980 277.600,16.800 278.140,16.800 278.800 C 16.800 279.460,16.638 280.000,16.440 280.000 C 16.099 280.000,15.870 281.221,15.352 285.800 C 15.228 286.900,14.963 287.971,14.763 288.180 C 14.563 288.389,14.400 289.384,14.400 290.392 L 14.400 292.223 11.626 293.532 C 8.947 294.795,3.600 299.351,3.600 300.369 C 3.600 300.606,3.420 300.800,3.200 300.800 C 2.980 300.800,2.800 301.070,2.800 301.400 C 2.800 301.730,2.620 302.000,2.400 302.000 C 2.180 302.000,2.000 302.360,2.000 302.800 C 2.000 303.240,1.820 303.600,1.600 303.600 C 1.380 303.600,1.200 303.945,1.200 304.367 C 1.200 304.788,0.975 305.208,0.700 305.300 C 0.322 305.426,0.200 307.431,0.200 313.513 C 0.200 319.417,0.333 321.693,0.700 322.060 C 0.975 322.335,1.200 322.884,1.200 323.280 C 1.200 323.676,1.380 324.000,1.600 324.000 C 1.820 324.000,2.000 324.270,2.000 324.600 C 2.000 324.930,2.180 325.200,2.400 325.200 C 2.620 325.200,2.800 325.488,2.800 325.840 C 2.800 326.191,3.340 326.983,4.000 327.600 C 5.125 328.651,5.612 330.000,4.868 330.000 C 4.685 330.000,4.280 330.495,3.968 331.100 C 3.655 331.705,3.085 332.549,2.700 332.975 C 2.315 333.402,2.000 333.987,2.000 334.275 C 2.000 334.564,1.820 334.800,1.600 334.800 C 1.380 334.800,1.200 335.124,1.200 335.520 C 1.200 335.916,0.975 336.465,0.700 336.740 C 0.333 337.107,0.200 339.383,0.200 345.287 C 0.200 351.369,0.322 353.374,0.700 353.500 C 0.975 353.592,1.200 354.012,1.200 354.433 C 1.200 354.855,1.380 355.200,1.600 355.200 C 1.820 355.200,2.000 355.560,2.000 356.000 C 2.000 356.440,2.180 356.800,2.400 356.800 C 2.620 356.800,2.800 356.983,2.800 357.206 C 2.800 357.622,8.606 363.600,9.010 363.600 C 9.133 363.600,9.620 363.960,10.092 364.400 C 10.564 364.840,11.277 365.200,11.675 365.200 C 12.074 365.200,12.400 365.380,12.400 365.600 C 12.400 365.820,12.850 366.000,13.400 366.000 C 14.194 366.000,14.400 366.202,14.400 366.976 C 14.400 367.513,14.580 368.064,14.800 368.200 C 15.020 368.336,15.200 369.157,15.200 370.024 C 15.200 370.891,15.380 371.600,15.600 371.600 C 15.820 371.600,16.000 372.129,16.000 372.776 C 16.000 373.423,16.180 374.064,16.400 374.200 C 16.620 374.336,16.800 374.797,16.800 375.224 C 16.800 375.651,16.980 376.000,17.200 376.000 C 17.420 376.000,17.600 376.360,17.600 376.800 C 17.600 377.240,17.780 377.600,18.000 377.600 C 18.220 377.600,18.400 378.016,18.400 378.525 C 18.400 379.033,18.760 379.836,19.200 380.308 C 19.640 380.780,20.000 381.404,20.000 381.695 C 20.000 381.986,20.360 382.483,20.800 382.800 C 21.240 383.117,21.600 383.610,21.600 383.895 C 21.600 384.591,29.255 392.396,29.940 392.398 C 30.236 392.399,30.983 392.940,31.600 393.600 C 32.217 394.260,33.009 394.800,33.360 394.800 C 33.712 394.800,34.000 394.980,34.000 395.200 C 34.000 395.420,34.360 395.600,34.800 395.600 C 35.240 395.600,35.600 395.780,35.600 396.000 C 35.600 396.220,35.960 396.400,36.400 396.400 C 36.840 396.400,37.200 396.580,37.200 396.800 C 37.200 397.020,37.560 397.200,38.000 397.200 C 38.440 397.200,38.800 397.380,38.800 397.600 C 38.800 397.820,39.329 398.000,39.976 398.000 C 40.623 398.000,41.264 398.180,41.400 398.400 C 41.536 398.620,42.141 398.800,42.744 398.800 C 43.347 398.800,44.065 399.025,44.340 399.300 C 45.074 400.034,177.255 400.034,177.500 399.300 C 177.596 399.013,178.336 398.800,179.233 398.800 C 180.095 398.800,180.800 398.620,180.800 398.400 C 180.800 398.180,181.340 398.000,182.000 398.000 C 182.660 398.000,183.200 397.820,183.200 397.600 C 183.200 397.380,183.560 397.200,184.000 397.200 C 184.440 397.200,184.800 397.020,184.800 396.800 C 184.800 396.580,185.160 396.400,185.600 396.400 C 186.040 396.400,186.400 396.220,186.400 396.000 C 186.400 395.780,186.772 395.600,187.227 395.600 C 187.873 395.600,187.998 395.424,187.799 394.798 C 187.621 394.236,187.763 393.914,188.272 393.721 C 194.830 391.239,203.490 379.216,205.789 369.400 L 206.633 365.800 209.458 364.400 C 219.186 359.579,223.917 348.996,220.822 338.977 C 219.988 336.277,217.739 332.145,216.580 331.183 C 215.133 329.983,215.122 329.290,216.523 327.711 C 225.644 317.429,222.257 300.768,209.796 294.611 C 208.148 293.797,206.797 293.011,206.793 292.865 C 206.568 284.747,201.345 268.872,196.747 262.338 C 196.336 261.754,196.000 261.171,196.000 261.043 C 196.000 260.914,195.740 260.492,195.422 260.105 C 195.105 259.717,193.988 258.230,192.941 256.800 C 189.763 252.458,184.068 246.800,178.850 242.800 C 172.990 238.308,163.397 233.786,155.592 231.836 C 148.084 229.961,147.472 229.918,125.316 229.722 C 105.900 229.550,104.014 229.475,103.822 228.867 C 103.706 228.500,103.428 225.050,103.203 221.200 C 102.978 217.350,102.612 211.590,102.389 208.400 C 102.167 205.210,101.801 199.900,101.577 196.600 C 101.353 193.300,100.996 188.170,100.784 185.200 C 100.572 182.230,100.222 177.100,100.007 173.800 C 99.792 170.500,99.431 165.550,99.204 162.800 C 98.978 160.050,98.677 156.225,98.537 154.300 L 98.282 150.800 185.498 150.800 C 262.655 150.800,272.741 150.869,272.945 151.400 C 273.142 151.915,274.879 152.000,285.187 152.000 L 297.200 152.000 297.200 150.800 C 297.200 150.140,297.020 149.600,296.800 149.600 C 296.580 149.600,296.400 149.060,296.400 148.400 C 296.400 147.740,296.220 147.200,296.000 147.200 C 295.780 147.200,295.600 146.671,295.600 146.024 C 295.600 145.377,295.420 144.736,295.200 144.600 C 294.980 144.464,294.800 143.823,294.800 143.176 C 294.800 142.529,294.620 142.000,294.400 142.000 C 294.180 142.000,294.000 141.460,294.000 140.800 C 294.000 140.140,293.820 139.600,293.600 139.600 C 293.380 139.600,293.200 139.060,293.200 138.400 C 293.200 137.740,293.020 137.200,292.800 137.200 C 292.580 137.200,292.400 136.660,292.400 136.000 C 292.400 135.340,292.244 134.800,292.054 134.800 C 291.864 134.800,291.593 133.953,291.451 132.919 C 291.183 130.966,290.557 128.704,289.951 127.505 C 289.758 127.123,289.600 126.459,289.600 126.029 C 289.600 125.599,289.420 125.136,289.200 125.000 C 288.980 124.864,288.800 124.223,288.800 123.576 C 288.800 122.929,288.620 122.400,288.400 122.400 C 288.180 122.400,288.000 121.860,288.000 121.200 C 288.000 120.540,287.820 120.000,287.600 120.000 C 287.380 120.000,287.200 119.471,287.200 118.824 C 287.200 118.177,287.020 117.536,286.800 117.400 C 286.580 117.264,286.400 116.634,286.400 116.000 C 286.400 115.366,286.220 114.736,286.000 114.600 C 285.780 114.464,285.596 113.958,285.591 113.476 C 285.566 110.978,284.620 110.618,277.524 110.400 L 271.000 110.200 270.866 109.200 C 270.793 108.650,270.568 108.029,270.366 107.820 C 270.165 107.611,270.000 106.936,270.000 106.320 C 270.000 105.704,269.820 105.200,269.600 105.200 C 269.380 105.200,269.200 104.660,269.200 104.000 C 269.200 103.340,269.020 102.800,268.800 102.800 C 268.580 102.800,268.400 102.260,268.400 101.600 C 268.400 100.940,268.220 100.400,268.000 100.400 C 267.780 100.400,267.600 99.860,267.600 99.200 C 267.600 98.540,267.420 98.000,267.200 98.000 C 266.980 98.000,266.800 97.460,266.800 96.800 C 266.800 96.140,266.620 95.600,266.400 95.600 C 266.180 95.600,266.000 95.161,266.000 94.624 C 266.000 94.087,265.820 93.536,265.600 93.400 C 265.380 93.264,265.200 92.713,265.200 92.176 C 265.200 91.639,265.020 91.200,264.800 91.200 C 264.580 91.200,264.400 90.660,264.400 90.000 C 264.400 89.340,264.220 88.800,264.000 88.800 C 263.780 88.800,263.600 88.260,263.600 87.600 C 263.600 86.940,263.420 86.400,263.200 86.400 C 262.980 86.400,262.800 85.860,262.800 85.200 L 262.800 84.000 232.000 84.000 L 201.200 84.000 201.200 64.000 L 201.200 44.000 202.800 44.000 C 203.680 44.000,204.400 43.820,204.400 43.600 C 204.400 43.380,205.019 43.200,205.776 43.200 C 206.533 43.200,207.264 43.020,207.400 42.800 C 207.536 42.580,208.179 42.400,208.829 42.400 C 209.479 42.400,210.323 42.236,210.705 42.036 C 211.087 41.836,212.660 41.487,214.200 41.259 C 218.405 40.639,219.719 40.380,220.600 40.000 C 221.468 39.625,223.230 39.271,225.900 38.934 C 226.835 38.816,227.600 38.558,227.600 38.360 C 227.600 38.162,228.320 38.000,229.200 38.000 C 230.080 38.000,230.800 37.820,230.800 37.600 C 230.800 37.380,231.520 37.200,232.400 37.200 C 233.280 37.200,234.000 37.020,234.000 36.800 C 234.000 36.580,234.540 36.400,235.200 36.400 C 235.860 36.400,236.400 36.220,236.400 36.000 C 236.400 35.780,236.634 35.600,236.920 35.600 C 237.656 35.600,239.593 34.659,239.597 34.300 C 239.599 34.135,239.784 34.000,240.009 34.000 C 240.656 34.000,244.800 29.683,244.800 29.009 C 244.800 28.674,244.980 28.400,245.200 28.400 C 245.420 28.400,245.600 28.040,245.600 27.600 C 245.600 27.160,245.780 26.800,246.000 26.800 C 246.220 26.800,246.400 26.440,246.400 26.000 C 246.400 25.560,246.580 25.200,246.800 25.200 C 247.020 25.200,247.200 24.581,247.200 23.824 C 247.200 23.067,247.380 22.336,247.600 22.200 C 247.820 22.064,248.000 20.534,248.000 18.800 C 248.000 17.066,247.820 15.536,247.600 15.400 C 247.380 15.264,247.200 14.454,247.200 13.600 C 247.200 12.746,247.020 11.936,246.800 11.800 C 246.580 11.664,246.400 11.113,246.400 10.576 C 246.400 10.039,246.220 9.600,246.000 9.600 C 245.780 9.600,245.600 9.370,245.600 9.088 C 245.600 8.807,245.240 8.317,244.800 8.000 C 244.360 7.683,244.000 7.175,244.000 6.872 C 244.000 6.146,240.608 2.959,239.147 2.312 C 238.516 2.033,238.000 1.669,238.000 1.502 C 238.000 1.336,237.676 1.200,237.280 1.200 C 236.884 1.200,236.343 0.983,236.078 0.718 C 235.581 0.221,227.359 -0.088,224.200 0.272 M233.100 13.128 C 235.296 14.692,236.365 18.964,235.151 21.326 C 234.418 22.753,232.702 24.400,231.949 24.400 C 231.563 24.400,231.148 24.560,231.027 24.756 C 230.906 24.951,230.221 25.213,229.504 25.337 C 228.787 25.461,227.570 25.673,226.800 25.808 C 226.030 25.944,225.040 26.210,224.600 26.400 C 224.160 26.590,223.260 26.837,222.600 26.949 C 220.190 27.356,218.916 27.642,214.600 28.742 C 213.720 28.966,212.100 29.352,211.000 29.600 C 209.900 29.848,208.370 30.208,207.600 30.400 C 206.830 30.592,205.390 30.931,204.400 31.153 C 202.484 31.582,198.136 32.595,192.103 34.017 L 188.406 34.888 188.303 60.144 L 188.200 85.400 182.400 85.400 L 176.600 85.400 176.600 55.010 L 176.600 24.619 177.600 24.338 C 180.240 23.594,187.927 21.717,210.000 16.427 C 220.206 13.981,221.610 13.637,224.600 12.840 C 228.514 11.796,231.365 11.893,233.100 13.128 M253.367 96.643 C 253.715 96.776,254.000 97.216,254.000 97.619 C 254.000 98.023,254.180 98.464,254.400 98.600 C 254.620 98.736,254.800 99.199,254.800 99.629 C 254.800 100.059,254.962 100.723,255.161 101.105 C 255.360 101.487,255.737 102.610,256.000 103.600 C 256.263 104.590,256.640 105.713,256.839 106.095 C 257.038 106.477,257.200 107.116,257.200 107.515 C 257.200 107.914,257.365 108.411,257.567 108.620 C 257.770 108.829,257.995 109.630,258.067 110.400 L 258.200 111.800 182.400 111.800 L 106.600 111.800 106.733 110.400 C 106.805 109.630,107.030 108.829,107.233 108.620 C 107.435 108.411,107.600 107.837,107.600 107.344 C 107.600 106.851,107.780 106.336,108.000 106.200 C 108.220 106.064,108.400 105.601,108.400 105.171 C 108.400 104.741,108.562 104.077,108.761 103.695 C 108.960 103.313,109.337 102.190,109.600 101.200 C 109.863 100.210,110.240 99.087,110.439 98.705 C 110.638 98.323,110.800 97.752,110.800 97.435 C 110.800 97.118,111.115 96.776,111.500 96.676 C 112.566 96.397,252.643 96.365,253.367 96.643 M275.849 123.900 C 275.972 124.285,276.216 124.960,276.391 125.400 C 276.566 125.840,276.927 127.010,277.193 128.000 C 277.460 128.990,277.840 130.113,278.039 130.495 C 278.238 130.877,278.400 131.464,278.400 131.800 C 278.400 132.136,278.559 132.723,278.753 133.105 C 279.735 135.040,280.664 138.776,280.263 139.177 C 279.525 139.915,84.835 139.757,84.552 139.018 C 84.429 138.698,84.795 136.943,85.366 135.118 C 85.937 133.293,86.785 130.540,87.250 129.000 C 87.715 127.460,88.238 125.840,88.411 125.400 C 88.585 124.960,88.828 124.285,88.951 123.900 C 89.299 122.810,275.501 122.810,275.849 123.900 M355.200 166.400 L 355.200 179.200 338.400 179.200 L 321.600 179.200 321.600 170.600 L 321.600 162.000 303.200 162.000 L 284.800 162.000 284.800 170.600 L 284.800 179.200 279.808 179.200 L 274.816 179.200 274.708 170.700 L 274.600 162.200 273.200 162.346 C 272.430 162.427,264.466 162.566,255.502 162.655 L 239.205 162.817 239.102 196.109 L 239.000 229.400 232.100 229.509 L 225.200 229.619 225.200 230.632 C 225.200 231.190,225.372 232.851,225.582 234.323 C 225.792 235.795,226.158 238.800,226.397 241.000 C 226.635 243.200,227.286 249.140,227.843 254.200 C 228.401 259.260,229.022 265.110,229.224 267.200 C 229.705 272.185,231.338 287.286,232.404 296.600 C 232.605 298.360,232.960 301.690,233.193 304.000 C 233.426 306.310,233.714 309.010,233.832 310.000 C 233.950 310.990,234.212 313.330,234.414 315.200 C 234.616 317.070,234.971 320.310,235.203 322.400 C 235.434 324.490,235.809 327.910,236.034 330.000 C 236.260 332.090,236.613 335.330,236.819 337.200 C 237.025 339.070,237.377 342.310,237.600 344.400 C 237.823 346.490,238.175 349.730,238.381 351.600 C 238.587 353.470,238.940 356.710,239.166 358.800 C 239.391 360.890,239.757 364.220,239.979 366.200 C 241.136 376.550,241.335 378.394,242.376 388.483 C 242.596 390.619,242.887 392.806,243.022 393.344 C 243.177 393.961,243.068 394.448,242.727 394.661 C 242.341 394.904,242.228 395.711,242.329 397.500 L 242.471 400.000 312.436 400.000 L 382.400 400.000 382.400 397.400 C 382.400 395.933,382.574 394.800,382.800 394.800 C 383.035 394.800,383.200 393.408,383.200 391.424 C 383.200 389.567,383.380 387.936,383.600 387.800 C 383.820 387.664,384.000 386.044,384.000 384.200 C 384.000 382.356,384.180 380.736,384.400 380.600 C 384.620 380.464,384.800 378.754,384.800 376.800 C 384.800 374.846,384.980 373.136,385.200 373.000 C 385.420 372.864,385.600 371.233,385.600 369.376 C 385.600 367.392,385.765 366.000,386.000 366.000 C 386.237 366.000,386.400 364.533,386.400 362.400 C 386.400 360.267,386.563 358.800,386.800 358.800 C 387.035 358.800,387.200 357.427,387.200 355.480 C 387.200 353.654,387.367 351.989,387.572 351.780 C 387.776 351.571,388.040 349.870,388.157 348.000 C 388.275 346.130,388.564 342.890,388.800 340.800 C 389.036 338.710,389.325 335.470,389.443 333.600 C 389.560 331.730,389.824 330.029,390.028 329.820 C 390.233 329.611,390.400 327.957,390.400 326.144 C 390.400 324.331,390.562 322.747,390.760 322.624 C 390.959 322.502,391.252 319.341,391.412 315.601 C 391.571 311.860,391.859 308.800,392.051 308.800 C 392.243 308.800,392.400 307.281,392.400 305.424 C 392.400 303.567,392.580 301.936,392.800 301.800 C 393.020 301.664,393.200 299.954,393.200 298.000 C 393.200 296.046,393.380 294.336,393.600 294.200 C 393.820 294.064,394.000 292.433,394.000 290.576 C 394.000 288.592,394.165 287.200,394.400 287.200 C 394.637 287.200,394.800 285.733,394.800 283.600 C 394.800 281.467,394.963 280.000,395.200 280.000 C 395.437 280.000,395.600 278.533,395.600 276.400 C 395.600 274.267,395.763 272.800,396.000 272.800 C 396.235 272.800,396.400 271.408,396.400 269.424 C 396.400 267.567,396.580 265.936,396.800 265.800 C 397.020 265.664,397.200 263.954,397.200 262.000 C 397.200 260.046,397.380 258.336,397.600 258.200 C 397.820 258.064,398.000 256.433,398.000 254.576 C 398.000 252.592,398.165 251.200,398.400 251.200 C 398.637 251.200,398.800 249.744,398.800 247.633 C 398.800 245.672,398.967 244.007,399.172 243.933 C 399.376 243.860,399.673 240.335,399.830 236.100 L 400.117 228.400 396.258 228.400 L 392.400 228.400 392.400 191.000 L 392.400 153.600 373.800 153.600 L 355.200 153.600 355.200 166.400 M380.000 197.320 C 380.000 221.458,379.885 229.155,379.520 229.520 C 379.196 229.844,377.342 230.000,373.800 230.000 C 370.258 230.000,368.404 229.844,368.080 229.520 C 367.557 228.997,367.347 166.387,367.867 165.867 C 368.013 165.720,370.803 165.600,374.067 165.600 L 380.000 165.600 380.000 197.320 M262.600 203.767 C 262.600 227.064,262.494 233.369,262.100 233.500 C 261.810 233.597,261.600 233.327,261.600 232.857 C 261.600 232.412,261.420 231.936,261.200 231.800 C 260.980 231.664,260.800 231.203,260.800 230.776 C 260.800 230.052,260.485 230.000,256.080 230.000 C 252.942 230.000,251.199 229.839,250.880 229.520 C 250.350 228.990,250.151 174.782,250.677 174.256 C 250.829 174.104,253.574 174.029,256.777 174.090 L 262.600 174.200 262.600 203.767 M309.400 225.400 L 309.400 276.600 303.200 276.600 L 297.000 276.600 296.898 225.843 C 296.823 188.105,296.915 174.944,297.256 174.532 C 297.617 174.098,298.969 174.003,303.558 174.090 L 309.400 174.200 309.400 225.400 M285.502 191.531 C 285.900 191.784,285.983 200.589,285.902 234.225 L 285.800 276.600 281.600 276.707 L 277.400 276.815 276.900 275.728 C 276.625 275.130,276.400 274.404,276.400 274.115 C 276.400 273.603,276.218 273.155,275.262 271.305 C 275.008 270.813,274.800 270.059,274.800 269.629 C 274.800 269.199,274.620 268.736,274.400 268.600 C 273.949 268.321,273.817 191.916,274.267 191.467 C 274.645 191.088,284.896 191.146,285.502 191.531 M332.753 191.743 C 333.082 192.140,333.176 203.624,333.102 234.443 L 333.000 276.600 327.030 276.711 C 322.523 276.795,320.981 276.697,320.737 276.311 C 320.238 275.525,320.313 192.909,320.814 191.974 C 321.346 190.980,331.949 190.775,332.753 191.743 M356.308 222.000 C 356.371 239.983,356.264 252.930,356.048 253.400 C 355.846 253.840,355.464 254.830,355.200 255.600 C 354.936 256.370,354.569 257.360,354.386 257.800 C 354.202 258.240,353.558 260.040,352.954 261.800 C 352.349 263.560,350.919 267.610,349.775 270.800 L 347.695 276.600 346.100 276.720 C 344.722 276.824,344.470 276.715,344.257 275.920 C 343.806 274.235,343.964 192.815,344.420 191.963 C 344.811 191.231,345.225 191.186,350.520 191.289 L 356.200 191.400 356.308 222.000 M143.600 241.224 C 149.461 241.746,151.340 242.026,151.780 242.441 C 151.989 242.638,152.653 242.800,153.256 242.800 C 153.859 242.800,154.464 242.980,154.600 243.200 C 154.736 243.420,155.276 243.600,155.800 243.600 C 156.324 243.600,156.864 243.780,157.000 244.000 C 157.136 244.220,157.580 244.400,157.986 244.400 C 158.742 244.400,159.314 244.653,165.200 247.591 C 175.306 252.635,184.913 262.639,189.985 273.400 C 190.918 275.380,191.843 277.313,192.041 277.695 C 192.238 278.077,192.400 278.741,192.400 279.171 C 192.400 279.601,192.559 280.051,192.754 280.171 C 192.949 280.292,193.207 280.887,193.329 281.495 C 193.451 282.103,193.753 283.410,194.001 284.400 C 194.394 285.973,194.922 288.847,195.286 291.400 C 195.404 292.230,27.944 292.928,27.155 292.101 C 26.755 291.681,27.700 284.667,28.382 283.000 C 28.562 282.560,28.941 281.390,29.224 280.400 C 29.507 279.410,29.888 278.429,30.070 278.220 C 30.251 278.011,30.400 277.607,30.400 277.322 C 30.400 276.499,32.924 271.260,34.779 268.232 C 40.313 259.199,48.366 251.807,57.800 247.101 C 62.540 244.737,63.315 244.400,64.014 244.400 C 64.420 244.400,64.864 244.220,65.000 244.000 C 65.136 243.780,65.676 243.600,66.200 243.600 C 66.724 243.600,67.252 243.440,67.373 243.244 C 67.494 243.049,68.179 242.788,68.896 242.666 C 69.613 242.544,71.100 242.243,72.200 241.996 C 73.300 241.749,75.820 241.408,77.800 241.238 C 82.993 240.793,138.615 240.781,143.600 241.224 M252.446 241.300 C 252.776 241.575,253.449 243.060,253.943 244.600 C 254.828 247.361,255.353 248.731,256.047 250.095 C 256.241 250.477,256.400 251.141,256.400 251.571 C 256.400 252.001,256.544 252.442,256.721 252.551 C 256.897 252.660,257.293 253.672,257.600 254.800 C 257.907 255.928,258.303 256.940,258.479 257.049 C 258.656 257.158,258.800 257.599,258.800 258.029 C 258.800 258.459,258.959 259.123,259.153 259.505 C 259.806 260.789,260.344 262.179,261.745 266.200 C 262.512 268.400,263.881 272.270,264.789 274.800 C 265.697 277.330,266.785 280.390,267.207 281.600 C 267.629 282.810,268.303 284.700,268.706 285.800 L 269.438 287.800 312.268 287.902 C 346.242 287.983,355.177 287.900,355.477 287.502 C 355.686 287.226,356.101 286.190,356.400 285.200 C 356.699 284.210,357.059 283.220,357.200 283.000 C 357.341 282.780,357.701 281.790,358.000 280.800 C 358.299 279.810,358.659 278.820,358.800 278.600 C 358.941 278.380,359.300 277.390,359.598 276.400 C 359.895 275.410,360.288 274.429,360.470 274.220 C 360.651 274.011,360.800 273.514,360.800 273.115 C 360.800 272.716,360.980 272.032,361.200 271.595 C 361.420 271.158,361.780 270.442,362.000 270.005 C 362.220 269.568,362.400 268.884,362.400 268.485 C 362.400 268.086,362.543 267.589,362.718 267.380 C 362.893 267.171,363.266 266.280,363.547 265.400 C 364.103 263.656,365.477 259.875,366.017 258.600 C 366.204 258.160,367.103 255.640,368.016 253.000 C 372.780 239.225,371.288 240.800,379.569 240.800 C 388.018 240.800,387.365 240.093,386.403 248.200 C 386.194 249.960,385.829 253.380,385.592 255.800 C 385.355 258.220,385.000 261.550,384.803 263.200 C 384.363 266.885,383.960 270.596,382.193 287.200 C 380.615 302.039,380.058 307.124,379.762 309.400 C 379.647 310.280,379.374 312.800,379.154 315.000 C 378.769 318.851,378.571 320.680,377.598 329.400 C 377.352 331.600,376.982 334.975,376.776 336.900 C 376.569 338.825,376.220 342.020,376.000 344.000 C 375.520 348.321,374.990 353.189,374.410 358.600 C 374.174 360.800,373.802 364.220,373.583 366.200 C 373.365 368.180,373.025 371.330,372.828 373.200 C 371.708 383.857,371.133 387.749,370.629 388.094 C 369.809 388.655,254.547 388.459,254.080 387.896 C 253.708 387.448,252.840 380.673,251.608 368.600 C 251.384 366.400,251.012 362.980,250.782 361.000 C 250.552 359.020,250.190 355.690,249.979 353.600 C 249.598 349.843,249.267 346.787,248.398 339.000 C 248.152 336.800,247.779 333.380,247.568 331.400 C 247.358 329.420,247.005 326.180,246.783 324.200 C 246.562 322.220,246.210 318.980,246.000 317.000 C 245.790 315.020,245.438 311.780,245.217 309.800 C 244.594 304.228,244.058 299.357,243.608 295.200 C 243.382 293.110,243.028 289.870,242.821 288.000 C 242.614 286.130,242.260 282.890,242.034 280.800 C 241.616 276.924,241.098 272.228,240.379 265.800 C 240.157 263.820,239.809 260.580,239.604 258.600 C 239.399 256.620,239.034 253.290,238.791 251.200 C 237.861 243.177,237.762 241.598,238.161 241.199 C 238.774 240.586,251.700 240.677,252.446 241.300 M256.576 301.300 C 256.724 301.795,257.019 303.910,257.232 306.000 C 257.689 310.487,258.183 315.091,258.798 320.600 C 259.485 326.751,259.955 331.040,260.400 335.200 C 260.623 337.290,260.973 340.530,261.177 342.400 C 261.381 344.270,261.733 347.510,261.960 349.600 C 262.187 351.690,262.568 355.200,262.808 357.400 C 263.047 359.600,263.419 362.930,263.634 364.800 C 263.850 366.670,264.196 369.820,264.402 371.800 C 264.609 373.780,264.783 375.445,264.789 375.500 C 264.795 375.555,286.200 375.600,312.357 375.600 L 359.913 375.600 360.178 374.544 C 360.324 373.963,360.624 371.668,360.845 369.444 C 361.065 367.220,361.414 363.870,361.620 362.000 C 361.825 360.130,362.177 356.890,362.400 354.800 C 362.623 352.710,362.989 349.380,363.211 347.400 C 363.434 345.420,363.786 342.180,363.992 340.200 C 364.199 338.220,364.547 334.980,364.767 333.000 C 364.987 331.020,365.268 328.410,365.393 327.200 C 365.517 325.990,365.791 323.560,366.002 321.800 C 366.212 320.040,366.572 316.800,366.803 314.600 C 367.033 312.400,367.391 309.070,367.599 307.200 C 367.807 305.330,368.055 303.035,368.151 302.100 L 368.324 300.400 312.315 300.400 L 256.307 300.400 256.576 301.300 M205.240 305.139 C 212.355 309.652,212.139 318.830,204.825 322.700 L 203.124 323.600 110.974 323.600 L 18.824 323.600 17.312 322.763 C 10.872 319.199,9.714 311.886,14.786 306.814 C 17.862 303.738,8.188 304.019,111.222 304.009 L 203.443 304.000 205.240 305.139 M355.461 314.500 C 355.336 316.095,355.051 319.020,354.827 321.000 C 354.602 322.980,354.234 326.310,354.008 328.400 C 353.782 330.490,353.428 333.730,353.222 335.600 C 353.015 337.470,352.664 340.800,352.442 343.000 C 351.737 349.995,350.395 361.753,350.148 363.104 C 349.815 364.927,352.094 364.832,311.620 364.710 L 275.041 364.600 274.545 362.000 C 274.272 360.570,274.038 358.611,274.025 357.646 C 274.011 356.681,273.827 354.791,273.617 353.446 C 273.406 352.101,273.033 348.930,272.788 346.400 C 272.543 343.870,272.183 340.450,271.988 338.800 C 271.793 337.150,271.448 334.090,271.221 332.000 C 270.994 329.910,270.430 324.728,269.967 320.485 C 269.504 316.242,269.227 312.507,269.350 312.185 C 269.545 311.677,275.214 311.600,312.631 311.600 L 355.687 311.600 355.461 314.500 M32.852 338.300 C 35.280 340.005,38.378 342.165,39.734 343.101 C 41.090 344.036,42.470 345.027,42.800 345.303 C 43.130 345.579,45.349 347.154,47.732 348.803 C 50.114 350.451,52.689 352.283,53.454 352.874 C 54.219 353.465,55.060 354.027,55.322 354.124 C 57.774 355.027,53.940 355.232,36.761 355.117 C 16.613 354.982,17.511 355.099,14.668 352.230 C 12.075 349.613,10.371 343.207,12.000 342.200 C 12.220 342.064,12.400 341.686,12.400 341.360 C 12.400 340.666,12.875 340.013,14.827 338.024 C 17.214 335.593,18.394 335.219,23.718 335.209 L 28.435 335.200 32.852 338.300 M83.800 338.581 C 86.440 340.438,88.780 342.111,89.000 342.298 C 89.220 342.486,90.553 343.421,91.962 344.376 C 93.371 345.332,94.811 346.355,95.162 346.649 C 95.513 346.943,97.058 348.043,98.595 349.094 C 102.483 351.751,102.390 351.973,95.639 356.200 C 95.287 356.420,94.910 356.704,94.800 356.830 C 94.690 356.957,93.430 357.848,92.000 358.811 C 90.570 359.773,89.053 360.883,88.629 361.276 C 87.111 362.685,85.208 362.329,83.089 360.239 C 82.820 359.973,81.430 358.965,80.000 357.997 C 78.570 357.030,77.220 356.083,77.000 355.891 C 76.558 355.507,68.687 349.963,64.000 346.734 C 62.350 345.598,60.910 344.549,60.800 344.404 C 60.690 344.259,59.430 343.357,58.000 342.400 C 56.570 341.443,55.310 340.557,55.200 340.430 C 55.090 340.304,54.708 340.020,54.351 339.800 C 52.080 338.400,48.800 335.909,48.800 335.585 C 48.800 335.345,54.488 335.201,63.900 335.202 L 79.000 335.204 83.800 338.581 M174.800 335.584 C 174.800 335.967,173.349 337.045,166.600 341.679 C 164.620 343.038,162.797 344.341,162.549 344.575 C 162.301 344.809,161.131 345.687,159.949 346.526 C 153.167 351.340,147.776 355.121,144.600 357.291 C 142.620 358.643,140.780 359.969,140.511 360.236 C 138.404 362.327,136.314 362.646,134.762 361.112 C 134.453 360.806,133.030 359.765,131.600 358.797 C 130.170 357.830,128.820 356.881,128.600 356.687 C 128.247 356.377,122.055 352.016,115.000 347.108 C 113.680 346.190,112.420 345.281,112.200 345.087 C 111.803 344.738,107.652 341.817,102.100 337.980 C 100.505 336.878,99.200 335.801,99.200 335.588 C 99.200 335.340,112.859 335.200,137.000 335.200 C 160.853 335.200,174.800 335.342,174.800 335.584 M204.718 336.112 C 211.775 339.887,212.463 348.921,206.032 353.378 C 203.570 355.084,202.449 355.180,184.900 355.190 C 165.599 355.202,166.180 355.403,172.792 350.995 C 173.778 350.338,174.858 349.575,175.192 349.301 C 175.526 349.026,176.903 348.036,178.251 347.101 C 182.850 343.910,187.796 340.427,191.400 337.839 L 195.000 335.254 199.006 335.227 C 202.443 335.204,203.255 335.330,204.718 336.112 M115.404 360.983 C 117.162 362.183,119.808 364.028,121.284 365.083 C 125.800 368.308,128.452 370.174,132.000 372.621 C 133.870 373.911,135.460 375.109,135.533 375.283 C 135.607 375.457,135.922 375.600,136.233 375.600 C 136.545 375.600,136.800 375.792,136.800 376.027 C 136.800 376.405,138.268 375.532,140.000 374.123 C 140.330 373.855,142.937 372.007,145.793 370.018 L 150.986 366.400 172.893 366.400 L 194.800 366.400 194.800 367.576 C 194.800 368.223,194.620 368.864,194.400 369.000 C 194.180 369.136,194.000 369.580,194.000 369.986 C 194.000 370.784,192.391 374.115,191.900 374.333 C 191.735 374.407,191.598 374.677,191.595 374.933 C 191.579 376.283,185.486 382.468,182.364 384.305 C 179.494 385.992,176.340 387.087,172.269 387.807 C 167.388 388.670,54.574 388.670,49.800 387.807 C 41.641 386.331,37.006 383.589,31.823 377.173 C 30.697 375.779,28.000 370.414,28.000 369.568 C 28.000 369.172,27.820 368.736,27.600 368.600 C 27.380 368.464,27.200 367.913,27.200 367.376 L 27.200 366.400 49.906 366.400 L 72.611 366.400 75.058 368.100 C 76.404 369.035,78.922 370.776,80.653 371.970 C 82.384 373.163,83.860 374.288,83.933 374.470 C 84.007 374.651,84.245 374.800,84.462 374.800 C 84.679 374.800,85.127 375.070,85.457 375.400 C 86.195 376.137,86.974 376.166,87.671 375.481 C 87.962 375.196,89.100 374.352,90.200 373.607 C 91.300 372.861,94.630 370.527,97.600 368.419 C 103.366 364.327,104.934 363.235,105.956 362.600 C 106.310 362.380,106.690 362.095,106.800 361.967 C 107.250 361.442,111.419 358.800,111.798 358.800 C 112.023 358.800,113.646 359.782,115.404 360.983 " stroke="none" fill="#040404" fill-rule="evenodd"></path><path id="path4" d="M229.694 12.341 C 237.578 13.566,237.062 22.808,229.000 24.772 C 224.613 25.841,213.117 28.548,210.000 29.247 C 207.911 29.715,206.049 30.166,203.800 30.748 C 202.920 30.976,201.660 31.269,201.000 31.399 C 200.340 31.529,199.170 31.786,198.400 31.970 C 197.630 32.154,195.313 32.691,193.252 33.164 C 191.191 33.637,189.166 34.204,188.752 34.426 C 188.028 34.813,188.000 35.770,188.000 59.814 L 188.000 84.800 182.397 84.800 L 176.795 84.800 176.897 54.904 L 177.000 25.008 181.600 23.889 C 186.625 22.666,188.178 22.280,190.600 21.649 C 191.480 21.420,194.540 20.678,197.400 20.000 C 202.457 18.801,204.525 18.289,207.000 17.623 C 207.660 17.445,212.592 16.242,217.959 14.950 C 223.326 13.657,227.391 12.536,226.993 12.458 C 226.594 12.380,225.532 12.530,224.634 12.791 C 222.273 13.477,221.283 13.723,210.000 16.427 C 187.927 21.717,180.240 23.594,177.600 24.338 L 176.600 24.619 176.600 55.010 L 176.600 85.400 182.400 85.400 L 188.200 85.400 188.303 60.144 L 188.406 34.888 192.103 34.017 C 198.136 32.595,202.484 31.582,204.400 31.153 C 205.390 30.931,206.830 30.592,207.600 30.400 C 208.370 30.208,209.900 29.848,211.000 29.600 C 212.100 29.352,213.720 28.966,214.600 28.742 C 218.916 27.642,220.190 27.356,222.600 26.949 C 223.260 26.837,224.160 26.590,224.600 26.400 C 225.040 26.210,226.030 25.944,226.800 25.808 C 227.570 25.673,228.787 25.461,229.504 25.337 C 230.221 25.213,230.906 24.951,231.027 24.756 C 231.148 24.560,231.563 24.400,231.949 24.400 C 233.620 24.400,235.600 21.248,235.600 18.587 C 235.600 14.773,233.439 12.358,229.849 12.160 L 227.800 12.047 229.694 12.341 M111.500 96.676 C 111.115 96.776,110.800 97.128,110.800 97.458 C 110.800 97.978,110.883 97.974,111.429 97.429 C 112.454 96.404,252.971 96.474,253.568 97.500 C 253.930 98.121,253.977 98.126,253.988 97.543 C 253.995 97.181,253.715 96.776,253.367 96.643 C 252.643 96.365,112.566 96.397,111.500 96.676 M110.257 98.843 C 110.167 99.149,109.876 100.210,109.608 101.200 C 109.341 102.190,108.960 103.313,108.761 103.695 C 108.562 104.077,108.400 104.741,108.400 105.171 C 108.400 105.601,108.220 106.064,108.000 106.200 C 107.780 106.336,107.600 106.851,107.600 107.344 C 107.600 107.837,107.435 108.411,107.233 108.620 C 107.030 108.829,106.805 109.630,106.733 110.400 L 106.600 111.800 182.400 111.800 L 258.200 111.800 258.067 110.400 C 257.995 109.630,257.770 108.829,257.567 108.620 C 257.365 108.411,257.200 107.837,257.200 107.344 C 257.200 106.851,257.020 106.336,256.800 106.200 C 256.223 105.843,256.300 106.383,257.200 109.000 C 257.640 110.279,258.000 111.387,258.000 111.463 C 258.000 111.538,224.070 111.600,182.600 111.600 C 98.443 111.600,106.449 111.865,107.577 109.119 C 108.458 106.975,110.844 98.711,110.641 98.507 C 110.519 98.385,110.346 98.536,110.257 98.843 M254.006 98.876 C 254.018 99.881,254.787 100.708,254.794 99.724 C 254.797 99.242,254.620 98.736,254.400 98.600 C 254.180 98.464,254.003 98.588,254.006 98.876 M254.831 101.276 C 254.848 101.564,255.209 102.700,255.633 103.800 C 256.351 105.660,256.364 105.455,255.730 102.295 C 255.502 101.161,254.775 100.337,254.831 101.276 M88.951 123.900 C 88.828 124.285,88.585 124.960,88.411 125.400 C 88.238 125.840,87.715 127.460,87.250 129.000 C 86.785 130.540,85.937 133.293,85.366 135.118 C 84.795 136.943,84.429 138.698,84.552 139.018 C 84.835 139.757,279.525 139.915,280.263 139.177 C 280.664 138.776,279.735 135.040,278.753 133.105 C 278.559 132.723,278.400 132.136,278.400 131.800 C 278.400 131.464,278.238 130.877,278.039 130.495 C 277.840 130.113,277.460 128.990,277.193 128.000 C 276.927 127.010,276.566 125.840,276.391 125.400 C 276.216 124.960,275.972 124.285,275.849 123.900 C 275.637 123.236,270.834 123.200,182.400 123.200 C 93.966 123.200,89.163 123.236,88.951 123.900 M275.979 125.500 C 276.283 126.545,277.220 129.544,278.061 132.165 C 278.902 134.786,279.637 137.396,279.695 137.965 L 279.800 139.000 182.621 139.101 C 129.172 139.156,85.289 139.049,85.103 138.863 C 84.916 138.676,85.197 137.191,85.726 135.562 C 86.255 133.933,87.278 130.710,87.999 128.400 C 88.720 126.090,89.386 124.065,89.479 123.900 C 89.571 123.735,131.447 123.600,182.536 123.600 L 275.425 123.600 275.979 125.500 M98.440 153.100 C 98.461 154.365,98.615 156.390,98.782 157.600 C 99.023 159.351,99.077 158.883,99.043 155.304 C 99.019 152.831,98.865 150.806,98.700 150.804 C 98.535 150.802,98.418 151.835,98.440 153.100 M247.327 162.700 C 251.907 162.764,259.287 162.764,263.727 162.699 C 268.167 162.635,264.420 162.583,255.400 162.583 C 246.380 162.583,242.747 162.635,247.327 162.700 M238.898 196.091 L 238.800 229.181 231.900 229.301 L 225.000 229.420 231.913 229.510 C 237.142 229.578,238.872 229.478,239.016 229.100 C 239.121 228.825,239.159 213.840,239.101 195.800 L 238.995 163.000 238.898 196.091 M367.867 165.867 C 367.347 166.387,367.557 228.997,368.080 229.520 C 368.404 229.844,370.258 230.000,373.800 230.000 C 377.342 230.000,379.196 229.844,379.520 229.520 C 379.885 229.155,380.000 221.458,380.000 197.320 L 380.000 165.600 374.067 165.600 C 370.803 165.600,368.013 165.720,367.867 165.867 M379.600 197.611 L 379.600 229.222 373.900 229.111 L 368.200 229.000 368.097 198.000 C 368.040 180.950,368.079 166.775,368.184 166.500 C 368.324 166.133,369.866 166.000,373.987 166.000 L 379.600 166.000 379.600 197.611 M250.677 174.256 C 250.151 174.782,250.350 228.990,250.880 229.520 C 251.199 229.839,252.942 230.000,256.080 230.000 C 260.485 230.000,260.800 230.052,260.800 230.776 C 260.800 231.203,260.980 231.664,261.200 231.800 C 261.420 231.936,261.600 232.412,261.600 232.857 C 261.600 233.327,261.810 233.597,262.100 233.500 C 262.494 233.369,262.600 227.064,262.600 203.767 L 262.600 174.200 256.777 174.090 C 253.574 174.029,250.829 174.104,250.677 174.256 M297.256 174.532 C 296.915 174.944,296.823 188.105,296.898 225.843 L 297.000 276.600 303.200 276.600 L 309.400 276.600 309.400 225.400 L 309.400 174.200 303.558 174.090 C 298.969 174.003,297.617 174.098,297.256 174.532 M261.767 174.643 C 262.336 174.861,262.399 177.808,262.387 203.943 L 262.374 233.000 261.541 231.112 L 260.708 229.224 255.854 229.112 L 251.000 229.000 250.896 202.200 C 250.839 187.460,250.879 175.175,250.984 174.900 C 251.185 174.373,260.486 174.151,261.767 174.643 M308.720 174.880 C 309.229 175.389,309.462 274.452,308.957 275.767 C 308.752 276.302,307.856 276.400,303.157 276.400 L 297.600 276.400 297.600 225.667 C 297.600 197.763,297.720 174.813,297.867 174.667 C 298.362 174.171,308.205 174.365,308.720 174.880 M274.267 191.467 C 273.817 191.916,273.949 268.321,274.400 268.600 C 274.620 268.736,274.800 269.199,274.800 269.629 C 274.800 270.059,275.008 270.813,275.262 271.305 C 276.218 273.155,276.400 273.603,276.400 274.115 C 276.400 274.404,276.625 275.130,276.900 275.728 L 277.400 276.815 281.600 276.707 L 285.800 276.600 285.902 234.225 C 285.983 200.589,285.900 191.784,285.502 191.531 C 284.896 191.146,274.645 191.088,274.267 191.467 M320.814 191.974 C 320.313 192.909,320.238 275.525,320.737 276.311 C 320.981 276.697,322.523 276.795,327.030 276.711 L 333.000 276.600 333.102 234.443 C 333.176 203.624,333.082 192.140,332.753 191.743 C 331.949 190.775,321.346 190.980,320.814 191.974 M344.420 191.963 C 343.964 192.815,343.806 274.235,344.257 275.920 C 344.470 276.715,344.722 276.824,346.100 276.720 L 347.695 276.600 349.775 270.800 C 353.672 259.934,354.073 258.740,353.887 258.554 C 353.734 258.400,351.838 263.332,350.410 267.600 C 350.226 268.150,349.939 268.960,349.774 269.400 C 349.608 269.840,348.999 271.550,348.420 273.200 C 347.429 276.026,347.293 276.207,346.084 276.325 L 344.800 276.451 344.800 234.225 L 344.800 192.000 350.400 192.000 L 356.000 192.000 356.000 221.976 L 356.000 251.952 354.969 254.811 C 354.401 256.384,354.037 257.770,354.159 257.893 C 354.281 258.015,354.492 257.774,354.628 257.357 C 355.349 255.146,355.716 254.122,356.048 253.400 C 356.264 252.930,356.371 239.983,356.308 222.000 L 356.200 191.400 350.520 191.289 C 345.225 191.186,344.811 191.231,344.420 191.963 M285.510 233.400 C 285.570 256.060,285.522 275.005,285.402 275.500 C 285.196 276.354,284.992 276.400,281.446 276.400 L 277.707 276.400 276.830 273.900 C 276.347 272.525,275.603 270.521,275.176 269.447 C 274.427 267.562,274.400 266.172,274.400 229.735 L 274.400 191.977 279.900 192.089 L 285.400 192.200 285.510 233.400 M332.400 234.200 L 332.400 276.400 326.800 276.400 L 321.200 276.400 321.200 234.200 L 321.200 192.000 326.800 192.000 L 332.400 192.000 332.400 234.200 M103.314 223.000 C 103.317 224.100,103.395 224.503,103.487 223.895 C 103.579 223.286,103.577 222.386,103.482 221.895 C 103.387 221.403,103.311 221.900,103.314 223.000 M103.714 227.000 C 103.717 228.100,103.795 228.503,103.887 227.895 C 103.979 227.286,103.977 226.386,103.882 225.895 C 103.787 225.403,103.711 225.900,103.714 227.000 M112.927 229.500 C 117.947 229.563,126.047 229.563,130.927 229.500 C 135.807 229.436,131.700 229.384,121.800 229.384 C 111.900 229.384,107.907 229.436,112.927 229.500 M143.700 229.887 C 144.305 229.978,145.295 229.978,145.900 229.887 C 146.505 229.795,146.010 229.720,144.800 229.720 C 143.590 229.720,143.095 229.795,143.700 229.887 M149.633 230.544 C 149.725 230.624,150.610 230.796,151.600 230.927 C 152.802 231.086,153.134 231.047,152.600 230.810 C 151.836 230.472,149.286 230.243,149.633 230.544 M154.600 231.600 C 155.040 231.789,155.670 231.944,156.000 231.944 C 156.378 231.944,156.304 231.817,155.800 231.600 C 155.360 231.411,154.730 231.256,154.400 231.256 C 154.022 231.256,154.096 231.383,154.600 231.600 M225.714 237.000 C 225.717 238.100,225.795 238.503,225.887 237.895 C 225.979 237.286,225.977 236.386,225.882 235.895 C 225.787 235.403,225.711 235.900,225.714 237.000 M77.800 241.238 C 75.820 241.408,73.300 241.749,72.200 241.996 C 71.100 242.243,69.613 242.544,68.896 242.666 C 68.179 242.788,67.494 243.049,67.373 243.244 C 67.252 243.440,66.724 243.600,66.200 243.600 C 65.676 243.600,65.136 243.780,65.000 244.000 C 64.864 244.220,64.431 244.400,64.038 244.400 C 63.279 244.400,60.653 245.587,60.890 245.823 C 60.967 245.900,62.283 245.507,63.815 244.951 C 67.167 243.733,69.990 242.966,74.000 242.185 C 77.743 241.455,143.682 241.307,147.280 242.020 C 151.328 242.822,156.186 244.132,158.556 245.061 C 159.866 245.575,161.009 245.925,161.094 245.839 C 161.342 245.591,158.750 244.400,157.962 244.400 C 157.569 244.400,157.136 244.220,157.000 244.000 C 156.864 243.780,156.324 243.600,155.800 243.600 C 155.276 243.600,154.736 243.420,154.600 243.200 C 154.464 242.980,153.859 242.800,153.256 242.800 C 152.653 242.800,151.989 242.638,151.780 242.441 C 151.340 242.026,149.461 241.746,143.600 241.224 C 138.615 240.781,82.993 240.793,77.800 241.238 M238.161 241.199 C 237.762 241.598,237.861 243.177,238.791 251.200 C 239.034 253.290,239.399 256.620,239.604 258.600 C 239.809 260.580,240.157 263.820,240.379 265.800 C 241.098 272.228,241.616 276.924,242.034 280.800 C 242.260 282.890,242.614 286.130,242.821 288.000 C 243.028 289.870,243.382 293.110,243.608 295.200 C 243.834 297.290,244.190 300.530,244.400 302.400 C 244.610 304.270,244.945 307.565,245.146 309.722 C 245.346 311.879,245.620 313.754,245.755 313.888 C 246.091 314.225,246.052 312.806,245.614 308.800 C 245.030 303.455,244.392 297.701,243.973 294.000 C 243.762 292.130,243.401 288.800,243.171 286.600 C 242.942 284.400,242.586 281.070,242.380 279.200 C 242.175 277.330,241.823 274.090,241.600 272.000 C 241.377 269.910,241.025 266.670,240.819 264.800 C 240.613 262.930,240.250 259.600,240.012 257.400 C 239.377 251.527,238.877 246.928,238.565 244.100 L 238.289 241.600 245.302 241.600 C 251.606 241.600,252.343 241.671,252.596 242.300 C 252.862 242.961,255.876 251.404,258.200 258.000 C 258.781 259.650,259.411 261.360,259.600 261.800 C 259.979 262.684,261.717 267.593,262.645 270.400 C 262.973 271.390,263.393 272.560,263.580 273.000 C 263.766 273.440,264.136 274.430,264.400 275.200 C 264.664 275.970,265.031 276.960,265.214 277.400 C 265.397 277.840,265.918 279.280,266.370 280.600 C 266.822 281.920,267.616 284.170,268.134 285.600 L 269.075 288.200 312.287 288.302 C 346.566 288.383,355.577 288.300,355.877 287.902 C 356.086 287.626,356.501 286.590,356.800 285.600 C 357.099 284.610,357.459 283.620,357.600 283.400 C 357.741 283.180,358.101 282.190,358.400 281.200 C 358.699 280.210,359.054 279.220,359.189 279.000 C 359.323 278.780,359.664 277.880,359.945 277.000 C 360.227 276.120,360.794 274.500,361.205 273.400 C 361.839 271.703,367.169 256.724,368.464 253.000 C 368.693 252.340,369.030 251.440,369.212 251.000 C 369.742 249.720,371.637 244.321,372.055 242.900 L 372.438 241.600 379.662 241.600 C 385.624 241.600,386.849 241.696,386.675 242.150 C 386.338 243.027,385.870 249.426,386.162 249.153 C 386.642 248.706,387.105 241.831,386.691 241.300 C 386.047 240.472,373.063 240.601,372.366 241.441 C 371.840 242.074,371.276 243.573,368.016 253.000 C 367.103 255.640,366.204 258.160,366.017 258.600 C 365.477 259.875,364.103 263.656,363.547 265.400 C 363.266 266.280,362.893 267.171,362.718 267.380 C 362.543 267.589,362.400 268.086,362.400 268.485 C 362.400 268.884,362.220 269.568,362.000 270.005 C 361.780 270.442,361.420 271.158,361.200 271.595 C 360.980 272.032,360.800 272.716,360.800 273.115 C 360.800 273.514,360.651 274.011,360.470 274.220 C 360.288 274.429,359.895 275.410,359.598 276.400 C 359.300 277.390,358.941 278.380,358.800 278.600 C 358.659 278.820,358.299 279.810,358.000 280.800 C 357.701 281.790,357.341 282.780,357.200 283.000 C 357.059 283.220,356.699 284.210,356.400 285.200 C 356.101 286.190,355.686 287.226,355.477 287.502 C 355.177 287.900,346.242 287.983,312.268 287.902 L 269.438 287.800 268.706 285.800 C 268.303 284.700,267.629 282.810,267.207 281.600 C 266.785 280.390,265.697 277.330,264.789 274.800 C 263.881 272.270,262.512 268.400,261.745 266.200 C 260.344 262.179,259.806 260.789,259.153 259.505 C 258.959 259.123,258.800 258.459,258.800 258.029 C 258.800 257.599,258.656 257.158,258.479 257.049 C 258.303 256.940,257.907 255.928,257.600 254.800 C 257.293 253.672,256.897 252.660,256.721 252.551 C 256.544 252.442,256.400 252.001,256.400 251.571 C 256.400 251.141,256.241 250.477,256.047 250.095 C 255.353 248.731,254.828 247.361,253.943 244.600 C 253.449 243.060,252.776 241.575,252.446 241.300 C 251.700 240.677,238.774 240.586,238.161 241.199 M226.514 244.200 C 226.517 245.300,226.595 245.703,226.687 245.095 C 226.779 244.486,226.777 243.586,226.682 243.095 C 226.587 242.603,226.511 243.100,226.514 244.200 M179.611 243.462 C 180.155 243.827,180.970 244.412,181.423 244.762 C 181.876 245.113,181.621 244.815,180.857 244.100 C 180.092 243.385,179.277 242.800,179.044 242.800 C 178.812 242.800,179.067 243.098,179.611 243.462 M58.200 246.758 C 57.540 247.144,55.945 248.036,54.656 248.741 C 47.564 252.615,39.504 260.518,34.779 268.232 C 32.924 271.260,30.400 276.499,30.400 277.322 C 30.400 277.607,30.251 278.011,30.070 278.220 C 29.888 278.429,29.507 279.410,29.224 280.400 C 28.941 281.390,28.562 282.560,28.382 283.000 C 27.700 284.667,26.755 291.681,27.155 292.101 C 27.944 292.928,195.404 292.230,195.286 291.400 C 194.922 288.847,194.394 285.973,194.001 284.400 C 193.753 283.410,193.451 282.103,193.329 281.495 C 193.207 280.887,192.949 280.292,192.754 280.171 C 192.559 280.051,192.400 279.601,192.400 279.171 C 192.400 278.741,192.238 278.077,192.041 277.695 C 191.843 277.313,190.918 275.380,189.985 273.400 C 184.995 262.813,175.657 253.005,165.466 247.648 C 163.742 246.741,162.122 246.003,161.866 246.006 C 161.610 246.009,162.972 246.864,164.893 247.906 C 181.006 256.644,192.650 273.200,194.569 290.100 L 194.785 292.000 111.000 292.000 L 27.215 292.000 27.451 290.100 C 29.204 275.952,37.658 261.707,49.609 252.761 C 52.867 250.322,58.693 246.800,59.468 246.800 C 59.735 246.800,60.064 246.620,60.200 246.400 C 60.578 245.789,59.540 245.975,58.200 246.758 M186.810 249.802 C 188.894 252.003,190.682 253.751,190.782 253.687 C 190.882 253.622,189.177 251.821,186.992 249.685 L 183.020 245.800 186.810 249.802 M385.432 252.866 C 385.256 254.773,385.196 256.573,385.301 256.866 C 385.557 257.584,386.121 251.633,385.916 250.385 C 385.827 249.843,385.609 250.960,385.432 252.866 M227.314 252.200 C 227.317 253.300,227.395 253.703,227.487 253.095 C 227.579 252.486,227.577 251.586,227.482 251.095 C 227.387 250.603,227.311 251.100,227.314 252.200 M192.067 255.537 C 195.107 259.895,195.600 260.555,195.600 260.265 C 195.600 259.860,193.581 256.979,192.191 255.400 L 191.134 254.200 192.067 255.537 M228.114 259.400 C 228.117 260.500,228.195 260.903,228.287 260.295 C 228.379 259.686,228.377 258.786,228.282 258.295 C 228.187 257.803,228.111 258.300,228.114 259.400 M384.700 259.356 C 384.535 260.432,384.420 262.052,384.444 262.956 L 384.488 264.600 384.851 262.800 C 385.051 261.810,385.166 260.190,385.107 259.200 L 385.000 257.400 384.700 259.356 M196.015 261.000 C 196.017 261.220,196.386 261.850,196.836 262.400 C 197.379 263.064,197.515 263.131,197.240 262.600 C 196.566 261.295,196.012 260.572,196.015 261.000 M198.200 264.800 C 198.541 265.460,198.911 266.000,199.021 266.000 C 199.131 266.000,198.941 265.460,198.600 264.800 C 198.259 264.140,197.889 263.600,197.779 263.600 C 197.669 263.600,197.859 264.140,198.200 264.800 M228.914 266.200 C 228.917 267.300,228.995 267.703,229.087 267.095 C 229.179 266.486,229.177 265.586,229.082 265.095 C 228.987 264.603,228.911 265.100,228.914 266.200 M383.900 266.556 C 383.735 267.632,383.620 269.252,383.644 270.156 L 383.688 271.800 384.051 270.000 C 384.251 269.010,384.366 267.390,384.307 266.400 L 384.200 264.600 383.900 266.556 M383.253 272.600 C 383.212 273.040,382.992 275.110,382.764 277.200 C 382.535 279.290,382.182 282.530,381.978 284.400 C 381.773 286.270,381.423 289.510,381.200 291.600 C 380.977 293.690,380.625 296.930,380.419 298.800 C 380.213 300.670,379.854 303.955,379.622 306.100 C 379.390 308.245,379.010 311.755,378.778 313.900 C 378.546 316.045,378.196 319.240,378.000 321.000 C 377.804 322.760,377.460 325.910,377.234 328.000 C 377.009 330.090,376.643 333.420,376.421 335.400 C 375.556 343.137,375.161 346.740,374.800 350.200 C 374.593 352.180,374.245 355.420,374.027 357.400 C 373.809 359.380,373.267 364.385,372.823 368.522 C 372.379 372.660,371.742 378.392,371.408 381.260 C 371.074 384.129,370.800 386.729,370.800 387.038 C 370.800 387.518,362.295 387.600,312.454 387.600 L 254.107 387.600 253.856 384.900 C 253.717 383.415,253.433 380.670,253.225 378.800 C 253.016 376.930,252.652 373.432,252.416 371.026 C 251.991 366.702,251.600 365.045,251.600 367.569 C 251.600 370.388,253.669 387.401,254.071 387.885 C 254.546 388.458,369.796 388.664,370.629 388.094 C 371.136 387.747,371.730 383.706,372.835 373.100 C 373.036 371.175,373.380 367.980,373.600 366.000 C 374.080 361.679,374.610 356.811,375.190 351.400 C 375.426 349.200,375.798 345.780,376.017 343.800 C 376.235 341.820,376.580 338.670,376.783 336.800 C 376.985 334.930,377.352 331.600,377.598 329.400 C 378.571 320.680,378.769 318.851,379.154 315.000 C 379.374 312.800,379.647 310.280,379.762 309.400 C 379.876 308.520,380.159 306.090,380.390 304.000 C 382.902 281.287,383.620 274.114,383.486 273.052 C 383.399 272.363,383.294 272.160,383.253 272.600 M229.709 274.400 C 229.709 275.390,229.787 275.795,229.882 275.300 C 229.978 274.805,229.978 273.995,229.882 273.500 C 229.787 273.005,229.709 273.410,229.709 274.400 M230.509 281.600 C 230.509 282.590,230.587 282.995,230.682 282.500 C 230.778 282.005,230.778 281.195,230.682 280.700 C 230.587 280.205,230.509 280.610,230.509 281.600 M206.093 287.200 C 206.093 287.970,206.175 288.285,206.276 287.900 C 206.376 287.515,206.376 286.885,206.276 286.500 C 206.175 286.115,206.093 286.430,206.093 287.200 M231.273 289.000 C 231.258 289.660,231.395 290.920,231.577 291.800 C 232.013 293.906,232.050 292.014,231.620 289.600 C 231.380 288.250,231.293 288.100,231.273 289.000 M232.047 296.433 C 232.073 297.185,232.241 298.340,232.420 299.000 C 232.635 299.789,232.670 299.378,232.523 297.800 C 232.277 295.155,231.973 294.281,232.047 296.433 M214.182 297.384 C 215.052 298.177,216.280 299.405,216.911 300.113 L 218.058 301.400 217.038 299.974 C 216.477 299.190,215.249 297.962,214.309 297.245 L 212.600 295.942 214.182 297.384 M256.184 300.427 C 256.039 300.661,256.028 300.961,256.160 301.093 C 256.292 301.225,256.400 301.123,256.400 300.867 C 256.400 300.513,269.981 300.400,312.319 300.400 L 368.238 300.400 368.138 303.100 C 368.050 305.487,368.080 305.615,368.396 304.200 C 368.593 303.320,368.764 302.015,368.777 301.300 L 368.800 300.000 312.624 300.000 C 273.268 300.000,256.368 300.128,256.184 300.427 M256.407 302.433 C 256.414 303.362,256.633 305.510,257.605 314.200 C 257.852 316.400,258.231 319.910,258.449 322.000 C 258.666 324.090,259.004 327.240,259.200 329.000 C 259.396 330.760,259.746 333.955,259.978 336.100 C 260.210 338.245,260.590 341.755,260.822 343.900 C 261.054 346.045,261.413 349.330,261.619 351.200 C 261.825 353.070,262.177 356.310,262.400 358.400 C 262.623 360.490,262.987 363.820,263.208 365.800 C 263.429 367.780,263.720 370.750,263.854 372.400 C 263.989 374.050,264.279 375.625,264.499 375.900 C 264.814 376.295,274.878 376.400,312.400 376.400 C 349.919 376.400,359.987 376.295,360.306 375.900 C 360.529 375.625,360.826 374.230,360.967 372.800 C 361.109 371.370,361.395 368.760,361.604 367.000 C 361.813 365.240,362.620 357.770,363.398 350.400 C 364.175 343.030,364.988 335.576,365.205 333.836 C 365.623 330.488,365.723 327.744,365.416 328.051 C 365.315 328.152,365.027 330.207,364.777 332.617 C 364.528 335.028,364.165 338.530,363.972 340.400 C 363.779 342.270,363.437 345.420,363.213 347.400 C 362.990 349.380,362.623 352.710,362.400 354.800 C 362.177 356.890,361.825 360.130,361.620 362.000 C 361.414 363.870,361.065 367.220,360.845 369.444 C 360.624 371.668,360.324 373.963,360.178 374.544 L 359.913 375.600 312.357 375.600 C 286.200 375.600,264.795 375.555,264.789 375.500 C 264.783 375.445,264.609 373.780,264.402 371.800 C 264.196 369.820,263.850 366.670,263.634 364.800 C 263.419 362.930,263.047 359.600,262.808 357.400 C 262.568 355.200,262.187 351.690,261.960 349.600 C 261.733 347.510,261.381 344.270,261.177 342.400 C 260.973 340.530,260.623 337.290,260.400 335.200 C 259.955 331.040,259.485 326.751,258.798 320.600 C 258.014 313.583,257.628 309.900,257.254 305.878 C 256.920 302.284,256.390 300.129,256.407 302.433 M232.901 303.800 C 232.905 304.680,232.987 304.993,233.083 304.495 C 233.179 303.998,233.175 303.278,233.075 302.895 C 232.975 302.513,232.896 302.920,232.901 303.800 M219.478 304.195 C 219.844 304.962,220.214 305.519,220.301 305.432 C 220.484 305.249,219.270 302.800,218.996 302.800 C 218.895 302.800,219.112 303.428,219.478 304.195 M17.603 304.706 C 9.854 308.521,9.693 318.546,17.312 322.763 L 18.824 323.600 110.974 323.600 L 203.124 323.600 204.825 322.700 C 212.139 318.830,212.355 309.652,205.240 305.139 L 203.443 304.000 111.222 304.009 C 24.835 304.018,18.912 304.062,17.603 304.706 M233.293 306.800 C 233.293 307.570,233.375 307.885,233.476 307.500 C 233.576 307.115,233.576 306.485,233.476 306.100 C 233.375 305.715,233.293 306.030,233.293 306.800 M367.500 307.756 C 367.335 308.832,367.220 310.452,367.244 311.356 L 367.288 313.000 367.651 311.200 C 367.851 310.210,367.966 308.590,367.907 307.600 L 367.800 305.800 367.500 307.756 M221.476 310.646 C 221.740 313.355,221.932 313.733,221.962 311.600 C 221.976 310.610,221.830 309.551,221.637 309.246 C 221.421 308.905,221.359 309.442,221.476 310.646 M269.350 312.185 C 269.227 312.507,269.504 316.242,269.967 320.485 C 270.430 324.728,270.994 329.910,271.221 332.000 C 271.448 334.090,271.793 337.150,271.988 338.800 C 272.183 340.450,272.543 343.870,272.788 346.400 C 273.033 348.930,273.406 352.101,273.617 353.446 C 273.827 354.791,274.011 356.681,274.025 357.646 C 274.038 358.611,274.272 360.570,274.545 362.000 L 275.041 364.600 311.620 364.710 C 352.094 364.832,349.815 364.927,350.148 363.104 C 350.395 361.753,351.737 349.995,352.442 343.000 C 352.664 340.800,353.015 337.470,353.222 335.600 C 353.428 333.730,353.782 330.490,354.008 328.400 C 354.234 326.310,354.602 322.980,354.827 321.000 C 355.051 319.020,355.336 316.095,355.461 314.500 L 355.687 311.600 312.631 311.600 C 275.214 311.600,269.545 311.677,269.350 312.185 M355.063 313.500 C 354.931 314.325,354.542 317.700,354.200 321.000 C 353.857 324.300,353.137 331.050,352.601 336.000 C 352.064 340.950,351.427 346.890,351.184 349.200 C 350.942 351.510,350.576 354.604,350.372 356.077 C 350.167 357.549,349.998 359.529,349.995 360.477 C 349.992 361.424,349.881 362.605,349.748 363.100 L 349.507 364.000 312.408 364.000 L 275.310 364.000 275.035 361.300 C 274.884 359.815,274.593 357.070,274.388 355.200 C 273.361 345.845,273.153 343.929,272.800 340.600 C 272.590 338.620,272.239 335.380,272.019 333.400 C 271.799 331.420,271.442 328.090,271.226 326.000 C 270.505 319.037,270.035 315.015,269.764 313.500 L 269.495 312.000 312.399 312.000 L 355.302 312.000 355.063 313.500 M210.000 314.204 C 210.000 317.259,207.440 320.835,204.145 322.384 C 202.020 323.383,21.985 323.707,18.683 322.718 C 15.606 321.796,12.000 317.054,12.000 313.930 C 12.000 313.228,15.560 313.198,110.700 313.100 C 164.985 313.044,209.535 312.954,209.700 312.899 C 209.865 312.845,210.000 313.432,210.000 314.204 M366.665 316.200 C 366.507 317.960,366.202 320.375,365.989 321.567 C 365.610 323.677,365.445 327.900,365.754 327.567 C 366.046 327.252,367.277 314.959,367.115 313.979 C 367.026 313.441,366.824 314.440,366.665 316.200 M221.714 315.800 C 221.717 316.900,221.795 317.303,221.887 316.695 C 221.979 316.086,221.977 315.186,221.882 314.695 C 221.787 314.203,221.711 314.700,221.714 315.800 M246.238 317.600 C 246.339 319.470,246.579 322.440,246.772 324.200 C 246.964 325.960,247.311 329.356,247.542 331.748 C 247.773 334.139,248.085 336.209,248.235 336.348 C 248.565 336.653,248.245 332.594,247.183 323.000 C 246.231 314.404,245.990 313.028,246.238 317.600 M216.575 327.700 L 215.400 329.000 216.700 327.825 C 217.415 327.179,218.000 326.594,218.000 326.525 C 218.000 326.216,217.670 326.488,216.575 327.700 M235.701 328.600 C 235.705 329.480,235.787 329.793,235.883 329.295 C 235.979 328.798,235.975 328.078,235.875 327.695 C 235.775 327.313,235.696 327.720,235.701 328.600 M236.277 334.600 C 236.400 335.920,236.568 337.075,236.650 337.167 C 236.918 337.464,236.715 334.634,236.380 333.400 C 236.165 332.611,236.130 333.022,236.277 334.600 M17.627 335.894 C 15.660 336.863,12.209 340.428,12.473 341.220 C 12.545 341.435,13.024 340.934,13.538 340.106 C 15.535 336.884,17.896 335.818,23.373 335.665 L 28.200 335.531 30.000 336.843 C 30.990 337.565,33.240 339.169,35.000 340.407 C 36.760 341.645,40.450 344.256,43.200 346.208 C 45.950 348.161,49.681 350.777,51.491 352.022 C 53.301 353.267,54.666 354.401,54.524 354.543 C 54.082 354.985,20.736 354.833,19.110 354.382 C 14.944 353.225,11.787 348.767,12.115 344.505 C 12.222 343.109,12.151 342.106,11.954 342.229 C 10.365 343.210,12.114 349.652,14.668 352.230 C 17.511 355.099,16.613 354.982,36.761 355.117 C 53.940 355.232,57.774 355.027,55.322 354.124 C 55.060 354.027,54.219 353.465,53.454 352.874 C 52.689 352.283,50.114 350.451,47.732 348.803 C 45.349 347.154,43.130 345.579,42.800 345.303 C 42.470 345.027,41.090 344.036,39.734 343.101 C 38.378 342.165,35.280 340.005,32.852 338.300 L 28.435 335.200 23.718 335.209 C 20.111 335.216,18.677 335.377,17.627 335.894 M48.800 335.585 C 48.800 335.909,52.080 338.400,54.351 339.800 C 54.708 340.020,55.090 340.304,55.200 340.430 C 55.310 340.557,56.570 341.443,58.000 342.400 C 59.430 343.357,60.690 344.259,60.800 344.404 C 60.910 344.549,62.350 345.598,64.000 346.734 C 68.687 349.963,76.558 355.507,77.000 355.891 C 77.220 356.083,78.570 357.030,80.000 357.997 C 81.430 358.965,82.820 359.973,83.089 360.239 C 85.208 362.329,87.111 362.685,88.629 361.276 C 89.053 360.883,90.570 359.773,92.000 358.811 C 93.430 357.848,94.690 356.957,94.800 356.830 C 94.910 356.704,95.287 356.420,95.639 356.200 C 102.390 351.973,102.483 351.751,98.595 349.094 C 97.058 348.043,95.513 346.943,95.162 346.649 C 94.811 346.355,93.371 345.332,91.962 344.376 C 90.553 343.421,89.220 342.486,89.000 342.298 C 88.780 342.111,86.440 340.438,83.800 338.581 L 79.000 335.204 63.900 335.202 C 54.488 335.201,48.800 335.345,48.800 335.585 M99.200 335.588 C 99.200 335.801,100.505 336.878,102.100 337.980 C 107.652 341.817,111.803 344.738,112.200 345.087 C 112.420 345.281,113.680 346.190,115.000 347.108 C 122.055 352.016,128.247 356.377,128.600 356.687 C 128.820 356.881,130.170 357.830,131.600 358.797 C 133.030 359.765,134.453 360.806,134.762 361.112 C 136.314 362.646,138.404 362.327,140.511 360.236 C 140.780 359.969,142.620 358.643,144.600 357.291 C 147.776 355.121,153.167 351.340,159.949 346.526 C 161.131 345.687,162.301 344.809,162.549 344.575 C 162.797 344.341,164.620 343.038,166.600 341.679 C 173.349 337.045,174.800 335.967,174.800 335.584 C 174.800 335.342,160.853 335.200,137.000 335.200 C 112.859 335.200,99.200 335.340,99.200 335.588 M191.400 337.839 C 187.796 340.427,182.850 343.910,178.251 347.101 C 176.903 348.036,175.526 349.026,175.192 349.301 C 174.858 349.575,173.778 350.338,172.792 350.995 C 166.180 355.403,165.599 355.202,184.900 355.190 C 205.339 355.179,205.871 355.065,209.006 350.054 C 213.475 342.908,208.253 335.165,199.006 335.227 L 195.000 335.254 191.400 337.839 M81.077 337.300 C 82.433 338.235,85.831 340.620,88.627 342.600 C 91.423 344.580,95.261 347.287,97.155 348.615 C 99.050 349.944,100.600 351.281,100.600 351.588 C 100.600 352.290,87.663 361.566,86.656 361.585 C 86.246 361.593,83.456 359.858,80.456 357.729 C 77.455 355.599,74.190 353.304,73.200 352.629 C 72.210 351.953,71.310 351.295,71.200 351.168 C 71.090 351.040,69.650 350.008,68.000 348.874 C 66.350 347.740,64.190 346.238,63.200 345.537 C 62.210 344.836,58.745 342.386,55.500 340.093 C 52.255 337.799,49.600 335.850,49.600 335.761 C 49.600 335.673,56.127 335.600,64.106 335.600 L 78.611 335.600 81.077 337.300 M174.000 335.761 C 174.000 335.901,164.055 343.018,160.600 345.351 C 159.940 345.797,159.310 346.274,159.200 346.411 C 159.090 346.548,157.830 347.443,156.400 348.401 C 154.970 349.358,150.470 352.514,146.400 355.414 C 142.330 358.314,138.542 360.979,137.982 361.336 C 136.837 362.066,137.709 362.538,129.535 356.760 C 123.773 352.686,116.117 347.269,112.800 344.918 C 111.150 343.749,107.685 341.322,105.100 339.525 C 102.515 337.727,100.400 336.109,100.400 335.929 C 100.400 335.748,116.960 335.600,137.200 335.600 C 157.440 335.600,174.000 335.673,174.000 335.761 M205.289 336.946 C 211.767 340.778,211.538 349.581,204.858 353.508 L 203.000 354.600 186.433 354.717 C 166.847 354.855,167.746 355.020,172.040 352.075 C 177.213 348.527,182.553 344.773,185.800 342.402 C 186.900 341.599,189.510 339.724,191.600 338.236 L 195.400 335.530 199.400 335.679 C 202.910 335.810,203.631 335.965,205.289 336.946 M248.497 339.000 C 248.496 340.320,248.632 341.940,248.800 342.600 C 249.241 344.335,249.258 340.861,248.820 338.400 L 248.500 336.600 248.497 339.000 M237.077 341.800 C 237.200 343.120,237.368 344.275,237.450 344.367 C 237.718 344.664,237.515 341.834,237.180 340.600 C 236.965 339.811,236.930 340.222,237.077 341.800 M221.714 343.000 C 221.717 344.100,221.795 344.503,221.887 343.895 C 221.979 343.286,221.977 342.386,221.882 341.895 C 221.787 341.403,221.711 341.900,221.714 343.000 M249.297 346.200 C 249.296 347.520,249.432 349.140,249.600 349.800 C 250.041 351.535,250.058 348.061,249.620 345.600 L 249.300 343.800 249.297 346.200 M221.670 347.067 C 221.631 347.984,221.496 349.064,221.370 349.467 C 221.153 350.156,221.167 350.157,221.593 349.495 C 221.842 349.107,221.977 348.027,221.893 347.095 L 221.740 345.400 221.670 347.067 M237.877 349.400 C 238.000 350.720,238.168 351.875,238.250 351.967 C 238.518 352.264,238.315 349.434,237.980 348.200 C 237.765 347.411,237.730 347.822,237.877 349.400 M250.069 353.800 C 250.056 354.900,250.195 356.520,250.377 357.400 L 250.708 359.000 250.731 357.000 C 250.744 355.900,250.605 354.280,250.423 353.400 L 250.092 351.800 250.069 353.800 M238.677 356.600 C 238.800 357.920,238.968 359.075,239.050 359.167 C 239.318 359.464,239.115 356.634,238.780 355.400 C 238.565 354.611,238.530 355.022,238.677 356.600 M216.026 359.700 C 215.050 360.855,214.753 361.350,215.365 360.800 C 216.396 359.873,218.217 357.600,217.927 357.600 C 217.857 357.600,217.002 358.545,216.026 359.700 M109.195 360.267 C 107.988 361.073,106.910 361.838,106.800 361.967 C 106.690 362.095,106.310 362.380,105.956 362.600 C 104.934 363.235,103.366 364.327,97.600 368.419 C 94.630 370.527,91.300 372.861,90.200 373.607 C 89.100 374.352,87.962 375.196,87.671 375.481 C 86.974 376.166,86.195 376.137,85.457 375.400 C 85.127 375.070,84.679 374.800,84.462 374.800 C 84.245 374.800,84.007 374.651,83.933 374.470 C 83.860 374.288,82.384 373.163,80.653 371.970 C 78.922 370.776,76.404 369.035,75.058 368.100 L 72.611 366.400 49.906 366.400 L 27.200 366.400 27.200 367.376 C 27.200 367.913,27.380 368.464,27.600 368.600 C 27.820 368.736,28.000 369.172,28.000 369.568 C 28.000 370.414,30.697 375.779,31.823 377.173 C 36.572 383.052,45.767 388.619,48.870 387.495 C 49.161 387.389,48.681 387.161,47.803 386.989 C 39.273 385.312,30.786 377.525,28.230 369.033 C 27.501 366.610,25.629 366.800,50.171 366.800 L 72.209 366.800 75.258 368.900 C 76.935 370.055,79.723 371.970,81.454 373.155 C 83.184 374.341,85.000 375.672,85.488 376.114 L 86.376 376.917 89.488 374.784 C 91.200 373.611,93.050 372.312,93.600 371.897 C 94.982 370.853,104.295 364.260,108.305 361.486 C 111.873 359.018,112.076 358.940,112.871 359.715 C 113.162 359.998,114.840 361.222,116.600 362.435 C 118.360 363.648,122.199 366.341,125.132 368.420 C 137.418 377.131,137.152 376.966,137.911 376.298 C 138.549 375.735,141.703 373.496,148.571 368.725 L 151.342 366.800 172.871 366.800 C 184.712 366.800,194.400 366.922,194.400 367.072 C 194.400 373.981,183.563 384.928,174.800 386.872 C 173.559 387.147,172.955 387.419,173.413 387.496 C 177.598 388.199,191.553 378.557,191.595 374.933 C 191.598 374.677,191.735 374.407,191.900 374.333 C 192.391 374.115,194.000 370.784,194.000 369.986 C 194.000 369.580,194.180 369.136,194.400 369.000 C 194.620 368.864,194.800 368.223,194.800 367.576 L 194.800 366.400 172.893 366.400 L 150.986 366.400 145.793 370.018 C 142.937 372.007,140.330 373.855,140.000 374.123 C 138.268 375.532,136.800 376.405,136.800 376.027 C 136.800 375.792,136.545 375.600,136.233 375.600 C 135.922 375.600,135.607 375.457,135.533 375.283 C 135.460 375.109,133.870 373.911,132.000 372.621 C 128.452 370.174,125.800 368.308,121.284 365.083 C 111.436 358.049,112.111 358.318,109.195 360.267 M250.876 360.800 C 250.867 361.790,251.003 363.410,251.180 364.400 L 251.500 366.200 251.527 364.200 C 251.542 363.100,251.405 361.480,251.223 360.600 L 250.892 359.000 250.876 360.800 M239.709 365.600 C 239.709 366.590,239.787 366.995,239.882 366.500 C 239.978 366.005,239.978 365.195,239.882 364.700 C 239.787 364.205,239.709 364.610,239.709 365.600 M207.289 365.423 C 206.800 365.765,206.400 366.250,206.400 366.499 C 206.400 366.749,206.625 366.671,206.900 366.326 C 207.175 365.981,207.760 365.503,208.200 365.262 C 208.640 365.021,208.815 364.819,208.589 364.812 C 208.363 364.805,207.778 365.080,207.289 365.423 M240.509 372.800 C 240.509 373.790,240.587 374.195,240.682 373.700 C 240.778 373.205,240.778 372.395,240.682 371.900 C 240.587 371.405,240.509 371.810,240.509 372.800 M241.309 380.000 C 241.309 380.990,241.387 381.395,241.482 380.900 C 241.578 380.405,241.578 379.595,241.482 379.100 C 241.387 378.605,241.309 379.010,241.309 380.000 M201.353 380.500 C 199.976 382.836,199.886 383.035,200.587 382.200 C 201.400 381.232,202.100 380.000,201.838 380.000 C 201.733 380.000,201.515 380.225,201.353 380.500 M197.381 386.100 L 195.800 387.800 197.500 386.219 C 199.081 384.748,199.384 384.400,199.081 384.400 C 199.016 384.400,198.251 385.165,197.381 386.100 M242.114 387.800 C 242.117 388.900,242.195 389.303,242.287 388.695 C 242.379 388.086,242.377 387.186,242.282 386.695 C 242.187 386.203,242.111 386.700,242.114 387.800 M51.000 388.000 C 51.660 388.168,78.660 388.305,111.000 388.305 C 143.340 388.305,170.340 388.168,171.000 388.000 C 171.660 387.832,144.660 387.695,111.000 387.695 C 77.340 387.695,50.340 387.832,51.000 388.000 M190.800 392.049 C 189.406 393.271,189.405 393.272,190.688 392.419 C 191.396 391.948,192.082 391.391,192.212 391.181 C 192.597 390.557,192.277 390.754,190.800 392.049 " stroke="none" fill="#5e4122" fill-rule="evenodd"></path></g></svg>